<svg width="768" height="880" viewBox="0 0 768 880" fill="none" xmlns="http://www.w3.org/2000/svg">
<path d="M453.728 524L473.701 804.431C475.845 834.528 452.007 860.125 421.833 860.125H333.718C303.248 860.125 279.306 834.045 281.907 803.687L305.868 524H453.728Z" fill="#F3D6C9" stroke="#1A1A1A" stroke-width="24"/>
<path d="M378.081 316C438.978 316 476.916 336.293 502.851 362.55C529.341 389.37 544.021 423.011 557.067 451.841C566.514 472.715 584.822 488.67 604.881 502.146C624.864 515.573 648.804 527.905 670.113 540.078C692.005 552.584 711.668 565.191 725.866 579.987C739.774 594.481 748 610.604 748 630.616C748 642.002 744.427 650.804 738.09 658.024C731.533 665.495 721.478 671.859 707.75 676.98C680.095 687.297 640.804 691.403 595.709 691.938C550.885 692.47 501.645 689.484 454.637 686.327C407.898 683.189 363.081 679.856 328 679.856C257.411 679.856 179.362 685.734 117.528 678.58C86.7558 675.02 61.97 668.37 45.1367 657.331C29.1364 646.839 20 632.256 20 610.202C20 585.242 28.9478 568.813 42.4766 556.679C56.5647 544.043 76.1983 535.562 98.2783 528.389C109.245 524.826 120.387 521.712 131.521 518.506C142.52 515.338 153.511 512.081 163.569 508.346C182.98 501.137 202.47 490.955 210.933 472.255C221.839 448.154 233.233 410.022 258.242 376.104C282.463 343.255 318.631 316 378.081 316Z" fill="#F24822" stroke="#1A1A1A" stroke-width="24"/>
<mask id="mask0_1_9726" style="mask-type:alpha" maskUnits="userSpaceOnUse" x="16" y="310" width="737" height="371">
<path d="M378.143 310.325C439.898 310.326 476.892 331.507 501.392 357.116C526.787 383.664 540.962 416.946 554.776 448.463L557.146 453.497C569.545 478.198 590.317 495.909 610.154 509.67C631.521 524.491 657.46 538.31 679.12 551.085C702.036 564.602 721.221 577.488 734.613 591.897C747.477 605.741 752.68 618.423 752.68 632.285C752.678 638.605 751.049 643.277 746.957 648.09C742.154 653.739 733.635 659.755 720.012 665.002C692.65 675.541 652.809 679.989 605.772 680.566C559.25 681.136 508.037 677.937 458.832 674.526C410.097 671.147 362.813 667.519 325.74 667.519C250.845 667.519 170.555 673.843 106.483 666.19C74.5836 662.38 50.4617 655.376 34.9664 644.889C21.0839 635.489 16.0013 625.018 16 610.218C16.0012 590.538 22.3162 577.973 33.6747 567.454C46.4026 555.67 65.0813 547.059 88.0722 539.347C99.3527 535.564 110.805 532.25 122.555 528.757C134.056 525.338 145.877 521.722 156.776 517.542C167.585 513.397 178.592 508.31 188.218 501.435C197.825 494.574 207.639 484.823 213.904 470.53L218.597 459.275C229.41 432.283 239.878 400.3 261.5 370.022C284.302 338.095 318.922 310.326 378.143 310.325Z" fill="#DA3636"/>
</mask>
<g mask="url(#mask0_1_9726)">
<circle cx="520" cy="391.999" r="72" fill="#F5F5F5"/>
<circle cx="200" cy="455.999" r="72" fill="#F5F5F5"/>
<circle cx="152" cy="663.999" r="72" fill="#F5F5F5"/>
<circle cx="456" cy="647.999" r="72" fill="#F5F5F5"/>
<circle cx="680" cy="560.349" r="72" fill="#F5F5F5"/>
</g>
<circle cx="324" cy="479.925" r="15.9248" fill="#1A1A1A"/>
<circle cx="443.999" cy="479.925" r="15.9248" fill="#1A1A1A"/>
<path d="M348.074 509.717C365.534 528.51 395.048 529.228 413.4 511.304L415.025 509.717" stroke="#1A1A1A" stroke-width="24" stroke-linecap="round"/>
<path d="M378.081 316C438.978 316 476.916 336.293 502.851 362.55C529.341 389.37 544.021 423.011 557.067 451.841C566.514 472.715 584.822 488.67 604.881 502.146C624.864 515.573 648.804 527.905 670.113 540.078C692.005 552.584 711.668 565.191 725.866 579.987C739.774 594.481 748 610.604 748 630.616C748 642.002 744.427 650.804 738.09 658.024C731.533 665.495 721.478 671.859 707.75 676.98C680.095 687.297 640.804 691.403 595.709 691.938C550.885 692.47 501.645 689.484 454.637 686.327C407.898 683.189 363.081 679.856 328 679.856C257.411 679.856 179.362 685.734 117.528 678.58C86.7558 675.02 61.97 668.37 45.1367 657.331C29.1364 646.839 20 632.256 20 610.202C20 585.242 28.9478 568.813 42.4766 556.679C56.5647 544.043 76.1983 535.562 98.2783 528.389C109.245 524.826 120.387 521.712 131.521 518.506C142.52 515.338 153.511 512.081 163.569 508.346C182.98 501.137 202.47 490.955 210.933 472.255C221.839 448.154 233.233 410.022 258.242 376.104C282.463 343.255 318.631 316 378.081 316Z" stroke="#1A1A1A" stroke-width="24"/>
</svg>
