<svg width="768" height="880" viewBox="0 0 768 880" fill="none" xmlns="http://www.w3.org/2000/svg">
<path d="M386.457 265.917C387.61 264.941 389.42 264.912 390.639 265.936C419.194 289.916 435.892 311.325 444.999 330.733C454.013 349.942 455.891 367.82 453.774 385.432C451.621 403.35 445.325 421.147 437.561 440.18C431.001 456.26 423.217 473.591 416.99 491.468H375.554C367.673 473.389 358.254 455.609 350.313 439.121C341.049 419.884 333.444 401.758 330.115 383.618C326.841 365.773 327.71 347.908 335.611 329.04C343.593 309.98 359.098 289.078 386.457 265.917Z" fill="#FFCD29" stroke="#1A1A1A" stroke-width="24" stroke-linejoin="round"/>
<path d="M532.328 298.683C533.814 298.415 535.397 299.295 535.94 300.79C548.68 335.836 552.436 362.725 550.619 384.087C548.82 405.229 541.508 421.651 530.869 435.845C520.045 450.286 505.695 462.55 489.454 475.151C475.733 485.797 460.327 496.914 445.995 509.283L410.11 488.564C412.324 468.967 413.057 448.86 414.425 430.611C416.02 409.318 418.497 389.819 424.684 372.445C430.771 355.353 440.456 340.316 456.733 327.927C473.176 315.411 497.054 305.061 532.328 298.683Z" fill="#FFCD29" stroke="#1A1A1A" stroke-width="24" stroke-linejoin="round"/>
<path d="M637.34 392.911C638.797 393.309 639.846 394.785 639.692 396.368C636.093 433.484 627.9 459.368 617.058 477.864C606.328 496.169 592.655 507.839 576.94 516.066C560.951 524.436 542.717 529.323 522.632 533.698C505.664 537.395 486.971 540.792 468.71 545.781L445.249 511.625C455.69 494.893 465.012 477.063 474.107 461.183C484.719 442.654 495.354 426.123 508.422 413.109C521.277 400.306 536.495 390.908 556.521 386.738C576.751 382.526 602.759 383.472 637.34 392.911Z" fill="#FFCD29" stroke="#1A1A1A" stroke-width="24" stroke-linejoin="round"/>
<path d="M689.502 525.735C690.627 526.743 690.905 528.532 690.06 529.88C670.241 561.467 651.336 580.953 633.367 592.647C615.583 604.221 598.134 608.543 580.399 608.873C562.354 609.209 543.86 605.424 523.939 600.355C507.109 596.072 488.871 590.75 470.307 587.045L464.599 546.003C481.421 535.707 497.733 523.929 512.97 513.794C530.748 501.968 547.653 491.938 565.162 486.143C582.387 480.441 600.2 478.842 619.977 484.069C639.955 489.349 662.793 501.827 689.502 525.735Z" fill="#FFCD29" stroke="#1A1A1A" stroke-width="24" stroke-linejoin="round"/>
<path d="M675.806 671.956C676.294 673.385 675.66 675.081 674.264 675.843C641.522 693.69 615.499 701.432 594.107 702.836C572.933 704.226 555.601 699.456 539.974 691.065C524.074 682.527 509.798 670.176 494.906 656.006C482.325 644.035 469.024 630.469 454.648 618.152L469.756 579.568C489.464 578.821 509.454 576.533 527.702 575.151C548.993 573.538 568.643 573.064 586.748 576.579C604.559 580.036 620.877 587.358 635.566 601.596C650.404 615.977 664.214 638.035 675.806 671.956Z" fill="#FFCD29" stroke="#1A1A1A" stroke-width="24" stroke-linejoin="round"/>
<path d="M597.003 787.334C596.808 788.832 595.488 790.072 593.899 790.136C556.639 791.631 529.879 787.044 510.078 778.826C490.48 770.692 477.055 758.738 466.762 744.292C456.29 729.593 448.963 712.196 441.889 692.896C435.913 676.59 429.999 658.535 422.566 641.125L453.204 613.226C471.203 621.287 490.138 628.091 507.11 634.936C526.912 642.922 544.739 651.203 559.414 662.374C573.85 673.364 585.236 687.157 592.097 706.428C599.029 725.895 601.638 751.789 597.003 787.334Z" fill="#FFCD29" stroke="#1A1A1A" stroke-width="24" stroke-linejoin="round"/>
<path d="M467.167 859.098C466.262 860.307 464.503 860.739 463.087 860.015C429.895 843.022 408.835 825.886 395.621 809.003C382.543 792.295 376.717 775.288 374.844 757.65C372.939 739.703 375.098 720.949 378.413 700.663C381.214 683.523 384.927 664.891 387.002 646.075L427.391 636.815C439.113 652.676 452.267 667.901 463.691 682.197C477.02 698.878 488.483 714.845 495.781 731.783C502.961 748.445 506.106 766.052 502.621 786.209C499.1 806.571 488.659 830.409 467.167 859.098Z" fill="#FFCD29" stroke="#1A1A1A" stroke-width="24" stroke-linejoin="round"/>
<path d="M319.493 859.571C318.104 860.163 316.365 859.657 315.503 858.32C295.288 826.985 285.646 801.605 282.666 780.374C279.717 759.362 283.195 741.725 290.41 725.52C297.751 709.033 309.014 693.885 322.046 677.987C333.056 664.557 345.603 650.291 356.825 635.045L396.419 647.263C398.619 666.863 402.376 686.629 405.102 704.725C408.282 725.839 410.204 745.401 408.036 763.716C405.903 781.734 399.805 798.548 386.691 814.247C373.444 830.106 352.466 845.507 319.493 859.571Z" fill="#FFCD29" stroke="#1A1A1A" stroke-width="24" stroke-linejoin="round"/>
<path d="M198.069 795.261C196.561 795.18 195.224 793.96 195.039 792.379C190.708 755.342 193.242 728.311 199.927 707.941C206.543 687.78 217.439 673.482 231.059 662.118C244.916 650.556 261.705 641.924 280.41 633.4C296.213 626.198 313.764 618.925 330.557 610.187L360.71 638.609C354.045 657.171 348.704 676.569 343.172 694.013C336.719 714.367 329.821 732.773 319.801 748.256C309.943 763.488 297.058 775.892 278.366 784.203C259.484 792.598 233.865 797.173 198.069 795.261Z" fill="#FFCD29" stroke="#1A1A1A" stroke-width="24" stroke-linejoin="round"/>
<path d="M120.907 681.117C119.539 680.478 118.755 678.845 119.175 677.311C129.01 641.342 141.47 617.22 155.289 600.828C168.965 584.605 184.418 575.42 201.299 569.975C218.475 564.434 237.274 562.708 257.809 561.798C275.159 561.03 294.156 560.849 312.999 559.026L330.334 596.662C317.21 611.384 305.001 627.377 293.347 641.487C279.749 657.949 266.468 672.44 251.384 683.052C236.545 693.492 219.956 700.176 199.512 700.892C178.861 701.616 153.389 696.278 120.907 681.117Z" fill="#FFCD29" stroke="#1A1A1A" stroke-width="24" stroke-linejoin="round"/>
<path d="M90.3171 535.528C89.4926 534.262 89.6896 532.462 90.8566 531.381C118.209 506.036 141.531 492.137 161.923 485.519C182.105 478.969 200.078 479.333 217.288 483.627C234.799 487.997 251.672 496.461 269.589 506.537C284.727 515.049 300.953 524.931 317.915 533.338L312.751 574.451C293.831 580.018 275.016 587.148 257.668 592.972C237.426 599.767 218.494 605.054 200.08 606.097C181.966 607.122 164.349 604.034 146.612 593.843C128.696 583.548 109.888 565.56 90.3171 535.528Z" fill="#FFCD29" stroke="#1A1A1A" stroke-width="24" stroke-linejoin="round"/>
<path d="M142.603 401.044C142.456 399.541 143.461 398.035 144.996 397.615C180.958 387.754 208.063 386.188 229.207 389.729C250.135 393.233 265.91 401.851 279.196 413.604C292.714 425.562 303.776 440.858 315.02 458.066C324.52 472.604 334.353 488.86 345.521 504.145L321.965 538.235C302.611 534.441 282.63 532.083 264.551 529.242C243.458 525.928 224.223 521.881 207.407 514.307C190.864 506.857 176.661 495.986 165.63 478.759C154.487 461.357 146.104 436.719 142.603 401.044Z" fill="#FFCD29" stroke="#1A1A1A" stroke-width="24" stroke-linejoin="round"/>
<path d="M246.019 305.679C246.582 304.277 248.168 303.405 249.724 303.74C286.18 311.579 310.951 322.692 328.079 335.587C345.03 348.349 355.052 363.273 361.419 379.829C367.897 396.674 370.656 415.349 372.695 435.803C374.418 453.084 375.644 472.043 378.502 490.756L341.877 510.137C326.455 497.844 309.814 486.534 295.084 475.675C277.898 463.004 262.698 450.541 251.272 436.064C240.03 421.823 232.443 405.627 230.602 385.254C228.742 364.674 232.669 338.947 246.019 305.679Z" fill="#FFCD29" stroke="#1A1A1A" stroke-width="24" stroke-linejoin="round"/>
<path d="M247.289 542.079C247.289 619.699 281.852 649.961 300.416 662.848C396.599 729.613 462.893 667.872 497.513 604.463C515.632 571.277 516.615 529.968 495.072 498.896C462.594 452.052 416.268 438.576 386.355 433.962C292.903 419.546 247.289 485.369 247.289 542.079Z" fill="#A55E40" stroke="#1A1A1A" stroke-width="24" stroke-linejoin="round"/>
<circle cx="328.994" cy="534.883" r="13.5644" fill="#1A1A1A"/>
<circle cx="431.209" cy="534.883" r="13.5644" fill="#1A1A1A"/>
<path d="M349.502 577.295C364.374 593.303 389.514 593.914 405.146 578.646L406.53 577.295" stroke="#1A1A1A" stroke-width="24" stroke-linecap="round"/>
</svg>
