<svg width="768" height="885" viewBox="0 0 768 885" fill="none" xmlns="http://www.w3.org/2000/svg">
<path d="M172.405 351.307C148.51 329.307 90.6751 293.011 50.4984 323.832" stroke="#1A1A1A" stroke-width="24" stroke-linecap="round"/>
<circle cx="663.239" cy="577.718" r="53.3333" transform="rotate(46.6526 663.239 577.718)" fill="#FFD966" stroke="#1A1A1A" stroke-width="24"/>
<circle cx="621.806" cy="660.466" r="53.3333" transform="rotate(46.6526 621.806 660.466)" fill="#85E0A3" stroke="#1A1A1A" stroke-width="24"/>
<circle cx="527.544" cy="723.772" r="72" transform="rotate(46.6526 527.544 723.772)" fill="#80CAFF" stroke="#1A1A1A" stroke-width="24"/>
<circle cx="380.889" cy="772.359" r="100" transform="rotate(46.6526 380.889 772.359)" fill="#9747FF" stroke="#1A1A1A" stroke-width="24"/>
<circle cx="225.229" cy="675.435" r="128" transform="rotate(46.6526 225.229 675.435)" fill="#FFAFA3" stroke="#1A1A1A" stroke-width="24"/>
<circle cx="263.087" cy="474.683" r="165.333" transform="rotate(46.6526 263.087 474.683)" fill="#F24822" stroke="#1A1A1A" stroke-width="24"/>
<ellipse cx="174.271" cy="443.039" rx="12.7398" ry="13.2401" fill="#1A1A1A"/>
<ellipse cx="276.19" cy="443.039" rx="12.7398" ry="13.2401" fill="#1A1A1A"/>
<path d="M199.75 467.495C213.553 482.936 237.525 483.518 252.061 468.764L253.311 467.495" stroke="#1A1A1A" stroke-width="24" stroke-linecap="round"/>
<path d="M392.598 364.21C419.793 337.909 484.226 293.011 524.403 323.832" stroke="#1A1A1A" stroke-width="24" stroke-linecap="round"/>
<circle cx="38.3433" cy="333.578" r="25.9395" fill="#1A1A1A"/>
<circle cx="534.343" cy="333.578" r="25.9395" fill="#1A1A1A"/>
</svg>
