<svg width="768" height="880" viewBox="0 0 768 880" fill="none" xmlns="http://www.w3.org/2000/svg">
<mask id="path-1-inside-1_1_9737" fill="white">
<path d="M536.531 519.355C611.9 519.356 675.551 569.517 695.925 638.275C710.356 646.688 720 661.938 720 679.355C720 691.65 715.193 702.863 707.291 711.355C715.193 719.848 720 731.061 720 743.355C720 757.928 713.248 770.981 702.592 779.784C703.509 783.49 704 787.366 704 791.355C704 817.865 682.51 839.355 656 839.355C647.238 839.355 639.025 837.006 631.954 832.905C623.055 848.795 607.636 859.302 590.104 859.302C585.932 859.302 581.88 858.706 578.007 857.585C568.933 868.508 556.201 875.302 542.104 875.302C529.925 875.302 518.765 870.232 510.103 861.81C501.44 870.231 490.282 875.302 478.104 875.302C465.925 875.302 454.765 870.232 446.103 861.81C437.44 870.231 426.282 875.302 414.104 875.302C397.731 875.302 383.202 866.14 374.104 851.988C365.005 866.14 350.476 875.302 334.104 875.302C321.925 875.302 310.766 870.231 302.104 861.81C293.441 870.231 282.282 875.302 270.104 875.302C253.339 875.302 238.506 865.696 229.459 850.963C227.733 850.79 226.015 850.59 224.306 850.365C215.831 860.819 203.809 867.347 190.474 867.347C176.925 867.347 164.732 860.609 156.237 849.861C150.3 853.351 143.385 855.355 136 855.355C113.909 855.355 96 837.447 96 815.355C96 805.188 99.7951 795.908 106.044 788.851C90.8347 783.187 80 768.538 80 751.355C80 746.299 80.9404 741.462 82.6523 737.009C71.9074 733.639 64 722.238 64 708.688C64 706.603 64.1879 704.569 64.5439 702.607C64.1855 700.242 64 697.821 64 695.355C64 680.039 71.1742 666.397 82.3457 657.608C95.6443 579.124 163.953 519.355 246.223 519.355H536.531Z"/>
</mask>
<path d="M536.531 519.355C611.9 519.356 675.551 569.517 695.925 638.275C710.356 646.688 720 661.938 720 679.355C720 691.65 715.193 702.863 707.291 711.355C715.193 719.848 720 731.061 720 743.355C720 757.928 713.248 770.981 702.592 779.784C703.509 783.49 704 787.366 704 791.355C704 817.865 682.51 839.355 656 839.355C647.238 839.355 639.025 837.006 631.954 832.905C623.055 848.795 607.636 859.302 590.104 859.302C585.932 859.302 581.88 858.706 578.007 857.585C568.933 868.508 556.201 875.302 542.104 875.302C529.925 875.302 518.765 870.232 510.103 861.81C501.44 870.231 490.282 875.302 478.104 875.302C465.925 875.302 454.765 870.232 446.103 861.81C437.44 870.231 426.282 875.302 414.104 875.302C397.731 875.302 383.202 866.14 374.104 851.988C365.005 866.14 350.476 875.302 334.104 875.302C321.925 875.302 310.766 870.231 302.104 861.81C293.441 870.231 282.282 875.302 270.104 875.302C253.339 875.302 238.506 865.696 229.459 850.963C227.733 850.79 226.015 850.59 224.306 850.365C215.831 860.819 203.809 867.347 190.474 867.347C176.925 867.347 164.732 860.609 156.237 849.861C150.3 853.351 143.385 855.355 136 855.355C113.909 855.355 96 837.447 96 815.355C96 805.188 99.7951 795.908 106.044 788.851C90.8347 783.187 80 768.538 80 751.355C80 746.299 80.9404 741.462 82.6523 737.009C71.9074 733.639 64 722.238 64 708.688C64 706.603 64.1879 704.569 64.5439 702.607C64.1855 700.242 64 697.821 64 695.355C64 680.039 71.1742 666.397 82.3457 657.608C95.6443 579.124 163.953 519.355 246.223 519.355H536.531Z" fill="white"/>
<path d="M536.531 519.355L536.531 495.355H536.531V519.355ZM695.925 638.275L672.914 645.094C674.65 650.954 678.557 655.931 683.838 659.01L695.925 638.275ZM720 679.355H744V679.355L720 679.355ZM707.291 711.355L689.721 695.007C681.148 704.22 681.148 718.491 689.721 727.704L707.291 711.355ZM720 743.355H744V743.355L720 743.355ZM702.592 779.784L687.306 761.281C680.192 767.158 677.078 776.594 679.295 785.551L702.592 779.784ZM704 791.355H728V791.355H704ZM656 839.355V863.355V863.355V839.355ZM631.954 832.905L643.995 812.144C638.435 808.919 631.813 808.06 625.614 809.758C619.415 811.456 614.155 815.57 611.015 821.178L631.954 832.905ZM590.104 859.302V883.302H590.104L590.104 859.302ZM578.007 857.585L584.677 834.531C575.511 831.878 565.644 834.909 559.546 842.248L578.007 857.585ZM542.104 875.302V899.302H542.104L542.104 875.302ZM510.103 861.81L526.832 844.602C517.518 835.546 502.688 835.546 493.373 844.601L510.103 861.81ZM478.104 875.302V899.302V899.302V875.302ZM446.103 861.81L462.832 844.602C453.518 835.546 438.688 835.546 429.373 844.601L446.103 861.81ZM414.104 875.302V899.302V899.302V875.302ZM374.104 851.988L394.291 839.009C389.875 832.14 382.269 827.988 374.104 827.988C365.938 827.988 358.332 832.14 353.916 839.009L374.104 851.988ZM334.104 875.302V899.302V899.302V875.302ZM302.104 861.81L318.833 844.601C309.518 835.546 294.689 835.546 285.374 844.601L302.104 861.81ZM270.104 875.302V899.302V899.302V875.302ZM229.459 850.963L249.91 838.403C245.988 832.017 239.308 827.829 231.85 827.082L229.459 850.963ZM224.306 850.365L227.44 826.571C219.165 825.481 210.919 828.768 205.663 835.251L224.306 850.365ZM190.474 867.347V891.347H190.474L190.474 867.347ZM156.237 849.861L175.066 834.979C167.635 825.578 154.408 823.098 144.076 829.171L156.237 849.861ZM136 855.355V879.355V879.355V855.355ZM96 815.355H72V815.355H96ZM106.044 788.851L124.012 804.761C129.257 798.837 131.246 790.71 129.328 783.034C127.411 775.358 121.833 769.12 114.419 766.359L106.044 788.851ZM80 751.355H56V751.355L80 751.355ZM82.6523 737.009L105.054 745.62C107.432 739.433 107.146 732.538 104.263 726.57C101.38 720.602 96.1578 716.092 89.8335 714.108L82.6523 737.009ZM64 708.688L40 708.688V708.688H64ZM64.5439 702.607L88.1583 706.892C88.6306 704.29 88.6694 701.627 88.273 699.011L64.5439 702.607ZM64 695.355H40V695.355H64ZM82.3457 657.608L97.1849 676.471C101.868 672.787 105.013 667.493 106.008 661.618L82.3457 657.608ZM536.531 519.355L536.531 543.355C600.982 543.356 655.477 586.246 672.914 645.094L695.925 638.275L718.936 631.457C695.625 552.788 622.817 495.356 536.531 495.355L536.531 519.355ZM695.925 638.275L683.838 659.01C691.471 663.459 696 671.126 696 679.356L720 679.355L744 679.355C744 652.75 729.24 629.916 708.012 617.541L695.925 638.275ZM720 679.355H696C696 685.231 693.737 690.69 689.721 695.007L707.291 711.355L724.862 727.704C736.649 715.036 744 698.069 744 679.355H720ZM707.291 711.355L689.721 727.704C693.737 732.021 696 737.48 696 743.356L720 743.355L744 743.355C744 724.642 736.649 707.675 724.861 695.007L707.291 711.355ZM720 743.355H696C696 750.28 692.832 756.716 687.306 761.281L702.592 779.784L717.877 798.287C733.664 785.246 744 765.576 744 743.355H720ZM702.592 779.784L679.295 785.551C679.753 787.402 680 789.341 680 791.355H704H728C728 785.39 727.265 779.579 725.889 774.017L702.592 779.784ZM704 791.355H680C680 804.61 669.255 815.355 656 815.355V839.355V863.355C695.764 863.355 728 831.12 728 791.355H704ZM656 839.355V815.355C651.583 815.355 647.509 814.182 643.995 812.144L631.954 832.905L619.913 853.666C630.541 859.83 642.893 863.355 656 863.355V839.355ZM631.954 832.905L611.015 821.178C605.566 830.906 597.438 835.302 590.103 835.302L590.104 859.302L590.104 883.302C617.834 883.302 640.544 866.683 652.894 844.633L631.954 832.905ZM590.104 859.302V835.302C588.235 835.302 586.427 835.037 584.677 834.531L578.007 857.585L571.336 880.639C577.333 882.374 583.629 883.302 590.104 883.302V859.302ZM578.007 857.585L559.546 842.248C554.38 848.468 548.104 851.302 542.103 851.302L542.104 875.302L542.104 899.302C564.298 899.302 583.486 888.547 596.467 872.921L578.007 857.585ZM542.104 875.302V851.302C536.863 851.302 531.536 849.174 526.832 844.602L510.103 861.81L493.373 879.017C505.995 891.289 522.986 899.302 542.104 899.302V875.302ZM510.103 861.81L493.373 844.601C488.669 849.175 483.342 851.302 478.104 851.302V875.302V899.302C497.222 899.302 514.212 891.287 526.832 879.018L510.103 861.81ZM478.104 875.302V851.302C472.863 851.302 467.536 849.174 462.832 844.602L446.103 861.81L429.373 879.017C441.995 891.289 458.986 899.302 478.104 899.302V875.302ZM446.103 861.81L429.373 844.601C424.669 849.175 419.342 851.302 414.104 851.302V875.302V899.302C433.222 899.302 450.212 891.287 462.832 879.018L446.103 861.81ZM414.104 875.302V851.302C407.215 851.302 399.737 847.479 394.291 839.009L374.104 851.988L353.916 864.967C366.667 884.8 388.248 899.302 414.104 899.302V875.302ZM374.104 851.988L353.916 839.009C348.47 847.479 340.992 851.302 334.104 851.302V875.302V899.302C359.959 899.302 381.54 884.8 394.291 864.967L374.104 851.988ZM334.104 875.302V851.302C328.864 851.302 323.537 849.175 318.833 844.601L302.104 861.81L285.374 879.018C297.995 891.288 314.986 899.302 334.104 899.302V875.302ZM302.104 861.81L285.374 844.601C280.67 849.175 275.343 851.302 270.104 851.302V875.302V899.302C289.221 899.302 306.212 891.288 318.833 879.018L302.104 861.81ZM270.104 875.302V851.302C263.064 851.302 255.368 847.29 249.91 838.403L229.459 850.963L209.008 863.522C221.645 884.101 243.615 899.302 270.104 899.302V875.302ZM229.459 850.963L231.85 827.082C230.377 826.935 228.907 826.764 227.44 826.571L224.306 850.365L221.172 874.16C223.124 874.417 225.09 874.645 227.067 874.843L229.459 850.963ZM224.306 850.365L205.663 835.251C201.078 840.906 195.577 843.347 190.473 843.347L190.474 867.347L190.474 891.347C212.041 891.346 230.583 880.732 242.949 865.48L224.306 850.365ZM190.474 867.347V843.347C185.295 843.347 179.689 840.828 175.066 834.979L156.237 849.861L137.409 864.743C149.775 880.39 168.554 891.347 190.474 891.347V867.347ZM156.237 849.861L144.076 829.171C141.717 830.557 138.985 831.355 136 831.355V855.355V879.355C147.785 879.355 158.883 876.145 168.398 870.552L156.237 849.861ZM136 855.355V831.355C127.163 831.355 120 824.192 120 815.355H96H72C72 850.702 100.654 879.355 136 879.355V855.355ZM96 815.355H120C120 811.276 121.497 807.601 124.012 804.761L106.044 788.851L88.0755 772.94C78.0927 784.215 72 799.1 72 815.355H96ZM106.044 788.851L114.419 766.359C108.296 764.079 104 758.188 104 751.355L80 751.355L56 751.355C56 778.888 73.3738 802.295 97.669 811.342L106.044 788.851ZM80 751.355H104C104 749.297 104.379 747.376 105.054 745.62L82.6523 737.009L60.2503 728.398C57.5016 735.549 56 743.301 56 751.355H80ZM82.6523 737.009L89.8335 714.108C90.2853 714.25 89.8961 714.296 89.2478 713.326C88.6211 712.389 88 710.811 88 708.688H64H40C40 730.924 53.0984 752.894 75.4712 759.909L82.6523 737.009ZM64 708.688L88 708.689C88 708.047 88.0578 707.446 88.1583 706.892L64.5439 702.607L40.9296 698.322C40.3181 701.692 40 705.16 40 708.688L64 708.688ZM64.5439 702.607L88.273 699.011C88.0946 697.834 88 696.615 88 695.355H64H40C40 699.026 40.2764 702.65 40.8149 706.203L64.5439 702.607ZM64 695.355H88C88 687.709 91.5487 680.905 97.1849 676.471L82.3457 657.608L67.5065 638.746C50.7996 651.889 40 672.368 40 695.355H64ZM82.3457 657.608L106.008 661.618C117.384 594.483 175.856 543.355 246.223 543.355V519.355V495.355C152.05 495.355 73.9046 563.765 58.683 653.599L82.3457 657.608ZM246.223 519.355V543.355H536.531V519.355V495.355H246.223V519.355Z" fill="#1A1A1A" mask="url(#path-1-inside-1_1_9737)"/>
<ellipse cx="304" cy="696.976" rx="19.1398" ry="17.6203" fill="#1A1A1A"/>
<ellipse cx="464" cy="696.976" rx="19.1398" ry="17.6203" fill="#1A1A1A"/>
<path d="M348.86 721.422C370.349 742.716 404.718 743.55 427.214 723.323L429.329 721.422" stroke="#1A1A1A" stroke-width="24" stroke-linecap="round"/>
<path d="M379.958 311.355C542.322 311.355 669.389 431.839 729.682 502.096C755.402 532.066 760.624 573.307 748.012 610.732L739.285 636.628C728.254 669.363 693.245 687.363 660.882 675.282C569.713 641.249 473.884 596.467 382.407 596.467C301.538 596.467 201.109 644.206 111.232 677.097C80.2439 688.438 46.8621 671.868 34.8975 641.115L23.3369 611.401C8.65478 573.663 12.5345 531.104 38.4208 499.965C97.0573 429.433 219.223 311.355 379.958 311.355Z" fill="#FC9E24"/>
<mask id="mask0_1_9737" style="mask-type:alpha" maskUnits="userSpaceOnUse" x="14" y="311" width="741" height="370">
<path d="M379.958 311.355C542.322 311.355 669.389 431.839 729.682 502.096C755.402 532.066 760.624 573.307 748.012 610.732L739.285 636.628C728.254 669.363 693.246 687.36 660.9 675.235C569.219 640.868 472.033 595.112 380.496 595.112C299.659 595.112 200.577 643.738 111.182 676.95C80.2496 688.442 46.8621 671.868 34.8975 641.115L23.3369 611.401C8.65478 573.663 12.5345 531.104 38.4208 499.965C97.0573 429.433 219.223 311.355 379.958 311.355Z" fill="#FC9E24"/>
</mask>
<g mask="url(#mask0_1_9737)">
<path d="M32 439.355C43.7741 442.487 66.6946 457.551 88.3139 473.29C114.1 492.062 130.864 520.942 137.619 553.82L158.211 654.056" stroke="#FFC470" stroke-width="24"/>
<path d="M624 391.355C629.639 405.327 636.412 436.245 642.383 467.906C651.174 514.518 645.717 562.903 629.456 602.511L599.591 675.253" stroke="#FFC470" stroke-width="25.6"/>
<path d="M144 343.355C158.21 348.804 192.378 378.233 220.959 405.001C244.225 426.792 257.684 457.566 260.808 491.357L274.884 643.587" stroke="#FFC470" stroke-width="28"/>
<path d="M512 311.355C517.995 329.075 528.827 378.764 537.192 425.395C546.017 474.585 536.375 523.725 515.055 560.7L458.456 658.856" stroke="#FFC470" stroke-width="28"/>
<path d="M320 247.355C327.356 262.015 356.514 320.338 380.785 368.897C403.031 413.403 410.641 466.155 401.454 512.092L368 679.362" stroke="#FFC470" stroke-width="28.8"/>
</g>
<path d="M379.958 323.355C536.65 323.356 660.605 440.031 720.575 509.911C743.119 536.18 748.121 572.833 736.641 606.899L727.913 632.796C718.94 659.422 690.607 673.849 664.169 665.194C573.128 635.391 473.69 601.069 379.958 601.069C337.996 601.069 291.968 610.472 245.756 623.25C199.561 636.024 152.155 652.483 107.912 666.833C82.7973 674.979 55.826 661.812 46.0811 636.765L34.5205 607.05C21.1507 572.685 24.9951 534.886 47.6484 507.637C105.901 437.566 224.956 323.355 379.958 323.355Z" stroke="#1A1A1A" stroke-width="24"/>
<path d="M486.559 340.415C485.98 342.41 485.179 344.289 484.231 346.034C479.449 354.834 465.952 361.714 455.618 361.931C424.957 362.573 406.57 320.755 430.77 302.946C431.536 302.382 432.27 301.915 432.949 301.542C437.294 299.782 441.318 298.685 445.022 298.11C467.831 294.566 492.812 318.883 486.559 340.415Z" fill="#FF5C16" stroke="#1A1A1A" stroke-width="19.2" stroke-linecap="round" stroke-linejoin="round"/>
<path d="M331.362 388.055C329.575 386.667 328.017 385.108 326.669 383.46C319.684 374.915 319.144 358.851 324.283 349.198C338.037 323.366 381.527 326.3 389.042 354.786C389.427 356.245 389.636 357.565 389.702 358.685C389.383 363.728 388.48 368.055 387.172 371.757C379.833 392.535 348.909 401.681 331.362 388.055Z" fill="#FF5C16" stroke="#1A1A1A" stroke-width="19.2" stroke-linecap="round" stroke-linejoin="round"/>
<path d="M395.998 388.008C394.211 386.62 392.653 385.061 391.305 383.413C384.32 374.869 383.78 358.804 388.919 349.152C402.673 323.32 446.163 326.253 453.678 354.739C454.062 356.198 454.271 357.518 454.338 358.638C454.019 363.681 453.115 368.009 451.808 371.71C444.469 392.488 413.544 401.634 395.998 388.008Z" fill="#FF5C16" stroke="#1A1A1A" stroke-width="19.2" stroke-linecap="round" stroke-linejoin="round"/>
<path d="M358.97 340.229C356.383 339.057 354.111 337.628 352.126 336.039C340.914 327.061 339.688 306.655 348.395 295.409C366.105 272.536 405.926 274.049 418.964 300.161C420.523 303.283 421.242 306.096 421.384 308.204C420.888 314.866 419.222 320.28 416.862 324.65C406.655 343.552 378.695 349.167 358.97 340.229Z" fill="#FF5C16" stroke="#1A1A1A" stroke-width="19.2" stroke-linecap="round" stroke-linejoin="round"/>
<path d="M287.089 362.091C285.302 360.703 283.744 359.144 282.396 357.495C275.411 348.951 274.871 332.887 280.01 323.234C293.764 297.402 337.254 300.335 344.769 328.822C345.154 330.281 345.363 331.6 345.429 332.721C345.11 337.763 344.207 342.091 342.899 345.792C335.561 366.57 304.636 375.716 287.089 362.091Z" fill="#FF5C16" stroke="#1A1A1A" stroke-width="19.2" stroke-linecap="round" stroke-linejoin="round"/>
</svg>
