<svg width="768" height="880" viewBox="0 0 768 880" fill="none" xmlns="http://www.w3.org/2000/svg">
<path d="M376.715 348H360.202C220.915 348.001 108 460.915 108 600.203C108 747.063 227.054 866.118 373.915 866.118H572.903C589.449 866.118 601.199 866.11 610.421 865.42C619.52 864.74 625.189 863.446 629.71 861.369C641.002 856.18 650.063 847.12 655.251 835.829C657.328 831.308 658.622 825.638 659.303 816.539C659.992 807.317 660 795.567 660 779.021V631.286C660 622.701 659.999 618.631 659.913 615.221C656.239 469.237 538.764 351.762 392.779 348.087C389.369 348.002 385.299 348 376.715 348Z" fill="#80CAFF" stroke="#1A1A1A" stroke-width="24"/>
<circle cx="16" cy="16" r="16" transform="matrix(-1 0 0 1 464 576)" fill="#1A1A1A"/>
<circle cx="16" cy="16" r="16" transform="matrix(-1 0 0 1 336 576)" fill="#1A1A1A"/>
<path d="M432 640.932C418.142 685.876 354.401 685.463 339.268 640.932" stroke="#1A1A1A" stroke-width="24" stroke-linecap="round"/>
</svg>
