<svg width="768" height="880" viewBox="0 0 768 880" fill="none" xmlns="http://www.w3.org/2000/svg">
<path d="M397.331 313.385C497.882 313.385 587.239 375.847 652.043 478.657C715.12 578.728 753.944 715.758 755.919 865.384H12.0947C14.3984 716.131 59.5247 579.226 128.996 479.099C200.44 376.129 296.529 313.385 397.331 313.385Z" fill="#F24822" stroke="#1A1A1A" stroke-width="24" stroke-linejoin="round"/>
<path d="M402.302 452.22C478.649 452.22 546.772 498.897 596.378 576.378C644.247 651.145 673.955 753.447 675.942 865.384H108.126C110.443 753.822 144.918 651.646 197.651 576.82C252.374 499.171 325.708 452.22 402.302 452.22Z" fill="#FFD966" stroke="#1A1A1A" stroke-width="24" stroke-linejoin="round"/>
<path d="M400.392 599.448C455.433 599.448 504.453 629.875 540.176 680.388C574.048 728.285 595.395 793.627 597.546 865.385H188.212C190.717 794.033 215.398 728.815 252.751 680.831C292.24 630.103 345.133 599.448 400.392 599.448Z" fill="#92DA40" stroke="#1A1A1A" stroke-width="24" stroke-linejoin="round"/>
<circle cx="307.26" cy="736.645" r="19.2602" fill="#1A1A1A"/>
<circle cx="467.26" cy="736.645" r="19.2602" fill="#1A1A1A"/>
<path d="M352 771.921C373.117 794.651 408.813 795.518 431.009 773.84L432.974 771.921" stroke="#1A1A1A" stroke-width="24" stroke-linecap="round"/>
</svg>
