<svg width="768" height="880" viewBox="0 0 768 880" fill="none" xmlns="http://www.w3.org/2000/svg">
<path d="M250.658 306.659C279.851 285.501 316.09 273.51 357.744 286.586C430.88 309.544 478.449 364.107 500.582 400.609L197.468 364.531C209.412 345.519 227.618 323.358 250.658 306.659Z" fill="#9747FF" stroke="#1A1A1A" stroke-width="24" stroke-linejoin="round"/>
<path d="M323.737 865.028C313.616 867.75 301.886 866.974 288.105 859.507C258.146 843.276 233.33 815.582 214.381 786.761C201.91 767.791 192.246 748.736 185.506 732.942L388.473 784.586C381.129 804.756 369.146 828.502 353.508 845.309C344.186 855.327 334.182 862.219 323.737 865.028Z" fill="#9747FF" stroke="#1A1A1A" stroke-width="24" stroke-linejoin="round"/>
<path d="M579.615 787.228C576.102 793.724 569.576 799.413 556.658 801.621C527.999 806.52 494.378 800.146 463.264 789.493C443.261 782.644 424.797 774.199 410.082 766.422L562.395 691.738C572.022 711.093 581.371 736.016 583.519 757.578C584.778 770.212 583.413 780.203 579.615 787.228Z" fill="#9747FF" stroke="#1A1A1A" stroke-width="24" stroke-linejoin="round"/>
<mask id="path-4-inside-1_1_9730" fill="white">
<path fill-rule="evenodd" clip-rule="evenodd" d="M307.817 334.672C437.279 334.677 529.89 410.617 629.483 494.477L661.214 462.669C674.146 449.704 691.742 440.142 709.064 446.078C737.021 455.658 767.999 485.682 767.999 559.56C767.999 624.055 747.144 661.723 725.415 681.82C707.148 698.716 680.393 691.071 661.753 674.588L625.901 642.885C533.147 746.008 431.078 808.215 287.966 808.215C175.474 808.215 0.000169291 765.496 0 571.444C0 377.391 149.006 334.665 307.817 334.672Z"/>
</mask>
<path fill-rule="evenodd" clip-rule="evenodd" d="M307.817 334.672C437.279 334.677 529.89 410.617 629.483 494.477L661.214 462.669C674.146 449.704 691.742 440.142 709.064 446.078C737.021 455.658 767.999 485.682 767.999 559.56C767.999 624.055 747.144 661.723 725.415 681.82C707.148 698.716 680.393 691.071 661.753 674.588L625.901 642.885C533.147 746.008 431.078 808.215 287.966 808.215C175.474 808.215 0.000169291 765.496 0 571.444C0 377.391 149.006 334.665 307.817 334.672Z" fill="#D9B8FF"/>
<path d="M307.817 334.672L307.818 310.672V310.672L307.817 334.672ZM629.483 494.477L614.025 512.836C623.565 520.869 637.667 520.256 646.475 511.427L629.483 494.477ZM661.214 462.669L678.205 479.618L678.206 479.618L661.214 462.669ZM709.064 446.078L716.845 423.374V423.374L709.064 446.078ZM767.999 559.56H791.999V559.56L767.999 559.56ZM725.415 681.82L741.711 699.439V699.439L725.415 681.82ZM661.753 674.588L645.855 692.567L645.855 692.567L661.753 674.588ZM625.901 642.885L641.8 624.906C631.929 616.179 616.869 617.04 608.057 626.836L625.901 642.885ZM287.966 808.215V832.215V832.215V808.215ZM0 571.444H-24V571.444L0 571.444ZM307.817 334.672L307.816 358.672C427.25 358.676 513.418 428.122 614.025 512.836L629.483 494.477L644.942 476.119C546.362 393.111 447.307 310.677 307.818 310.672L307.817 334.672ZM629.483 494.477L646.475 511.427L678.205 479.618L661.214 462.669L644.222 445.719L612.492 477.528L629.483 494.477ZM661.214 462.669L678.206 479.618C683.085 474.727 688.067 471.303 692.399 469.572C696.461 467.948 699.177 468.06 701.284 468.782L709.064 446.078L716.845 423.374C686.1 412.838 659.109 430.795 644.222 445.719L661.214 462.669ZM709.064 446.078L701.284 468.782C710.371 471.896 720.53 478.445 728.678 491.45C736.948 504.649 743.999 525.904 743.999 559.56L767.999 559.56L791.999 559.56C791.999 519.339 783.562 488.642 769.353 465.965C755.023 443.093 735.715 429.84 716.845 423.374L709.064 446.078ZM767.999 559.56H743.999C743.999 618.62 725.085 649.433 709.119 664.201L725.415 681.82L741.711 699.439C769.202 674.012 791.999 629.491 791.999 559.56H767.999ZM725.415 681.82L709.119 664.201C706.334 666.777 702.939 667.914 697.621 667.039C691.692 666.064 684.357 662.538 677.651 656.608L661.753 674.588L645.855 692.567C657.789 703.12 673.152 711.659 689.827 714.402C707.114 717.247 726.229 713.759 741.711 699.439L725.415 681.82ZM661.753 674.588L677.651 656.609L641.8 624.906L625.901 642.885L610.003 660.865L645.855 692.567L661.753 674.588ZM625.901 642.885L608.057 626.836C518.405 726.509 422.37 784.215 287.966 784.215V808.215V832.215C439.786 832.215 547.889 765.507 643.745 658.935L625.901 642.885ZM287.966 808.215V784.215C234.017 784.215 166.936 773.855 114.193 742.047C63.0545 711.207 24.0001 659.59 24 571.444L0 571.444L-24 571.444C-23.9999 677.35 24.6828 744.119 89.4043 783.151C152.521 821.215 229.423 832.215 287.966 832.215V808.215ZM0 571.444H24C24 481.764 57.7258 430.832 106.88 400.758C158.206 369.355 229.667 358.668 307.816 358.672L307.817 334.672L307.818 310.672C227.157 310.668 144.708 321.342 81.8288 359.814C16.777 399.614 -24 467.071 -24 571.444H0Z" fill="#1A1A1A" mask="url(#path-4-inside-1_1_9730)"/>
<ellipse cx="77.8223" cy="559.927" rx="16" ry="18.2272" fill="#1A1A1A"/>
<ellipse cx="205.821" cy="559.927" rx="16" ry="18.2272" fill="#1A1A1A"/>
<path d="M109.821 593.595C126.636 614.214 157.883 614.964 175.668 595.176L177.089 593.595" stroke="#1A1A1A" stroke-width="24" stroke-linecap="round"/>
<mask id="path-9-inside-2_1_9730" fill="white">
<path fill-rule="evenodd" clip-rule="evenodd" d="M307.817 334.672C437.279 334.677 529.89 410.617 629.483 494.477L661.214 462.669C674.146 449.704 691.742 440.142 709.064 446.078C737.021 455.658 767.999 485.682 767.999 559.56C767.999 624.055 747.144 661.723 725.415 681.82C707.148 698.716 680.393 691.071 661.753 674.588L625.901 642.885C533.147 746.008 431.078 808.215 287.966 808.215C175.474 808.215 0.000166242 765.496 0 571.444C0 377.391 149.006 334.665 307.817 334.672Z"/>
</mask>
<path d="M307.817 334.672L307.818 310.672V310.672L307.817 334.672ZM629.483 494.477L614.025 512.836C623.565 520.869 637.667 520.256 646.475 511.427L629.483 494.477ZM661.214 462.669L678.205 479.618L678.206 479.618L661.214 462.669ZM709.064 446.078L716.845 423.374V423.374L709.064 446.078ZM767.999 559.56H791.999V559.56L767.999 559.56ZM725.415 681.82L741.711 699.439V699.439L725.415 681.82ZM661.753 674.588L645.855 692.567L645.855 692.567L661.753 674.588ZM625.901 642.885L641.8 624.906C631.929 616.179 616.869 617.04 608.057 626.836L625.901 642.885ZM287.966 808.215V832.215V832.215V808.215ZM0 571.444H-24V571.444L0 571.444ZM307.817 334.672L307.816 358.672C427.25 358.676 513.418 428.122 614.025 512.836L629.483 494.477L644.942 476.119C546.362 393.111 447.307 310.677 307.818 310.672L307.817 334.672ZM629.483 494.477L646.475 511.427L678.205 479.618L661.214 462.669L644.222 445.719L612.492 477.528L629.483 494.477ZM661.214 462.669L678.206 479.618C683.085 474.727 688.067 471.303 692.399 469.572C696.461 467.948 699.177 468.06 701.284 468.782L709.064 446.078L716.845 423.374C686.1 412.838 659.109 430.795 644.222 445.719L661.214 462.669ZM709.064 446.078L701.284 468.782C710.371 471.896 720.53 478.445 728.678 491.45C736.948 504.649 743.999 525.904 743.999 559.56L767.999 559.56L791.999 559.56C791.999 519.339 783.562 488.642 769.353 465.965C755.023 443.093 735.715 429.84 716.845 423.374L709.064 446.078ZM767.999 559.56H743.999C743.999 618.62 725.085 649.433 709.119 664.201L725.415 681.82L741.711 699.439C769.202 674.012 791.999 629.491 791.999 559.56H767.999ZM725.415 681.82L709.119 664.201C706.334 666.777 702.939 667.914 697.621 667.039C691.692 666.064 684.357 662.538 677.651 656.608L661.753 674.588L645.855 692.567C657.789 703.12 673.152 711.659 689.827 714.402C707.114 717.247 726.229 713.759 741.711 699.439L725.415 681.82ZM661.753 674.588L677.651 656.609L641.8 624.906L625.901 642.885L610.003 660.865L645.855 692.567L661.753 674.588ZM625.901 642.885L608.057 626.836C518.405 726.509 422.37 784.215 287.966 784.215V808.215V832.215C439.786 832.215 547.889 765.507 643.745 658.935L625.901 642.885ZM287.966 808.215V784.215C234.017 784.215 166.936 773.855 114.193 742.047C63.0545 711.207 24.0001 659.59 24 571.444L0 571.444L-24 571.444C-23.9999 677.35 24.6828 744.119 89.4043 783.151C152.521 821.215 229.423 832.215 287.966 832.215V808.215ZM0 571.444H24C24 481.764 57.7258 430.832 106.88 400.758C158.206 369.355 229.667 358.668 307.816 358.672L307.817 334.672L307.818 310.672C227.157 310.668 144.708 321.342 81.8288 359.814C16.777 399.614 -24 467.071 -24 571.444H0Z" fill="#1A1A1A" mask="url(#path-9-inside-2_1_9730)"/>
<path d="M307.605 560.188L325.042 542.708C337.974 529.743 356.957 519.468 371.541 530.543C382.986 539.234 392.787 556.183 392.787 587.008C392.787 611.077 387.508 628.356 380.38 640.433C367.733 661.862 339.669 655.02 321.029 638.537L310.996 629.666" stroke="black" stroke-width="24" stroke-linecap="round"/>
<path d="M416 448C432 462.815 464 508.398 464 572.213C464 636.028 432 681.611 416 696.426" stroke="#9747FF" stroke-width="32" stroke-linecap="round"/>
<path d="M513.963 480C523.975 490.998 544 524.838 544 572.213C544 619.588 523.975 653.428 513.963 664.426" stroke="#9747FF" stroke-width="32" stroke-linecap="round"/>
</svg>
