<svg width="768" height="880" viewBox="0 0 768 880" fill="none" xmlns="http://www.w3.org/2000/svg">
<path d="M455.951 835.455C456.175 837.72 463.001 861.122 458.837 862.322C602.309 862.322 586.468 858.484 653.829 846.625L651.604 678.093C651.604 666.844 664.447 661.784 672.855 654.932C692.894 638.603 705.181 616.721 719.557 595.772C735.988 571.828 741.333 553.914 741.333 525.231C741.333 416.508 616.326 346.924 527.052 329.885C476.333 320.204 422.611 324.061 371.206 324.061L221.044 345.956C247.823 343.849 274.735 344.213 300.76 349.075C343.696 357.097 389.715 358.375 431.813 369.854C497.699 387.819 533.349 459.475 533.349 523.643C533.349 541.16 528.922 556.548 516.82 569.435C507.734 579.111 500.51 588.135 489.534 595.772C481.171 601.591 455.059 613.238 453.589 623.433C448.629 657.841 453.065 696.099 453.065 731.297V785.692C453.065 802.335 454.31 818.907 455.951 835.455Z" fill="#A55E40"/>
<path d="M78.7973 609.399C84.2133 613.041 89.4232 618.733 89.4232 625.148C89.4232 661.61 88.6912 698.719 85.2253 734.997C82.3405 765.193 86.4283 795.478 87.0619 825.523C87.1429 829.363 84.1305 860.431 88.3738 861.655C92.1264 862.736 99.7725 859.405 104.116 859.405H141.634C186.787 859.405 232.167 857.022 277.016 857.022H444.669C448.827 857.022 454.738 858.071 458.837 856.89C463.001 855.69 456.175 832.288 455.951 830.023C454.31 813.475 453.065 796.904 453.065 780.26V725.865C453.065 690.667 448.629 652.409 453.589 618.001C455.059 607.806 481.171 596.159 489.534 590.34C500.51 582.703 507.734 573.679 516.82 564.003C528.922 551.116 533.349 535.728 533.349 518.211C533.349 454.043 497.699 382.387 431.813 364.422C389.715 352.943 343.696 351.665 300.76 343.643C274.735 338.781 247.823 338.417 221.044 340.524L146.095 351.452C104.082 359.603 72.478 378.279 51.6369 406.773C6.20149 468.892 -6.61617 551.954 78.7973 609.399Z" fill="#F8E9E2"/>
<circle cx="188.74" cy="512.043" r="12.7398" fill="#1A1A1A"/>
<circle cx="300.74" cy="512.043" r="12.7398" fill="#1A1A1A"/>
<path d="M192 567.876C227.86 593.991 276.167 595.09 313.179 570.635L317.354 567.876" stroke="#1A1A1A" stroke-width="24" stroke-linecap="round"/>
<path d="M458.837 862.322C454.738 863.503 448.827 862.454 444.669 862.454H277.016C232.167 862.454 186.787 864.837 141.634 864.837H104.116C99.7725 864.837 92.1264 868.168 88.3738 867.087C84.1305 865.863 87.1429 834.795 87.0619 830.955L89.4232 630.58C89.4232 624.165 84.2133 618.473 78.7973 614.831C-6.61617 557.386 6.20149 474.324 51.6369 412.205C72.478 383.711 104.082 365.035 146.095 356.884M458.837 862.322C463.001 861.122 456.175 837.72 455.951 835.455C454.31 818.907 453.065 802.335 453.065 785.692V731.297C453.065 696.099 448.629 657.841 453.589 623.433C455.059 613.238 481.171 601.591 489.534 595.772C500.51 588.135 507.734 579.111 516.82 569.435C528.922 556.548 533.349 541.16 533.349 523.643C533.349 459.475 497.699 387.819 431.813 369.854C389.715 358.375 343.696 357.097 300.76 349.075C274.735 344.213 247.823 343.849 221.044 345.956M458.837 862.322C602.309 862.322 586.467 858.484 653.829 846.625L651.604 678.093C651.604 666.844 664.447 661.784 672.855 654.932C692.894 638.603 705.181 616.721 719.557 595.772C735.988 571.828 741.333 553.914 741.333 525.231C741.333 416.508 616.326 346.924 527.052 329.885C488.437 322.514 448.081 322.991 408.332 323.639C383.615 324.041 358.927 325.852 334.465 329.418L221.044 345.956M146.095 356.884L221.044 345.956M146.095 356.884C170.38 352.172 195.652 347.953 221.044 345.956" stroke="#1A1A1A" stroke-width="24" stroke-linecap="round" stroke-linejoin="round"/>
</svg>
