<svg width="768" height="880" viewBox="0 0 768 880" fill="none" xmlns="http://www.w3.org/2000/svg">
<path d="M540.686 849.092C600.27 849.092 570.478 732.406 585.374 685.236C625.096 657.926 749.23 591.391 749.23 543.724C749.23 496.057 588.495 484.14 523.945 476.692C481.74 404.694 424.497 308.58 376.83 308.58C329.163 308.58 279.574 407.177 244.817 476.692C185.233 496.553 26.7739 510.953 26.7739 558.62C26.7739 606.287 140.977 657.926 198.078 677.788C195.595 729.924 123.598 863.988 198.078 863.988C251.704 863.988 349.521 784.542 376.83 744.82C411.587 777.094 481.102 849.092 540.686 849.092Z" fill="#FFD966" stroke="#1A1A1A" stroke-width="22.344" stroke-linecap="round" stroke-linejoin="round"/>
<circle cx="297.824" cy="534.946" r="17.8192" fill="#1A1A1A"/>
<circle cx="446.785" cy="534.945" r="17.8192" fill="#1A1A1A"/>
<path d="M339.588 568.14C359.125 589.17 392.151 589.972 412.686 569.916L414.504 568.14" stroke="#1A1A1A" stroke-width="22.344" stroke-linecap="round"/>
</svg>
