<svg width="768" height="880" viewBox="0 0 768 880" fill="none" xmlns="http://www.w3.org/2000/svg">
<path d="M384.951 492C480.745 492 566.879 513.866 628.643 548.608C690.782 583.562 725.902 629.972 725.902 678.535C725.902 727.098 690.782 773.508 628.643 808.462C566.879 843.204 480.745 865.07 384.951 865.07C289.157 865.07 203.023 843.204 141.26 808.462C79.1203 773.508 44 727.098 44 678.535C44 629.972 79.1203 583.562 141.26 548.608C203.023 513.866 289.157 492 384.951 492Z" fill="#FFE8A3" stroke="#1A1A1A" stroke-width="24"/>
<path d="M384.951 412C480.745 412 566.879 433.866 628.643 468.608C690.782 503.562 725.902 549.972 725.902 598.535C725.902 647.098 690.782 693.508 628.643 728.462C566.879 763.204 480.745 785.07 384.951 785.07C289.157 785.07 203.023 763.204 141.26 728.462C79.1203 693.508 44 647.098 44 598.535C44 549.972 79.1203 503.562 141.26 468.608C203.023 433.866 289.157 412 384.951 412Z" fill="#FFE8A3" stroke="#1A1A1A" stroke-width="24"/>
<path d="M384.951 316C480.745 316 566.879 337.866 628.643 372.608C690.782 407.562 725.902 453.972 725.902 502.535C725.902 551.098 690.782 597.508 628.643 632.462C566.879 667.204 480.745 689.07 384.951 689.07C289.157 689.07 203.023 667.204 141.26 632.462C79.1203 597.508 44 551.098 44 502.535C44 453.972 79.1203 407.562 141.26 372.608C203.023 337.866 289.157 316 384.951 316Z" fill="#FFE8A3" stroke="#1A1A1A" stroke-width="24"/>
<circle cx="227.26" cy="419.26" r="19.2602" fill="#1A1A1A"/>
<circle cx="387.26" cy="419.26" r="19.2602" fill="#1A1A1A"/>
<path d="M272 454.536C293.117 477.266 328.813 478.134 351.009 456.456L352.974 454.536" stroke="#1A1A1A" stroke-width="24" stroke-linecap="round"/>
<path d="M355.28 538.077C331.724 490.965 416.368 479.316 452.356 472.772C575.806 407.731 699.362 519.9 679.897 628.698C679.897 658.143 675.538 725.074 628.426 725.074C569.536 725.074 605.427 641.844 539.716 612.269C488.386 589.166 384.725 596.967 355.28 538.077Z" fill="#FFD966" fill-opacity="0.7"/>
<path d="M394.654 500.413L466.845 452.417C471.028 449.636 476.275 448.981 481.014 450.648L564.56 480.048C577.188 484.492 579.1 501.554 567.77 508.683L492.771 555.873C488.629 558.48 483.521 559.047 478.908 557.413L398.171 528.819C385.741 524.416 383.673 507.713 394.654 500.413Z" fill="#FFD966" stroke="#1A1A1A" stroke-width="24"/>
</svg>
