<svg width="768" height="880" viewBox="0 0 768 880" fill="none" xmlns="http://www.w3.org/2000/svg">
<path d="M50.5539 536.229L104.271 558.184V640.467L49.1919 667.513C42.268 670.913 33.9466 668.822 30.6221 661.862C24.4032 648.842 17.779 628.898 15.7713 607.554C13.0929 579.079 22.3416 557.804 30.1949 543.316C34.0917 536.127 42.9844 533.136 50.5539 536.229Z" fill="#FF99E0" stroke="#1A1A1A" stroke-width="24" stroke-linecap="round"/>
<mask id="path-2-inside-1_1_9707" fill="white">
<path fill-rule="evenodd" clip-rule="evenodd" d="M329.366 301.26C440.255 301.259 572.532 384.404 620.538 487.011L651.012 456.537C663.941 443.607 681.636 433.972 698.711 440.51C723.667 450.067 750.375 477.79 750.375 543.228C750.375 599.7 732.804 633.626 713.821 652.473C696.197 669.971 669.336 662.392 650.711 645.963L629.919 627.624C595.648 749.085 470.465 877.26 341.349 877.26C189.767 877.26 54.9019 748.318 54.9019 589.26C54.902 430.202 191.122 301.261 329.366 301.26Z"/>
</mask>
<path fill-rule="evenodd" clip-rule="evenodd" d="M329.366 301.26C440.255 301.259 572.532 384.404 620.538 487.011L651.012 456.537C663.941 443.607 681.636 433.972 698.711 440.51C723.667 450.067 750.375 477.79 750.375 543.228C750.375 599.7 732.804 633.626 713.821 652.473C696.197 669.971 669.336 662.392 650.711 645.963L629.919 627.624C595.648 749.085 470.465 877.26 341.349 877.26C189.767 877.26 54.9019 748.318 54.9019 589.26C54.902 430.202 191.122 301.261 329.366 301.26Z" fill="#FFBDF2"/>
<path d="M329.366 301.26L329.366 277.26H329.366L329.366 301.26ZM620.538 487.011L598.799 497.182C602.115 504.269 608.678 509.295 616.385 510.649C624.092 512.003 631.975 509.515 637.508 503.982L620.538 487.011ZM651.012 456.537L634.042 439.566V439.566L651.012 456.537ZM698.711 440.51L707.294 418.097L707.294 418.097L698.711 440.51ZM750.375 543.228H774.375V543.228H750.375ZM713.821 652.473L730.73 669.505L730.73 669.504L713.821 652.473ZM650.711 645.963L634.835 663.962L634.836 663.962L650.711 645.963ZM629.919 627.624L645.795 609.625C639.608 604.167 631.051 602.27 623.137 604.602C615.223 606.933 609.062 613.166 606.821 621.106L629.919 627.624ZM341.349 877.26V901.26V901.26V877.26ZM54.9019 589.26L30.9019 589.26V589.26H54.9019ZM329.366 301.26L329.366 325.26C379.214 325.26 435.599 344.124 485.668 375.918C535.722 407.703 577.173 450.958 598.799 497.182L620.538 487.011L642.276 476.841C615.897 420.457 567.206 370.836 511.399 335.397C455.605 299.968 390.407 277.26 329.366 277.26L329.366 301.26ZM620.538 487.011L637.508 503.982L667.983 473.507L651.012 456.537L634.042 439.566L603.567 470.041L620.538 487.011ZM651.012 456.537L667.983 473.507C672.876 468.614 677.843 465.225 682.074 463.564C686.001 462.023 688.381 462.254 690.129 462.923L698.711 440.51L707.294 418.097C676.291 406.226 648.703 424.905 634.042 439.566L651.012 456.537ZM698.711 440.51L690.129 462.923C697.839 465.876 706.423 471.78 713.329 483.274C720.353 494.964 726.375 513.705 726.375 543.228H750.375H774.375C774.375 507.313 767.042 479.473 754.474 458.553C741.786 437.437 724.539 424.701 707.294 418.097L698.711 440.51ZM750.375 543.228H726.375C726.375 594.496 710.575 621.875 696.911 635.442L713.821 652.473L730.73 669.504C755.032 645.376 774.375 604.904 774.375 543.228H750.375ZM713.821 652.473L696.911 635.442C694.449 637.886 691.451 639.027 686.355 638.229C680.579 637.325 673.278 633.866 666.587 627.965L650.711 645.963L634.836 663.962C646.77 674.489 662.211 683.034 678.928 685.651C696.324 688.376 715.568 684.558 730.73 669.505L713.821 652.473ZM650.711 645.963L666.587 627.965L645.795 609.625L629.919 627.624L614.043 645.622L634.835 663.962L650.711 645.963ZM629.919 627.624L606.821 621.106C591.035 677.056 553.816 735.707 505.018 780.267C456.116 824.921 398.052 853.26 341.349 853.26V877.26V901.26C413.762 901.26 482.847 865.512 537.384 815.713C592.024 765.819 634.533 699.653 653.018 634.141L629.919 627.624ZM341.349 877.26V853.26C202.785 853.26 78.9019 734.828 78.9019 589.26H54.9019H30.9019C30.9019 761.808 176.749 901.26 341.349 901.26V877.26ZM54.9019 589.26L78.9019 589.26C78.902 443.114 204.718 325.261 329.366 325.26L329.366 301.26L329.366 277.26C177.527 277.262 30.902 417.291 30.9019 589.26L54.9019 589.26Z" fill="#1A1A1A" mask="url(#path-2-inside-1_1_9707)"/>
<path d="M652.453 521.384C660.811 515.361 681.364 503.315 696.708 503.315" stroke="#CB0B96" stroke-width="24" stroke-linecap="round"/>
<path d="M652.453 583.627C660.811 590.836 681.364 605.255 696.708 605.255" stroke="#CB0B96" stroke-width="24" stroke-linecap="round"/>
<path d="M662.939 554.076L704 553.112" stroke="#CB0B96" stroke-width="24" stroke-linecap="round"/>
<path d="M66.6519 432.459C83.6558 444.66 120.297 469.845 130.829 472.975" stroke="#CB0B96" stroke-width="24" stroke-linecap="round"/>
<path d="M243.585 311.066C243.802 331.994 245.16 376.434 248.864 386.779" stroke="#CB0B96" stroke-width="24" stroke-linecap="round"/>
<path d="M329.314 291.201C325.677 308.783 318.694 346.307 319.857 355.744" stroke="#CB0B96" stroke-width="24" stroke-linecap="round"/>
<path d="M442.099 313.283C429.858 326.418 404.398 354.854 400.49 363.522" stroke="#CB0B96" stroke-width="24" stroke-linecap="round"/>
<path d="M177.722 415.456C170.659 410.325 160.537 399.447 155.483 390.693C150.429 381.939 143.622 363.038 143.777 358.101" stroke="#CB0B96" stroke-width="24" stroke-linecap="round"/>
<path d="M521.806 345.145C518.126 354.732 508.848 369.546 500.44 377.954C492.032 386.362 472.628 399.85 466.972 401.177" stroke="#CB0B96" stroke-width="24" stroke-linecap="round"/>
<path d="M592.069 390.694C586.775 401.402 574.905 417.146 564.941 425.382C554.977 433.619 532.917 445.513 526.898 445.848" stroke="#CB0B96" stroke-width="24" stroke-linecap="round"/>
<path d="M144.688 689.837C143.583 698.663 142.035 718.59 144.688 727.688" stroke="#CB0B96" stroke-width="24" stroke-linecap="round"/>
<path d="M198.712 741.585C199.104 750.786 202.119 770.824 211.048 777.369" stroke="#CB0B96" stroke-width="24" stroke-linecap="round"/>
<path d="M375.414 716.792C379.292 725.145 389.736 742.51 400.488 745.147" stroke="#CB0B96" stroke-width="24" stroke-linecap="round"/>
<path d="M457.697 741.585C461.575 749.938 470.685 763.047 482.771 769.94" stroke="#CB0B96" stroke-width="24" stroke-linecap="round"/>
<path d="M251.036 793.382C253.181 801.958 260.88 817.978 274.516 813.45" stroke="#CB0B96" stroke-width="24" stroke-linecap="round"/>
<path d="M288.543 732.124C286.989 740.826 287.454 758.594 301.749 760.045" stroke="#CB0B96" stroke-width="24" stroke-linecap="round"/>
<path d="M359.331 782.737C359.331 791.577 363.895 806.345 377.242 807.901" stroke="#CB0B96" stroke-width="24" stroke-linecap="round"/>
<path d="M548.598 607.554C551.414 577.615 541.045 555.635 532.976 541.134C529.544 534.968 522.394 531.757 515.48 533.172L494.423 537.478L460.098 558.184C449.856 583.82 449.553 612.355 459.248 638.202L460.098 640.467L494.423 661.269L515.884 669.217C522.547 671.684 530.037 669.425 533.172 663.049C539.553 650.073 546.529 629.558 548.598 607.554Z" fill="#FF99E0"/>
<path d="M460.098 558.185L481.402 539.017C489.195 532.006 499.534 528.519 509.981 529.379C520.675 530.26 530.575 536.266 536.023 545.511C543.582 558.337 551.966 576.121 551.966 602.759C551.966 627.233 544.888 645.155 537.876 657.456C531.981 667.797 519.843 672.536 508.019 671.163C498.632 670.073 489.791 666.181 482.648 659.995L460.098 640.468" stroke="#1A1A1A" stroke-width="24" stroke-linecap="round"/>
<path d="M476.353 583.253C479.661 583.216 488.225 582.381 496.018 579.346C503.811 576.311 509.357 571.649 511.157 569.698" stroke="#CB0B96" stroke-width="24" stroke-linecap="round"/>
<path d="M476.353 616.109C479.661 616.147 488.225 616.981 496.018 620.016C503.811 623.051 509.357 627.713 511.157 629.665" stroke="#CB0B96" stroke-width="24" stroke-linecap="round"/>
<circle cx="172.799" cy="571.097" r="17.9849" fill="#1A1A1A"/>
<circle cx="316.678" cy="571.097" r="17.9849" fill="#1A1A1A"/>
<path d="M208.769 604.318L244.738 604.318L284.381 604.318" stroke="#1A1A1A" stroke-width="24" stroke-linecap="round"/>
</svg>
