<svg width="768" height="880" viewBox="0 0 768 880" fill="none" xmlns="http://www.w3.org/2000/svg">
<path d="M584 666.447L448 810.447C518.4 906.447 589.333 861.114 616 826.447C680 762.447 621.333 693.114 584 666.447Z" fill="#FFF1C2"/>
<path d="M289.981 364.483L570.794 653.097C573.726 656.11 573.825 660.877 571.022 664.01L445.503 804.296C442.492 807.662 437.294 807.869 434.024 804.754L121.183 506.76C119.717 505.363 118.835 503.463 118.715 501.441L109.791 351.026C109.497 346.057 113.764 342.027 118.709 342.607L285.178 362.116C287.004 362.33 288.7 363.166 289.981 364.483Z" fill="#FFCD29"/>
<path fill-rule="evenodd" clip-rule="evenodd" d="M90.7378 368.643C87.5026 342.76 109.507 320.755 135.39 323.991L254.481 338.877C266.838 340.422 278.328 346.041 287.133 354.847L608.366 676.079C654.077 721.792 654.078 795.906 608.366 841.618C562.653 887.331 488.538 887.331 442.826 841.618L121.593 520.386C112.788 511.581 107.168 500.091 105.624 487.735L90.7378 368.643ZM575.475 677.13C575.995 680.745 574.866 684.553 572.084 687.334L447.283 812.135L459.796 824.649C496.136 860.988 555.055 860.988 591.395 824.649L592.24 823.792C627.732 787.389 627.45 729.106 591.395 693.05L575.475 677.13ZM131.929 347.752C121.787 346.787 113.278 355.475 114.552 365.666L129.438 484.757C130.293 491.597 133.333 497.973 138.097 502.94L138.564 503.415L430.312 795.164L555.114 670.364C557.895 667.583 561.701 666.451 565.316 666.971L270.163 371.818L269.686 371.351C264.72 366.587 258.344 363.547 251.504 362.692L132.413 347.805L131.929 347.752Z" fill="black" fill-opacity="0.9"/>
<circle cx="176.862" cy="443.309" r="16.8613" fill="#1A1A1A"/>
<circle cx="256.862" cy="443.309" r="16.8613" fill="#1A1A1A"/>
<path d="M192 486.148C210.487 506.047 241.737 506.806 261.169 487.828L262.889 486.148" stroke="#1A1A1A" stroke-width="24" stroke-linecap="round"/>
</svg>
