<svg width="768" height="880" viewBox="0 0 768 880" fill="none" xmlns="http://www.w3.org/2000/svg">
<path d="M455.639 288.001C521.714 288.007 575.264 341.581 575.264 407.642C575.262 438.403 563.641 466.448 544.561 487.642C563.64 508.84 575.264 536.881 575.264 567.642L575.108 573.798C572.004 634.964 522.962 684.006 461.796 687.11L455.639 687.267C441.47 687.267 427.88 684.789 415.264 680.267V743.642C415.258 807.641 365 859.903 301.796 863.11L295.639 863.267C231.642 863.267 179.363 813.012 176.155 749.798L175.999 743.642C175.999 708.825 190.883 677.49 214.624 655.626C192.299 635.064 177.796 606.137 176.155 573.798L175.999 567.642C175.999 536.872 187.629 508.825 206.718 487.626C188.918 467.856 177.593 442.14 176.155 413.798L175.999 407.642C175.999 341.57 229.567 288.001 295.639 288.001H455.639Z" fill="white" stroke="#1A1A1A" stroke-width="24" stroke-linejoin="round"/>
<path d="M224 407.635C224 368.073 256.071 336.001 295.633 336.001H351.267C360.104 336.001 367.267 343.164 367.267 352.001V463.269C367.267 472.105 360.104 479.269 351.267 479.269H295.633C256.071 479.269 224 447.197 224 407.635Z" fill="#E05A33"/>
<path d="M383.999 344.001C383.999 335.164 391.163 328.001 399.999 328.001H455.633C495.195 328.001 527.267 360.073 527.267 399.635C527.267 439.197 495.195 471.269 455.633 471.269H399.999C391.163 471.269 383.999 464.105 383.999 455.269V344.001Z" fill="#EE7A69"/>
<path d="M223.999 567.635C223.999 528.073 256.071 496.001 295.633 496.001H351.267C360.104 496.001 367.267 503.164 367.267 512.001V623.269C367.267 632.105 360.104 639.269 351.267 639.269H295.633C256.071 639.269 223.999 607.197 223.999 567.635Z" fill="#985DF6"/>
<rect x="383.999" y="496.001" width="143.268" height="143.268" rx="71.6339" fill="#57B9F8"/>
<path d="M223.999 743.635C223.999 704.073 256.071 672.001 295.633 672.001H351.267C360.104 672.001 367.267 679.164 367.267 688.001V743.635C367.267 783.197 335.195 815.269 295.633 815.269C256.071 815.269 223.999 783.197 223.999 743.635Z" fill="#5FCC89"/>
<path d="M350.667 493.514C386.708 526.865 442.279 527.054 478.537 493.943L481.177 491.551L481.359 491.386L481.529 491.211L482.606 490.108L482.729 489.982L482.846 489.851C490.651 481.117 490.715 467.739 482.653 458.919C474.596 450.104 461.268 448.957 451.866 455.944L451.702 456.066L451.546 456.195L450.35 457.183L450.195 457.31L450.048 457.445L447.427 459.837L447.424 459.84C428.879 476.789 400.439 476.703 382 459.639L381.996 459.636C372.793 451.131 358.5 451.529 349.796 460.469L349.385 460.901C340.718 470.268 341.324 484.869 350.667 493.514Z" fill="#1A1A1A" stroke="white" stroke-width="16"/>
<path d="M357.186 408C373.305 408 386.371 421.067 386.371 437.186C386.371 441.191 385.554 444.986 383.585 448.302C381.592 451.658 378.762 453.946 375.702 455.453C370.03 458.248 363.019 458.592 357.186 458.592C351.353 458.592 344.342 458.248 338.67 455.453C335.61 453.946 332.779 451.658 330.786 448.302C328.817 444.986 328 441.192 328 437.186C328 421.067 341.066 408 357.186 408Z" fill="#1A1A1A" stroke="white" stroke-width="16"/>
<path d="M469.186 408C485.305 408 498.371 421.067 498.371 437.186C498.371 441.151 497.568 445.022 495.347 448.329C493.074 451.712 489.901 453.637 486.788 454.717C483.815 455.748 480.653 456.098 477.852 456.245C476.448 456.319 474.974 456.347 473.504 456.356H464.868C463.398 456.347 461.923 456.319 460.52 456.245C457.718 456.098 454.556 455.748 451.583 454.717C448.47 453.637 445.297 451.712 443.024 448.329C440.803 445.022 440 441.151 440 437.186C440 421.067 453.066 408 469.186 408Z" fill="#1A1A1A" stroke="white" stroke-width="16"/>
</svg>
