<svg width="768" height="880" viewBox="0 0 768 880" fill="none" xmlns="http://www.w3.org/2000/svg">
<path d="M691.588 852.539C554.696 817.16 193.299 635.408 32.0003 499.407C32.0003 499.407 148.243 458.602 300.467 420.775C452.69 382.949 564.073 352 564.073 352C622.563 445.832 693.861 687.831 721.615 821.507C725.639 840.885 710.75 857.491 691.588 852.539Z" fill="#FFE8A3" stroke="#1A1A1A" stroke-width="24"/>
<ellipse cx="533.612" cy="580.42" rx="66.8058" ry="52.4203" fill="#BD2915"/>
<ellipse cx="466.806" cy="427.809" rx="66.8058" ry="52.4203" fill="#BD2915"/>
<ellipse cx="303.981" cy="565.458" rx="63.981" ry="53.219" fill="#BD2915"/>
<ellipse cx="496.235" cy="703.585" rx="16.2355" ry="15.5845" fill="#1A1A1A"/>
<ellipse cx="624.235" cy="703.585" rx="16.2355" ry="15.5845" fill="#1A1A1A"/>
<path d="M528 734.449C546.016 753.064 575.634 753.784 594.533 736.066L596.257 734.449" stroke="#1A1A1A" stroke-width="24" stroke-linecap="round"/>
<path d="M319.662 326.97C259.293 344.112 102.846 408.063 32 444.448L83.4649 546.908C163.523 510.743 310.201 455.742 335.662 448.513C360.439 441.478 500.752 402.437 573.292 382.272C577.078 381.22 580.368 378.848 582.146 375.344C588.196 363.422 594.738 342.953 589.999 326.97C585.325 311.21 572.936 298.041 564.15 291.174C561.342 288.979 557.741 288.203 554.198 288.591C496.912 294.87 378.104 310.376 319.662 326.97Z" fill="#D4693B" stroke="#1A1A1A" stroke-width="24" stroke-linejoin="round"/>
<path d="M91.0092 485.734C100.506 517.724 91.7721 545.196 72.6692 550.421C53.5663 555.646 26.6925 537.915 17.1956 505.924C7.69873 473.934 15.485 443.764 34.5879 438.539C53.6908 433.314 81.5124 453.743 91.0092 485.734Z" fill="#864E37" stroke="#1A1A1A" stroke-width="24"/>
</svg>
