<svg width="768" height="880" viewBox="0 0 768 880" fill="none" xmlns="http://www.w3.org/2000/svg">
<path d="M70.2719 648.738L78.3138 588.283L119.119 453.446L151.118 437.446L183.119 469.446V546.473L257.183 537.591L287.119 469.446L319.119 453.446L351.119 509.446L374.045 558.905H398.909L517.428 546.473L593.678 558.905L656.129 604.087L709.121 567.364L733.759 588.283L704.723 700.776V789.098L688.161 815.005L663.297 834.896L602.915 863.075H543.639L520.453 855.065V827.97L476.107 825.779L398.909 834.896L310.227 863.075L279.119 853.446L271.119 827.97L257.183 825.779L127.061 815.005L64.2978 862.466L23.148 850.395L16.0005 797.6L64.2978 763.93L58.9793 690.222L70.2719 648.738Z" fill="#F79722"/>
<path d="M80 846.086C67.2 807.686 32 803.42 16 806.086V846.086L40 854.087L80 846.086Z" fill="white"/>
<path d="M336 854.791C328 806.152 288 803.484 272 806.151L280 846.791L304 854.791L336 854.791Z" fill="white"/>
<path d="M576 854.335C568 805.696 544 787.027 528 789.694L512 829.694L552 854.335L576 854.335Z" fill="white"/>
<path d="M671.7 591.162C691.485 633.406 720.218 622.596 733.73 613.621L721.085 580.154L694.421 573.392L671.7 591.162Z" fill="white"/>
<path d="M458.196 774.577C417.314 779.688 414.516 795.679 416.439 812.126C417.841 824.123 432.349 835.039 444.067 832.11L447.902 831.151C449.427 830.77 450.905 830.223 452.311 829.52L459.276 826.037C463.409 823.971 468.399 824.781 471.666 828.048C473.308 829.69 475.439 830.755 477.738 831.083L505.299 835.021C519.911 837.108 534.054 828.931 539.536 815.227L542.353 808.185C544.851 801.939 545.795 794.553 541.18 789.658C525.174 772.684 479.028 771.973 458.196 774.577Z" fill="white"/>
<path d="M208 549.446C208 690.246 149.333 778.779 112 797.446L144 813.446L224 821.446H280L304 789.446C248 749.446 232 605.446 232 549.446H208Z" fill="white"/>
<path d="M136 565.446C142.206 540.622 143.899 478.685 143.996 448.208C144.001 446.438 143.297 444.743 142.045 443.491C138.974 440.421 133.836 441.053 131.602 444.777L112 477.446L89.1612 523.124C88.3921 524.662 87.876 526.314 87.6328 528.017L81.5024 570.929C80.592 577.302 83.5185 583.846 89.5291 586.151C115.73 596.201 131.22 577.396 136 565.446Z" fill="#EBB49D"/>
<path d="M288.501 562.804C290.812 536.388 300.633 502.379 307.983 480.74C310.305 473.906 316.782 469.446 324 469.446C331.218 469.446 337.679 473.924 340.213 480.682L357.963 528.013C359.31 531.606 360 535.412 360 539.249V570.338C360 585.981 348.469 600.112 332.998 597.798C316.26 595.294 303.485 587.967 295.392 581.097C290.113 576.617 287.898 569.702 288.501 562.804Z" fill="#EBB49D"/>
<path d="M128 725.446C136.696 735.726 159.385 750.117 180.567 725.446" stroke="#1A1A1A" stroke-width="24" stroke-linecap="round"/>
<path d="M256 725.446C264.696 735.726 287.385 750.117 308.567 725.446" stroke="#1A1A1A" stroke-width="24" stroke-linecap="round"/>
<path d="M237.096 742.464C222.754 740.381 203.633 741.829 189.027 743.82C181.429 744.856 175.742 751.683 178.57 758.81C184.548 773.878 199.764 786.118 211.347 793.05C215.531 795.554 220.815 795.63 224.526 792.466C233.986 784.404 241.198 770.187 245.666 758.426C248.378 751.288 244.653 743.562 237.096 742.464Z" fill="#1A1A1A"/>
<path d="M355.46 562.664H392.834C406.609 562.628 422.899 560.276 440.11 557.791C471.481 553.261 538.249 538.785 566.086 546.593C595.332 553.725 618.877 566.857 636.811 585.044C639.276 587.544 641.278 590.462 643.63 593.069C650.555 600.745 660.982 604.062 671.11 588.152C685.447 565.631 715.406 556.268 722.542 581.994C726.563 596.489 727.287 611.632 722.167 625.888C709.412 661.405 687.739 700.648 697.115 737.202C704.619 766.455 705.95 795.769 689.98 810.757C668.481 832.002 617.924 855.007 566.328 862.377C536.664 866.615 501.666 841.995 513.122 811.229C516.454 802.281 524.581 795.883 533.843 793.563C550.602 789.367 564.493 793.306 588.635 785.664C594.812 783.709 597.006 780.223 591.527 776.763C574.234 765.842 531.967 739.25 542.564 699.437M267.208 819.038C251.865 820.846 241.593 821.612 224.763 821.612C172.615 821.612 125.976 813.715 94.9349 793.062C70.3458 776.701 55.544 752.335 55.544 717.549C55.544 691.723 55.5448 673.203 61.0228 646.697C63.4288 628.378 70.9102 582.711 81.5879 546.593C93.0822 508.413 104.577 481.146 122.003 448.054C132.728 427.687 160.847 426.564 167.967 448.453C175.147 470.53 177.76 496.415 172.433 525.742C170.52 536.269 178.175 546.593 188.874 546.593H209.588H230.105C236.629 546.593 242.489 542.612 245.014 536.597C259.791 501.383 272.887 477.787 285.433 460.608C295.565 446.735 315.664 446.827 324.699 461.438C345.141 494.497 355.46 541.398 355.46 597.446M312.476 781.438C284.226 788.067 251.836 816.774 278.929 849.643C298.12 872.924 334.092 863.787 361.459 846.494C383.128 832.801 408.796 821.124 434.077 825.358C461.352 829.926 488.941 834.387 488.941 834.387L508.952 837.639M65.5418 761.324C37.2922 767.954 -1.98316 822.521 25.1099 855.39C48.6139 883.904 113.18 834.44 132.013 810.757" stroke="#1A1A1A" stroke-width="24" stroke-linecap="round"/>
</svg>
