<svg width="768" height="880" viewBox="0 0 768 880" fill="none" xmlns="http://www.w3.org/2000/svg">
<path d="M108.386 449.695C108.446 479.663 33.7242 591.736 19.1075 618.435C19.1075 676.287 31.7376 690.311 61.621 722.018C176.611 844.028 372.801 866.904 517.431 866.904C957.107 866.904 692.118 416.909 424.964 333.536C299.236 294.294 259.602 336.364 218.213 359.478C176.258 382.907 141.703 414.344 108.386 449.695Z" fill="#AFBCCF"/>
<path d="M473.294 654.355C404.299 611.292 310.421 609.847 234.155 594.21C188.899 584.931 139.22 556.619 93.8605 556.619C50.9791 556.619 95.5296 463.336 108.386 449.695C141.703 414.344 176.258 382.907 218.213 359.478C259.602 336.364 299.236 294.294 424.964 333.536C692.119 416.909 957.107 866.904 517.431 866.904C372.801 866.904 176.611 844.028 61.621 722.018C31.7377 690.311 19.1075 676.287 19.1075 618.435C19.1075 560.58 65.9364 556.619 84.295 556.619" stroke="#1A1A1A" stroke-width="24" stroke-linecap="round"/>
<circle cx="212.534" cy="503.858" r="15.3307" transform="rotate(10 212.534 503.858)" fill="#1A1A1A"/>
<circle cx="365.84" cy="534.52" r="15.3307" transform="rotate(10 365.84 534.52)" fill="#1A1A1A"/>
</svg>
