<svg width="768" height="880" viewBox="0 0 768 880" fill="none" xmlns="http://www.w3.org/2000/svg">
<path d="M218.327 796.325C201.808 697.945 175.128 476.901 160.971 349.443C160.445 344.706 164.165 340.669 168.931 340.669H598.999C603.789 340.669 607.514 344.784 606.951 349.541C594.85 451.826 570.65 654.291 555.398 784.854C551.625 817.155 524.281 841.479 491.761 841.479H273.862C246.261 841.479 222.897 823.545 218.327 796.325Z" fill="#F7FDFF"/>
<rect width="47.7542" height="286.255" rx="23.8771" transform="matrix(0.970897 -0.239497 0.279461 0.960157 240 260.669)" fill="#B3B3B3"/>
<path d="M176 388.67L202 415.878C216.164 430.701 239.836 430.701 254 415.878C268.164 401.056 291.836 401.056 306 415.878C320.164 430.701 343.836 430.701 358 415.878C372.164 401.056 395.836 401.056 410 415.878L411.177 417.11C424.7 431.262 447.3 431.262 460.823 417.11L463.042 414.788C476.243 400.973 498.601 401.982 510.504 416.93C521.805 431.121 542.72 432.873 556.224 420.76L592 388.67L543.232 816.911C541.391 833.079 527.709 845.29 511.437 845.29H248.44C231.938 845.29 218.142 832.742 216.583 816.314L176 388.67Z" fill="url(#paint0_linear_1_9720)"/>
<path d="M377.338 808.05C375.657 810.117 373.781 811.955 371.803 813.574C361.921 821.663 342.76 823.89 330.438 819.868C292.365 807.444 290.043 746.845 328.454 736.894C329.403 736.648 330.292 736.468 331.108 736.347C337.015 736.155 342.267 736.573 346.925 737.448C376.649 743.032 396.152 784.903 377.338 808.05Z" fill="#603A2A" stroke="#DD7C0E" stroke-width="12.8" stroke-linecap="round" stroke-linejoin="round"/>
<path d="M502.157 832.832C499.252 832.675 496.444 832.188 493.777 831.465C480.12 827.761 466.857 812.018 464.055 798.606C456.224 761.119 504.84 730.093 535.495 754.748C536.803 755.8 537.89 756.836 538.746 757.797C542.407 763.044 544.982 768.019 546.697 772.682C556.714 799.924 531.834 834.434 502.157 832.832Z" fill="#603A2A" stroke="#DD7C0E" stroke-width="12.8" stroke-linecap="round" stroke-linejoin="round"/>
<path d="M524.191 772.972C523.409 775.522 522.351 777.922 521.111 780.15C514.888 791.327 497.632 800.102 484.461 800.476C444.469 801.612 420.194 746.25 452.038 723.467C452.918 722.837 453.762 722.307 454.55 721.875C460.076 719.636 465.204 718.221 469.934 717.459C499.656 712.667 532.809 744.867 524.191 772.972Z" fill="#603A2A" stroke="#DD7C0E" stroke-width="12.8" stroke-linecap="round" stroke-linejoin="round"/>
<path d="M300.191 756.972C299.409 759.522 298.351 761.922 297.111 764.15C290.888 775.327 273.632 784.102 260.461 784.476C220.469 785.612 196.194 730.25 228.038 707.467C228.918 706.837 229.762 706.307 230.55 705.875C236.076 703.636 241.204 702.221 245.934 701.459C275.656 696.667 308.809 728.867 300.191 756.972Z" fill="#603A2A" stroke="#DD7C0E" stroke-width="12.8" stroke-linecap="round" stroke-linejoin="round"/>
<path d="M390.156 784.832C387.252 784.675 384.443 784.188 381.776 783.465C368.12 779.761 354.856 764.017 352.054 750.606C344.223 713.118 392.839 682.093 423.495 706.748C424.803 707.8 425.889 708.835 426.745 709.797C430.406 715.044 432.981 720.019 434.696 724.682C444.713 751.924 419.834 786.433 390.156 784.832Z" fill="#603A2A" stroke="#DD7C0E" stroke-width="12.8" stroke-linecap="round" stroke-linejoin="round"/>
<path d="M422.156 832.833C419.252 832.676 416.443 832.189 413.776 831.466C400.12 827.762 386.856 812.018 384.054 798.607C376.223 761.119 424.839 730.094 455.495 754.749C456.803 755.801 457.889 756.836 458.745 757.798C462.406 763.045 464.981 768.02 466.696 772.683C476.713 799.925 451.834 834.434 422.156 832.833Z" fill="#603A2A" stroke="#DD7C0E" stroke-width="12.8" stroke-linecap="round" stroke-linejoin="round"/>
<path d="M260.316 820.554C258.007 818.743 255.994 816.713 254.253 814.569C245.248 803.479 244.558 782.692 251.174 770.187C269.009 736.48 325.935 740.345 335.568 777.48C336.047 779.328 336.308 781 336.393 782.425C335.98 788.941 334.819 794.539 333.137 799.334C323.635 826.428 283.138 838.446 260.316 820.554Z" fill="#603A2A" stroke="#DD7C0E" stroke-width="12.8" stroke-linecap="round" stroke-linejoin="round"/>
<ellipse cx="307.14" cy="550.29" rx="19.1398" ry="17.6203" fill="#1A1A1A"/>
<ellipse cx="467.14" cy="550.29" rx="19.1398" ry="17.6203" fill="#1A1A1A"/>
<path d="M352 590.736C373.489 612.031 407.858 612.864 430.354 592.637L432.468 590.736" stroke="#1A1A1A" stroke-width="24" stroke-linecap="round"/>
<path d="M218.429 806.282C201.91 706.146 175.13 479.73 160.949 349.423C160.434 344.692 164.153 340.67 168.911 340.67H599.02C603.803 340.67 607.526 344.766 606.975 349.517C594.851 454.095 570.538 661.674 555.283 794.963C551.579 827.328 524.206 851.741 491.63 851.741H274.154C246.412 851.741 222.945 833.654 218.429 806.282Z" stroke="#1A1A1A" stroke-width="24" stroke-linejoin="round"/>
<rect x="128" y="308.67" width="512" height="44.1891" rx="22.0945" fill="#1A1A1A"/>
<defs>
<linearGradient id="paint0_linear_1_9720" x1="384" y1="341.549" x2="384" y2="845.29" gradientUnits="userSpaceOnUse">
<stop stop-color="#FFF4E5"/>
<stop offset="0.634615" stop-color="#CE7012"/>
</linearGradient>
</defs>
</svg>
