<svg width="768" height="880" viewBox="0 0 768 880" fill="none" xmlns="http://www.w3.org/2000/svg">
<path d="M29.3687 699.04C23.0363 697.085 16.3177 700.633 14.3623 706.965C12.4069 713.298 15.9552 720.016 22.2875 721.972L25.8281 710.506L29.3687 699.04ZM85.0676 728.799L88.6082 717.333L29.3687 699.04L25.8281 710.506L22.2875 721.972L81.5271 740.265L85.0676 728.799Z" fill="#1A1A1A"/>
<path d="M14.1376 748.05C7.52684 747.58 1.787 752.558 1.31729 759.169C0.847577 765.78 5.82587 771.52 12.4366 771.989L13.2871 760.02L14.1376 748.05ZM75.1308 764.414L75.9813 752.444L14.1376 748.05L13.2871 760.02L12.4366 771.989L74.2803 776.384L75.1308 764.414Z" fill="#1A1A1A"/>
<path d="M154.629 786.205L50.9762 789.36C30.9113 789.97 14.9619 806.413 14.9619 826.487C14.9619 848.078 33.3074 865.12 54.84 863.53L184.229 853.982L154.629 786.205Z" fill="#B3B3B3"/>
<path d="M84.0374 786.205L48.9269 788.366C29.8402 789.54 14.9619 805.362 14.9619 824.485C14.9619 846.598 34.6197 863.54 56.4905 860.277L98.6769 853.982L84.0374 786.205Z" fill="#FFC7C2"/>
<path d="M154.629 786.205L50.9762 789.36C30.9113 789.97 14.9619 806.413 14.9619 826.487C14.9619 848.078 33.3074 865.12 54.84 863.53L184.229 853.982" stroke="#1A1A1A" stroke-width="24"/>
<path d="M400.968 496.027C461.933 496.027 523.294 530.294 569.82 582.507C616.29 634.657 646.497 703.135 646.497 768.901C646.497 781.33 646.933 792.742 647.096 802.113C647.264 811.793 647.15 819.496 646.257 825.939C645.379 832.27 643.825 836.752 641.524 840.233C639.284 843.624 635.812 846.857 629.808 849.851C617.098 856.187 594.963 860.576 555.891 863.137C517.27 865.668 463.846 866.351 389.808 866.351C264.914 866.351 176.148 773.402 176.148 675.171C176.148 674.126 176.888 670.318 179.963 663.254C182.828 656.67 187.182 648.454 192.954 639.154C204.49 620.57 221.3 598.286 242.116 576.871C284.121 533.659 340.392 496.027 400.968 496.027Z" fill="#B3B3B3" stroke="#1A1A1A" stroke-width="24"/>
<path d="M129.654 511.977C175.758 504.969 221.277 541.656 228.842 597.448C236.407 653.239 202.474 702.004 156.37 709.013C110.266 716.021 64.7466 679.333 57.1817 623.541C49.6171 567.749 83.5503 518.985 129.654 511.977Z" fill="#B3B3B3" stroke="#1A1A1A" stroke-width="24"/>
<ellipse cx="131.119" cy="613.149" rx="64.1321" ry="86.083" fill="#FFC7C2"/>
<path d="M341.164 730.27C341.164 797.544 275.499 852.08 194.498 852.08C113.496 852.08 49.1777 822.476 49.1777 755.202C49.1777 713.886 113.496 608.459 194.498 608.459C275.499 608.459 341.164 662.995 341.164 730.27Z" fill="#B3B3B3"/>
<path d="M91.082 743.277C96.9912 750.673 112.408 761.026 126.801 743.277" stroke="#1A1A1A" stroke-width="24" stroke-linecap="round"/>
<path d="M159.533 743.277C165.442 750.673 180.859 761.026 195.252 743.277" stroke="#1A1A1A" stroke-width="24" stroke-linecap="round"/>
<path d="M357.162 744.849C357.162 812.123 275.499 854.703 194.498 854.703C113.496 854.703 49.1777 825.099 49.1777 757.825C49.1777 716.509 113.496 611.082 194.498 611.082C227.204 611.082 257.41 619.973 281.803 635.004" stroke="#1A1A1A" stroke-width="24" stroke-linecap="round"/>
<ellipse cx="422.764" cy="681.19" rx="91.5408" ry="85.959" fill="#FFC7C2"/>
<path d="M281.409 634.965C281.409 580.092 352.741 539.068 423.907 539.068C495.073 539.068 514.305 595.896 514.305 650.769C514.305 705.642 484.33 775.978 423.907 775.978C386.688 775.978 338.621 727.01 321.26 697.778" stroke="#1A1A1A" stroke-width="24" stroke-linecap="round"/>
<path d="M700.164 755.949C703.405 730.432 679.425 726.406 656.922 725.881C649.291 725.703 642.68 720.459 641.134 712.985L638.531 700.395C636.592 691.022 643.285 681.973 652.857 681.982C711.767 682.039 742.512 710.752 746.132 751.906C750.103 797.058 697.625 854.488 593.616 863.637C489.607 872.785 454.86 777.526 453.442 761.4C453.322 760.041 453.293 758.65 453.339 757.242C453.78 743.97 471.114 743.88 478.731 754.757C501.209 786.856 542.405 822.639 601.419 817.449C679.393 810.59 699.738 773.591 700.164 755.949Z" fill="#FFC7C2" stroke="#1A1A1A" stroke-width="24"/>
<ellipse cx="139.781" cy="790.235" rx="19.7526" ry="14.1729" fill="#1A1A1A"/>
<path d="M356.472 786.205L252.819 789.36C232.754 789.97 216.805 806.413 216.805 826.487C216.805 848.078 235.15 865.12 256.683 863.53L386.072 853.982L356.472 786.205Z" fill="#B3B3B3"/>
<path d="M285.88 786.205L250.77 788.366C231.683 789.54 216.805 805.362 216.805 824.485C216.805 846.598 236.463 863.54 258.333 860.277L300.52 853.982L285.88 786.205Z" fill="#FFC7C2"/>
<path d="M356.472 796.262L249.597 799.107C231.347 799.593 216.805 814.527 216.805 832.784C216.805 851.39 231.888 866.473 250.494 866.473H385.027" stroke="#1A1A1A" stroke-width="24" stroke-linecap="round"/>
<path d="M239.597 724.374L271.756 703.396" stroke="#1A1A1A" stroke-width="24" stroke-linecap="round"/>
<path d="M248.834 757.996L294.678 749.523" stroke="#1A1A1A" stroke-width="24" stroke-linecap="round"/>
</svg>
