<svg width="768" height="880" viewBox="0 0 768 880" fill="none" xmlns="http://www.w3.org/2000/svg">
<path fill-rule="evenodd" clip-rule="evenodd" d="M408.464 290.161C424.804 284.969 446.389 288.24 450.701 309.824C452.374 318.196 453.438 325.829 453.438 335C453.438 343.81 451.805 353.031 460.761 345.284C474.12 333.728 493.344 321.594 509.359 330.969C522.787 338.829 527.466 357.808 527.954 373.646C657.23 420.519 744 535.062 744 632.808C744 759.175 611.547 861.616 417.143 861.616C222.738 861.616 40 759.175 40 632.808C40.0003 532.572 147.066 414.672 288.368 370.197C288.192 369.44 288.083 368.68 288.049 367.921C287.472 355.089 292.056 334.565 301.06 324.551C309.564 315.093 333.313 308.758 342.927 319.45C345.871 322.725 349.036 325.423 351.951 328.665C354.623 331.637 356.834 336.105 359.644 338.784C360.827 339.913 364.93 347.994 365.562 346.765C369.348 339.395 371.417 330.968 375.695 323.646C384.345 308.846 392.611 295.199 408.464 290.161Z" fill="#FFE2E0"/>
<path d="M408.464 290.161L404.83 278.725L404.829 278.725L408.464 290.161ZM450.701 309.824L462.469 307.473V307.473L450.701 309.824ZM453.438 335L465.438 335V335H453.438ZM460.761 345.284L468.612 354.36L468.612 354.36L460.761 345.284ZM509.359 330.969L515.422 320.613V320.613L509.359 330.969ZM527.954 373.646L515.96 374.016C516.111 378.929 519.243 383.252 523.864 384.928L527.954 373.646ZM744 632.808H756V632.808L744 632.808ZM417.143 861.616V873.616V873.616V861.616ZM40 632.808L28 632.808V632.808H40ZM288.368 370.197L291.971 381.644C297.956 379.76 301.479 373.583 300.055 367.473L288.368 370.197ZM288.049 367.921L276.061 368.46L276.061 368.46L288.049 367.921ZM301.06 324.551L292.136 316.528L292.136 316.528L301.06 324.551ZM342.927 319.45L334.003 327.473V327.473L342.927 319.45ZM351.951 328.665L360.875 320.642L360.875 320.642L351.951 328.665ZM359.644 338.784L351.363 347.469L351.363 347.47L359.644 338.784ZM365.562 346.765L376.235 352.248L376.235 352.248L365.562 346.765ZM375.695 323.646L365.335 317.592L365.335 317.592L375.695 323.646ZM408.464 290.161L412.098 301.598C418.409 299.592 425.11 299.475 430.035 301.244C434.278 302.769 437.648 305.739 438.934 312.175L450.701 309.824L462.469 307.473C459.442 292.326 449.863 282.867 438.151 278.659C427.12 274.695 414.859 275.538 404.83 278.725L408.464 290.161ZM450.701 309.824L438.934 312.175C440.509 320.06 441.438 326.865 441.438 335H453.438H465.438C465.438 324.793 464.239 316.333 462.469 307.473L450.701 309.824ZM453.438 335L441.438 335C441.438 335.934 441.417 336.907 441.39 337.987C441.364 339.015 441.331 340.203 441.323 341.333C441.311 343.202 441.312 346.593 442.221 349.711C442.698 351.347 443.766 354.16 446.347 356.555C449.361 359.35 453.186 360.431 456.782 360.147C459.861 359.904 462.331 358.717 463.904 357.803C465.591 356.823 467.17 355.607 468.612 354.36L460.761 345.284L452.91 336.209C452.113 336.898 451.784 337.089 451.846 337.052C451.895 337.024 452.158 336.874 452.611 336.707C453.06 336.541 453.844 336.304 454.895 336.221C457.385 336.025 460.34 336.798 462.67 338.96C464.568 340.721 465.14 342.574 465.261 342.991C465.416 343.52 465.393 343.713 465.361 343.283C465.334 342.911 465.317 342.345 465.323 341.493C465.329 340.64 465.354 339.723 465.382 338.591C465.409 337.511 465.438 336.268 465.438 335L453.438 335ZM460.761 345.284L468.612 354.36C474.876 348.941 481.809 344.037 488.424 341.457C494.895 338.934 499.565 339.14 503.297 341.325L509.359 330.969L515.422 320.613C503.139 313.422 490.189 315.008 479.704 319.097C469.363 323.13 460.005 330.071 452.91 336.209L460.761 345.284ZM509.359 330.969L503.297 341.325C506.829 343.392 509.95 347.374 512.282 353.554C514.597 359.686 515.744 367.004 515.96 374.016L527.954 373.646L539.948 373.277C539.677 364.45 538.24 354.36 534.736 345.078C531.25 335.843 525.317 326.405 515.422 320.613L509.359 330.969ZM527.954 373.646L523.864 384.928C649.731 430.564 732 541.402 732 632.808L744 632.808L756 632.808C756 528.722 664.728 410.473 532.044 362.365L527.954 373.646ZM744 632.808H732C732 691.428 701.361 745.268 646.454 784.867C591.461 824.527 512.334 849.616 417.143 849.616V861.616V873.616C516.355 873.616 600.657 847.485 660.492 804.332C720.413 761.118 756 700.554 756 632.808H744ZM417.143 861.616V849.616C321.88 849.616 229.742 824.481 161.78 784.272C93.4102 743.821 52 689.824 52 632.808H40H28C28 702.158 77.9591 762.565 149.559 804.927C221.568 847.531 318.001 873.616 417.143 873.616V861.616ZM40 632.808L52 632.808C52.0002 586.782 76.7617 535.035 119.965 488.784C162.99 442.723 223.306 403.256 291.971 381.644L288.368 370.197L284.765 358.751C212.129 381.613 148.26 423.334 102.427 472.401C56.7717 521.277 28.0002 578.598 28 632.808L40 632.808ZM288.368 370.197L300.055 367.473C300.034 367.384 300.036 367.357 300.037 367.382L288.049 367.921L276.061 368.46C276.13 370.003 276.349 371.495 276.682 372.922L288.368 370.197ZM288.049 367.921L300.037 367.382C299.814 362.429 300.605 355.358 302.531 348.365C304.504 341.201 307.261 335.602 309.983 332.574L301.06 324.551L292.136 316.528C285.854 323.514 281.818 333.184 279.392 341.993C276.919 350.974 275.707 360.58 276.061 368.46L288.049 367.921ZM301.06 324.551L309.983 332.574C311.927 330.411 317.219 327.384 323.637 326.266C330.389 325.089 333.363 326.761 334.003 327.473L342.927 319.45L351.85 311.427C342.878 301.447 329.169 300.94 319.517 302.622C309.531 304.363 298.696 309.232 292.136 316.528L301.06 324.551ZM342.927 319.45L334.003 327.473C335.775 329.444 337.577 331.2 339.063 332.652C340.629 334.183 341.871 335.402 343.028 336.688L351.951 328.665L360.875 320.642C359.116 318.686 357.318 316.935 355.837 315.488C354.275 313.961 353.023 312.731 351.85 311.427L342.927 319.45ZM351.951 328.665L343.027 336.688C343.678 337.412 344.351 338.414 345.817 340.575C346.979 342.285 348.896 345.118 351.363 347.469L359.644 338.784L367.924 330.099C367.581 329.772 366.988 329.031 365.674 327.095C364.665 325.608 362.896 322.89 360.875 320.642L351.951 328.665ZM359.644 338.784L351.363 347.47C350.545 346.69 350.141 346.037 350.354 346.345C350.416 346.434 350.556 346.646 350.804 347.042C351.043 347.424 351.308 347.858 351.625 348.379C351.929 348.877 352.278 349.449 352.629 350.01C353.23 350.975 354.206 352.516 355.242 353.785C355.557 354.171 356.884 355.834 358.977 357.097C359.968 357.695 362.885 359.295 366.882 358.799C371.859 358.181 374.881 354.884 376.235 352.248L365.562 346.765L354.888 341.281C356.163 338.799 359.079 335.583 363.926 334.981C367.793 334.501 370.555 336.053 371.372 336.545C372.427 337.182 373.095 337.826 373.322 338.051C373.61 338.336 373.785 338.547 373.831 338.605C373.884 338.669 373.641 338.35 372.991 337.307C372.715 336.865 372.429 336.396 372.114 335.88C371.813 335.387 371.476 334.834 371.154 334.318C370.84 333.817 370.461 333.222 370.069 332.659C369.83 332.313 369.038 331.161 367.924 330.099L359.644 338.784ZM365.562 346.765L376.235 352.248C378.49 347.86 380.216 343.186 381.636 339.517C383.16 335.575 384.451 332.447 386.056 329.701L375.695 323.646L365.335 317.592C362.661 322.167 360.778 326.913 359.252 330.858C357.621 335.075 356.42 338.299 354.888 341.281L365.562 346.765ZM375.695 323.646L386.056 329.701C395.114 314.202 401.312 305.025 412.098 301.598L408.464 290.161L404.829 278.725C383.911 285.373 373.576 303.491 365.335 317.592L375.695 323.646Z" fill="#1A1A1A"/>
<circle cx="332.74" cy="492.739" r="12.7398" fill="#1A1A1A"/>
<circle cx="444.74" cy="492.739" r="12.7398" fill="#1A1A1A"/>
<path d="M336 548.573C371.86 574.687 420.167 575.787 457.179 551.331L461.354 548.573" stroke="#1A1A1A" stroke-width="24" stroke-linecap="round"/>
</svg>
