<svg width="768" height="880" viewBox="0 0 768 880" fill="none" xmlns="http://www.w3.org/2000/svg">
<path d="M204.615 705.132C282.151 694.489 371.843 691.062 458.303 695.479C544.858 699.9 622.196 711.878 677.252 729.106C694.562 734.522 709.143 740.294 720.932 746.252C727.247 749.444 729.451 752.478 730.127 754.033C730.65 755.236 730.676 756.396 729.773 758.016C727.524 762.053 719.098 768.211 704 768.211H616.376C601.379 768.212 597.422 788.925 611.363 794.453L680.107 821.71C689.979 825.624 692.637 832.731 692.093 837.73C691.573 842.507 687.82 848.348 677.538 849.428C592.128 858.396 480.661 864.851 421.335 866.352C333.568 868.572 245.665 862.898 172.69 850.376C136.205 844.116 104.789 836.373 79.4951 827.615C54.0104 818.79 35.5441 809.207 24.2881 799.678C13.0654 790.177 11.2501 782.849 12.249 777.627C13.44 771.402 19.4859 762.635 35.5537 752.673C67.315 732.982 126.619 715.838 204.615 705.132Z" fill="#92DA40" stroke="#1A1A1A" stroke-width="24" stroke-miterlimit="6.40657"/>
<path d="M522.103 503.615L564.074 672.209C577.267 725.205 537.175 776.501 482.562 776.501H286.284C231.671 776.501 191.579 725.205 204.772 672.209L246.744 503.615H522.103Z" fill="#14AE5C" stroke="#1A1A1A" stroke-width="24"/>
<path fill-rule="evenodd" clip-rule="evenodd" d="M396.906 373.028C397.578 329.487 439.641 294.245 485.525 306.729C521.809 316.602 543.102 352.867 535.851 388.322C576.127 397.919 605.395 434.072 605.395 476.475C605.395 530.537 558.368 572.576 504.644 566.54L403.562 555.184C390.176 553.68 376.662 553.686 363.277 555.203L264.278 566.428C210.531 572.522 163.449 530.477 163.449 476.385C163.449 433.994 192.706 397.847 232.976 388.247C225.77 352.816 247.059 316.595 283.317 306.729C329.166 294.255 371.198 329.432 371.934 372.926C380.252 372.487 388.59 372.522 396.906 373.028Z" fill="#14AE5C"/>
<path d="M396.906 373.028L396.177 385.006C399.448 385.205 402.658 384.058 405.062 381.831C407.466 379.604 408.854 376.49 408.905 373.213L396.906 373.028ZM485.525 306.729L488.676 295.15L488.676 295.15L485.525 306.729ZM535.851 388.322L524.094 385.918C522.796 392.264 526.768 398.494 533.069 399.995L535.851 388.322ZM605.395 476.475H617.395V476.475H605.395ZM504.644 566.54L505.983 554.615H505.983L504.644 566.54ZM403.562 555.184L402.223 567.109H402.223L403.562 555.184ZM363.277 555.203L361.925 543.279L361.925 543.28L363.277 555.203ZM264.278 566.428L265.63 578.351H265.63L264.278 566.428ZM163.449 476.385L151.449 476.385V476.385H163.449ZM232.976 388.247L235.758 399.92C242.053 398.419 246.025 392.197 244.735 385.856L232.976 388.247ZM283.317 306.729L280.167 295.15L280.167 295.15L283.317 306.729ZM371.934 372.926L359.935 373.129C359.99 376.385 361.367 379.48 363.749 381.701C366.131 383.923 369.313 385.081 372.566 384.909L371.934 372.926ZM396.906 373.028L408.905 373.213C409.462 337.092 444.441 307.987 482.375 318.309L485.525 306.729L488.676 295.15C434.84 280.502 385.694 321.882 384.908 372.843L396.906 373.028ZM485.525 306.729L482.375 318.309C512.431 326.487 530.102 356.542 524.094 385.918L535.851 388.322L547.607 390.727C556.102 349.192 531.187 306.717 488.676 295.15L485.525 306.729ZM535.851 388.322L533.069 399.995C568.004 408.32 593.395 439.693 593.395 476.475H605.395H617.395C617.395 428.451 584.249 387.519 538.632 376.649L535.851 388.322ZM605.395 476.475L593.395 476.475C593.395 523.379 552.594 559.852 505.983 554.615L504.644 566.54L503.304 578.465C564.141 585.3 617.395 537.695 617.395 476.475H605.395ZM504.644 566.54L505.983 554.615L404.902 543.259L403.562 555.184L402.223 567.109L503.304 578.465L504.644 566.54ZM403.562 555.184L404.902 543.259C390.622 541.654 376.205 541.66 361.925 543.279L363.277 555.203L364.629 567.127C377.119 565.711 389.73 565.705 402.223 567.109L403.562 555.184ZM363.277 555.203L361.925 543.28L262.926 554.504L264.278 566.428L265.63 578.351L364.629 567.127L363.277 555.203ZM264.278 566.428L262.926 554.504C216.296 559.791 175.449 523.314 175.449 476.385H163.449H151.449C151.449 537.639 204.766 585.252 265.63 578.351L264.278 566.428ZM163.449 476.385L175.449 476.385C175.449 439.614 200.829 408.247 235.758 399.92L232.976 388.247L230.193 376.574C184.582 387.447 151.449 428.374 151.449 476.385L163.449 476.385ZM232.976 388.247L244.735 385.856C238.765 356.499 256.433 326.481 286.468 318.309L283.317 306.729L280.167 295.15C237.686 306.709 212.775 349.132 221.216 390.639L232.976 388.247ZM283.317 306.729L286.468 318.309C324.371 307.996 359.325 337.046 359.935 373.129L371.934 372.926L383.932 372.723C383.071 321.818 333.961 280.514 280.167 295.15L283.317 306.729ZM371.934 372.926L372.566 384.909C380.43 384.494 388.313 384.527 396.177 385.006L396.906 373.028L397.636 361.051C388.867 360.516 380.075 360.48 371.302 360.942L371.934 372.926Z" fill="#1A1A1A"/>
<circle cx="300.933" cy="378.801" r="14.1326" fill="#1A1A1A"/>
<circle cx="467.904" cy="378.801" r="14.1326" fill="#1A1A1A"/>
<path d="M354.711 428.428C370.206 445.107 396.399 445.744 412.685 429.837L414.127 428.428" stroke="#1A1A1A" stroke-width="24" stroke-linecap="round"/>
<path d="M365.969 762.708L356.282 642.234L269.195 649.236L278.882 769.71C280.816 793.758 301.879 811.686 325.927 809.752C349.975 807.818 367.903 786.756 365.969 762.708Z" fill="#14AE5C"/>
<path d="M269.195 649.236L278.882 769.71C280.816 793.758 301.879 811.686 325.927 809.752C349.975 807.818 367.903 786.756 365.969 762.708L356.282 642.234" stroke="#1A1A1A" stroke-width="24" stroke-linecap="round" stroke-linejoin="bevel"/>
<path d="M404.439 762.708L414.126 642.234L501.213 649.236L491.526 769.71C489.592 793.758 468.53 811.686 444.481 809.752C420.433 807.818 402.506 786.756 404.439 762.708Z" fill="#14AE5C"/>
<path d="M499.647 649.236L489.96 769.71C488.026 793.758 466.964 811.686 442.915 809.752C418.867 807.818 400.94 786.756 402.873 762.708L412.56 642.234" stroke="#1A1A1A" stroke-width="24" stroke-linecap="round" stroke-linejoin="bevel"/>
<ellipse cx="249.708" cy="452.276" rx="33.294" ry="32.8429" fill="#FFC7C2"/>
<ellipse cx="519.144" cy="452.276" rx="33.294" ry="32.8429" fill="#FFC7C2"/>
</svg>
