<svg width="768" height="880" viewBox="0 0 768 880" fill="none" xmlns="http://www.w3.org/2000/svg">
<path d="M408 322.43C442.203 322.43 471.849 341.943 486.412 370.444C486.94 370.435 487.47 370.43 488 370.43C529.226 370.43 563.829 398.779 573.382 437.047C611.65 446.599 640 481.203 640 522.43C640 522.96 639.994 523.489 639.984 524.017C668.486 538.579 688 568.226 688 602.43C688 602.96 687.994 603.489 687.984 604.017C716.486 618.579 736 648.226 736 682.43C736 695.241 733.26 707.412 728.338 718.392C743.016 734.115 752 755.223 752 778.43C752 827.031 712.601 866.43 664 866.43C646.291 866.43 629.804 861.198 615.999 852.196C602.195 861.197 585.709 866.43 568 866.43C542.783 866.43 520.044 855.822 504 838.826C487.956 855.822 465.217 866.43 440 866.43C418.726 866.43 399.215 858.88 384 846.314C368.785 858.88 349.274 866.43 328 866.43C306.726 866.43 287.215 858.88 272 846.314C256.785 858.88 237.274 866.43 216 866.43C201.596 866.43 188.001 862.969 176 856.834C163.999 862.969 150.404 866.43 136 866.43C87.399 866.43 48 827.031 48 778.43C48 755.223 56.9829 734.115 71.6611 718.392C66.7389 707.412 64 695.241 64 682.43C64 648.226 83.5131 618.58 112.015 604.017C112.005 603.489 112 602.96 112 602.43C112 562.103 139.125 528.113 176.125 517.707C178.194 478.581 205.82 446.232 242.617 437.047C252.17 398.779 286.774 370.43 328 370.43C328.53 370.43 329.059 370.435 329.587 370.444C344.15 341.943 373.797 322.43 408 322.43Z" fill="#F5F5F5"/>
<mask id="mask0_1_9744" style="mask-type:alpha" maskUnits="userSpaceOnUse" x="48" y="322" width="704" height="545">
<path d="M408 322.43C442.203 322.43 471.849 341.943 486.412 370.444C486.94 370.435 487.47 370.43 488 370.43C529.226 370.43 563.829 398.779 573.382 437.047C611.65 446.599 640 481.203 640 522.43C640 522.96 639.994 523.489 639.984 524.017C668.486 538.579 688 568.226 688 602.43C688 602.96 687.994 603.489 687.984 604.017C716.486 618.579 736 648.226 736 682.43C736 695.241 733.26 707.412 728.338 718.392C743.016 734.115 752 755.223 752 778.43C752 827.031 712.601 866.43 664 866.43C646.291 866.43 629.804 861.198 615.999 852.196C602.195 861.197 585.709 866.43 568 866.43C542.783 866.43 520.044 855.822 504 838.826C487.956 855.822 465.217 866.43 440 866.43C418.726 866.43 399.215 858.88 384 846.314C368.785 858.88 349.274 866.43 328 866.43C306.726 866.43 287.215 858.88 272 846.314C256.785 858.88 237.274 866.43 216 866.43C201.596 866.43 188.001 862.969 176 856.834C163.999 862.969 150.404 866.43 136 866.43C87.399 866.43 48 827.031 48 778.43C48 755.223 56.9829 734.115 71.6611 718.392C66.7389 707.412 64 695.241 64 682.43C64 648.226 83.5131 618.58 112.015 604.017C112.005 603.489 112 602.96 112 602.43C112 562.103 139.125 528.113 176.125 517.707C178.194 478.581 205.82 446.232 242.617 437.047C252.17 398.779 286.774 370.43 328 370.43C328.53 370.43 329.059 370.435 329.587 370.444C344.15 341.943 373.797 322.43 408 322.43Z" fill="#F7FDFF"/>
</mask>
<g mask="url(#mask0_1_9744)">
<path d="M255.086 667.047C253.863 707.901 245.577 814.891 240.715 873.808C240.331 878.473 244.015 882.43 248.696 882.43H545.722C551.972 882.43 556.772 875.112 555.202 869.062C545.056 829.959 535.03 727.468 530.254 667.76C529.861 662.846 525.224 659.461 520.367 660.306C462 670.47 331.877 664.255 263.839 659.102C259.181 658.749 255.225 662.377 255.086 667.047Z" fill="#2C2C2C"/>
<circle cx="323.14" cy="533.57" r="19.1398" fill="#1A1A1A"/>
<circle cx="483.14" cy="533.57" r="19.1398" fill="#1A1A1A"/>
<path d="M368 569.225C388.985 591.813 424.458 592.675 446.515 571.132L448.468 569.225" stroke="#1A1A1A" stroke-width="24" stroke-linecap="round"/>
<ellipse cx="256" cy="570.43" rx="32" ry="24" fill="#FFAFA3"/>
<ellipse cx="544" cy="570.43" rx="32" ry="24" fill="#FFAFA3"/>
</g>
<path d="M408 322.43V310.43V310.43V322.43ZM486.412 370.444L475.726 375.904C477.812 379.986 482.041 382.524 486.624 382.442L486.412 370.444ZM488 370.43V358.43V358.43V370.43ZM573.382 437.047L561.739 439.953C562.813 444.256 566.173 447.616 570.476 448.69L573.382 437.047ZM640 522.43H652V522.43H640ZM639.984 524.017L627.986 523.804C627.905 528.388 630.442 532.617 634.524 534.703L639.984 524.017ZM688 602.43H700V602.43H688ZM687.984 604.017L675.986 603.804C675.905 608.388 678.442 612.617 682.524 614.703L687.984 604.017ZM736 682.43H748V682.43H736ZM728.338 718.392L717.388 713.483C715.412 717.889 716.271 723.051 719.566 726.581L728.338 718.392ZM752 778.43H764V778.43H752ZM664 866.43V878.43V878.43V866.43ZM615.999 852.196L622.553 842.144C618.57 839.547 613.428 839.547 609.445 842.144L615.999 852.196ZM568 866.43V878.43V878.43V866.43ZM504 838.826L512.726 830.589C510.459 828.187 507.302 826.826 504 826.826C500.698 826.826 497.541 828.187 495.274 830.589L504 838.826ZM440 866.43V878.43V878.43V866.43ZM384 846.314L391.641 837.062C387.206 833.399 380.794 833.399 376.359 837.062L384 846.314ZM328 866.43V878.43V878.43V866.43ZM272 846.314L279.641 837.062C275.206 833.399 268.794 833.399 264.359 837.062L272 846.314ZM216 866.43V878.43V878.43V866.43ZM176 856.834L181.462 846.149C178.032 844.396 173.968 844.396 170.538 846.149L176 856.834ZM136 866.43V878.43V878.43V866.43ZM48 778.43H36V778.43H48ZM71.6611 718.392L80.4328 726.58C83.7282 723.051 84.5866 717.889 82.6111 713.483L71.6611 718.392ZM64 682.43H52V682.43H64ZM112.015 604.017L117.475 614.703C121.557 612.617 124.094 608.388 124.013 603.804L112.015 604.017ZM112 602.43H100V602.43H112ZM176.125 517.707L179.374 529.259C184.324 527.867 187.837 523.476 188.108 518.341L176.125 517.707ZM242.617 437.047L245.524 448.69C249.826 447.616 253.186 444.256 254.26 439.953L242.617 437.047ZM328 370.43V358.43V358.43V370.43ZM329.587 370.444L329.375 382.442C333.958 382.524 338.187 379.986 340.273 375.904L329.587 370.444ZM408 322.43V334.43C437.522 334.43 463.134 351.26 475.726 375.904L486.412 370.444L497.098 364.984C480.564 332.626 446.885 310.43 408 310.43V322.43ZM486.412 370.444L486.624 382.442C487.091 382.434 487.549 382.43 488 382.43V370.43V358.43C487.39 358.43 486.789 358.436 486.2 358.446L486.412 370.444ZM488 370.43V382.43C523.588 382.43 553.489 406.902 561.739 439.953L573.382 437.047L585.025 434.14C574.17 390.657 534.865 358.43 488 358.43V370.43ZM573.382 437.047L570.476 448.69C603.527 456.94 628 486.841 628 522.43H640H652C652 475.565 619.773 436.259 576.288 425.404L573.382 437.047ZM640 522.43H628C628 522.867 627.995 523.321 627.986 523.804L639.984 524.017L651.982 524.229C651.993 523.657 652 523.053 652 522.43H640ZM639.984 524.017L634.524 534.703C659.169 547.295 676 572.907 676 602.43H688H700C700 563.545 677.803 529.864 645.444 513.331L639.984 524.017ZM688 602.43H676C676 602.867 675.995 603.321 675.986 603.804L687.984 604.017L699.982 604.229C699.993 603.657 700 603.053 700 602.43H688ZM687.984 604.017L682.524 614.703C707.169 627.295 724 652.907 724 682.43H736H748C748 643.545 725.803 609.864 693.444 593.331L687.984 604.017ZM736 682.43H724C724 693.515 721.632 704.016 717.388 713.483L728.338 718.392L739.288 723.301C744.888 710.809 748 696.967 748 682.43H736ZM728.338 718.392L719.566 726.581C732.253 740.17 740 758.382 740 778.43H752H764C764 752.064 753.78 728.06 737.11 710.203L728.338 718.392ZM752 778.43H740C740 820.403 705.974 854.43 664 854.43V866.43V878.43C719.228 878.43 764 833.658 764 778.43H752ZM664 866.43V854.43C648.689 854.43 634.468 849.913 622.553 842.144L615.999 852.196L609.445 862.248C625.139 872.482 643.893 878.43 664 878.43V866.43ZM615.999 852.196L609.445 842.144C597.53 849.913 583.31 854.43 568 854.43V866.43V878.43C588.107 878.43 606.859 872.481 622.553 862.248L615.999 852.196ZM568 866.43V854.43C546.221 854.43 526.598 845.283 512.726 830.589L504 838.826L495.274 847.064C513.491 866.36 539.345 878.43 568 878.43V866.43ZM504 838.826L495.274 830.589C481.402 845.283 461.779 854.43 440 854.43V866.43V878.43C468.655 878.43 494.509 866.36 512.726 847.064L504 838.826ZM440 866.43V854.43C421.616 854.43 404.786 847.917 391.641 837.062L384 846.314L376.359 855.567C393.645 869.843 415.835 878.43 440 878.43V866.43ZM384 846.314L376.359 837.062C363.214 847.917 346.384 854.43 328 854.43V866.43V878.43C352.165 878.43 374.355 869.843 391.641 855.567L384 846.314ZM328 866.43V854.43C309.616 854.43 292.786 847.917 279.641 837.062L272 846.314L264.359 855.567C281.645 869.843 303.835 878.43 328 878.43V866.43ZM272 846.314L264.359 837.062C251.214 847.917 234.384 854.43 216 854.43V866.43V878.43C240.165 878.43 262.355 869.843 279.641 855.567L272 846.314ZM216 866.43V854.43C203.539 854.43 191.812 851.44 181.462 846.149L176 856.834L170.538 867.519C184.191 874.498 199.653 878.43 216 878.43V866.43ZM176 856.834L170.538 846.149C160.188 851.44 148.461 854.43 136 854.43V866.43V878.43C152.347 878.43 167.809 874.498 181.462 867.519L176 856.834ZM136 866.43V854.43C94.0264 854.43 60 820.403 60 778.43H48H36C36 833.658 80.7715 878.43 136 878.43V866.43ZM48 778.43H60C60 758.382 67.7468 740.169 80.4328 726.58L71.6611 718.392L62.8894 710.203C46.2189 728.06 36 752.065 36 778.43H48ZM71.6611 718.392L82.6111 713.483C78.3672 704.016 76 693.515 76 682.43H64H52C52 696.967 55.1107 710.808 60.7112 723.301L71.6611 718.392ZM64 682.43H76C76 652.907 92.8301 627.295 117.475 614.703L112.015 604.017L106.555 593.331C74.196 609.864 52 643.545 52 682.43H64ZM112.015 604.017L124.013 603.804C124.005 603.337 124 602.88 124 602.43H112H100C100 603.04 100.006 603.64 100.017 604.229L112.015 604.017ZM112 602.43H124C124 567.62 147.413 538.247 179.374 529.259L176.125 517.707L172.876 506.155C130.837 517.978 100 556.587 100 602.43H112ZM176.125 517.707L188.108 518.341C189.894 484.578 213.746 456.622 245.524 448.69L242.617 437.047L239.711 425.404C197.894 435.843 166.494 472.584 164.142 517.073L176.125 517.707ZM242.617 437.047L254.26 439.953C262.51 406.902 292.412 382.43 328 382.43V370.43V358.43C281.136 358.43 241.829 390.656 230.974 434.141L242.617 437.047ZM328 370.43V382.43C328.45 382.43 328.908 382.434 329.375 382.442L329.587 370.444L329.799 358.446C329.21 358.436 328.61 358.43 328 358.43V370.43ZM329.587 370.444L340.273 375.904C352.865 351.26 378.478 334.43 408 334.43V322.43V310.43C369.115 310.43 335.435 332.626 318.901 364.984L329.587 370.444Z" fill="#1A1A1A"/>
</svg>
