<svg width="768" height="880" viewBox="0 0 768 880" fill="none" xmlns="http://www.w3.org/2000/svg">
<path d="M200.227 338.047C201.622 353.645 207.14 370.592 212.539 383.341C215.221 389.675 219.349 395.254 224.213 400.118L287.548 463.453C306.985 482.89 340.082 475.077 348.775 448.999C352.138 438.91 350.994 427.861 345.635 418.674L305.034 349.072C300.125 340.656 293.414 333.335 284.581 329.223C272.859 323.766 257.853 318.428 243.639 313.928C222.207 307.144 198.224 315.656 200.227 338.047Z" fill="url(#paint0_linear_1_9729)" stroke="#1A1A1A" stroke-width="24"/>
<path d="M154.705 356.269C201.585 372.654 267.546 434.075 306.886 476.431C323.155 493.947 326.177 519.422 316.284 541.185L297.504 582.502C293.942 590.338 288.082 596.906 280.702 601.334C263.724 611.521 241.804 608.617 228.59 593.872C117.834 470.279 108.266 391.991 126.51 363.175C132.309 354.016 144.472 352.692 154.705 356.269Z" fill="url(#paint1_linear_1_9729)" stroke="#1A1A1A" stroke-width="24"/>
<path d="M597.65 338.158C556.427 346.102 518.017 377.658 498.495 401.518L444.535 485.456C432.88 503.586 431.061 526.384 439.646 546.153C462.466 598.701 493.222 667.197 498.495 635.558C503.497 605.546 539.501 550.991 570.479 515.427C585.933 497.684 602.978 481.096 616.158 461.606C652.878 407.307 652.868 381.589 643.765 362.341C635.61 345.096 616.381 334.548 597.65 338.158Z" fill="url(#paint2_linear_1_9729)" stroke="#1A1A1A" stroke-width="24"/>
<path d="M337.43 863.941C156.654 863.941 192.163 705.223 232.515 621.829C254.507 576.377 283.158 522.493 300.322 492.836C303.485 487.371 306.12 481.539 306.869 475.27C312.568 427.526 271.842 385.822 280.936 355.506C298.267 297.738 384.516 297.861 453.846 311.476C491.48 318.867 506.75 360.842 489.472 395.083C479.798 414.255 469.962 433.896 455.107 461.364C447.032 476.294 444.895 493.83 449.877 510.056C460.014 543.07 469.28 568.645 474.627 581.477C505.887 656.501 527.46 687.935 535.595 739.563C540.886 773.143 532.521 809.464 506.374 831.188C463.394 866.899 406.823 863.941 337.43 863.941Z" fill="url(#paint3_linear_1_9729)" stroke="#1A1A1A" stroke-width="24"/>
<circle cx="312.816" cy="723.6" r="16.0801" fill="#1A1A1A"/>
<circle cx="441.943" cy="723.6" r="16.0801" fill="#1A1A1A"/>
<path d="M345.159 753.606C362.789 772.584 392.591 773.308 411.122 755.209L412.763 753.606" stroke="#1A1A1A" stroke-width="24" stroke-linecap="round"/>
<path d="M506.566 505.76C525.397 494.999 567.901 465.408 587.27 433.126" stroke="#538619" stroke-width="24" stroke-linecap="round"/>
<path d="M239.124 505.176C221.805 492.119 183.387 457.388 168.258 422.915" stroke="#538619" stroke-width="24" stroke-linecap="round"/>
<path d="M522.707 449.267C534.005 442.093 559.508 422.366 571.129 400.845" stroke="#538619" stroke-width="24" stroke-linecap="round"/>
<path d="M361.299 602.605C369.369 578.394 383.896 541.27 377.44 489.619C370.983 437.969 385.51 382.014 393.58 368.563" stroke="#538619" stroke-width="24" stroke-linecap="round"/>
<path d="M377.44 392.774C366.54 387.394 353.229 376.634 345.158 368.563" stroke="#538619" stroke-width="24" stroke-linecap="round"/>
<path d="M377.439 449.267C385.51 449.267 401.651 449.267 417.791 433.126" stroke="#538619" stroke-width="24" stroke-linecap="round"/>
<path d="M382.282 554.182C390.352 551.492 411.335 546.112 419.406 529.971M382.282 505.76C374.212 503.07 353.229 497.69 345.158 481.549" stroke="#538619" stroke-width="24" stroke-linecap="round"/>
<defs>
<linearGradient id="paint0_linear_1_9729" x1="206.814" y1="324.176" x2="288.512" y2="396.6" gradientUnits="userSpaceOnUse">
<stop stop-color="#78B136"/>
<stop offset="1" stop-color="#FFFBEB"/>
</linearGradient>
<linearGradient id="paint1_linear_1_9729" x1="122.556" y1="376.634" x2="220.648" y2="464.007" gradientUnits="userSpaceOnUse">
<stop stop-color="#78B136"/>
<stop offset="1" stop-color="#FFFBEB"/>
</linearGradient>
<linearGradient id="paint2_linear_1_9729" x1="643.763" y1="345.024" x2="514.609" y2="482.194" gradientUnits="userSpaceOnUse">
<stop stop-color="#78B136"/>
<stop offset="1" stop-color="#FFFBEB"/>
</linearGradient>
<linearGradient id="paint3_linear_1_9729" x1="369.541" y1="304" x2="369.712" y2="686.392" gradientUnits="userSpaceOnUse">
<stop stop-color="#78B136"/>
<stop offset="1" stop-color="#FFFBEB"/>
</linearGradient>
</defs>
</svg>
