<svg width="768" height="882" viewBox="0 0 768 882" fill="none" xmlns="http://www.w3.org/2000/svg">
<path d="M400.621 869.71C702.542 856.554 738.254 636.324 681.466 524.354C624.677 412.383 463.521 379.086 400.621 384.568C220.629 404.302 96.0125 445.198 66.474 589.781C26.9649 783.168 197.478 869.71 400.621 869.71Z" fill="#0768CF" stroke="#1A1A1A" stroke-width="24"/>
<ellipse cx="302.394" cy="602.841" rx="19.1343" ry="19.1398" fill="#1A1A1A"/>
<ellipse cx="462.348" cy="602.841" rx="19.1343" ry="19.1398" fill="#1A1A1A"/>
<path d="M346.773 646.795C367.75 669.381 403.217 670.243 425.266 648.702L427.218 646.795" stroke="#1A1A1A" stroke-width="24" stroke-linecap="round"/>
<path d="M519.918 758.028C581.059 665.074 575.529 569.262 560.669 499.137C556.718 480.493 570.058 462.843 585.954 473.357C619.998 495.873 651.307 556.323 666.352 624.933C670.896 645.653 670.957 667.554 662.468 686.994C637.909 743.232 581.2 779.892 538.603 795.559C509.42 806.292 502.83 784.007 519.918 758.028Z" fill="#034AC1"/>
<path d="M168.708 383.999H288L272 340.713L367.999 375.723L426.084 340.713L447.999 383.999L559.999 351.999L518.443 407.126L608.668 430.869L495.999 463.999L504.621 527.999L426.084 473.186L367.999 550.777L327.676 473.186L197.096 501.573L272 437.229L168.708 383.999Z" fill="#0768CF" stroke="#1A1A1A" stroke-width="24" stroke-linejoin="round"/>
<ellipse cx="382.371" cy="429.872" rx="64" ry="29.8721" fill="#034AC1"/>
</svg>
