<svg width="768" height="880" viewBox="0 0 768 880" fill="none" xmlns="http://www.w3.org/2000/svg">
<path d="M233.065 308.96L182.986 323.275L165.637 331.949L161.81 302.651L184.197 264.502L200.592 270.178L233.065 308.96Z" fill="#603A2A"/>
<path d="M230.685 301.315C227.697 291.995 217.89 278.071 202.398 264.491C189.108 252.841 170.848 259.17 168.816 276.726C166.775 294.359 167.053 314.259 171.931 324.304" stroke="#1A1A1A" stroke-width="24" stroke-linejoin="round"/>
<path d="M163.582 831.919C157.095 799.388 160.879 731.616 163.582 693.664H244.677C244.677 722.789 242.466 764.554 240.164 799.388C238.752 820.771 231.925 844.164 213.102 854.307C189.706 866.914 169.706 850.344 163.582 831.919Z" fill="#603A2A" stroke="#1A1A1A" stroke-width="24" stroke-linecap="round" stroke-linejoin="round"/>
<path d="M152.097 692.702V588.605L126.073 571.255L82.6989 553.906L56.6747 510.532L48 449.809L82.6989 397.761L152.097 337.038L230.169 293.664H299.567L368.965 337.038L438.363 432.46H455.712L533.785 467.159L600.878 503.267L651.356 564.748L660.031 660.17L639.06 762.099L620.532 831.497L585.833 840.172L455.712 857.521L421.013 831.497L277.86 837.204L238.844 814.148L178.121 762.099L152.097 692.702Z" fill="#EBB49D"/>
<path d="M368 837.664C368 837.664 454.747 846.339 480.771 837.664" stroke="#1A1A1A" stroke-width="24"/>
<path d="M204.145 587.852C218.025 490.695 91.3736 423.033 56.6747 440.382H48L56.6747 518.454L100.048 570.502L160.771 587.852L204.145 587.852Z" fill="#603A2A"/>
<circle cx="260.902" cy="410.566" r="12" fill="#1A1A1A" stroke="#1A1A1A" stroke-width="17.8036"/>
<circle cx="196.902" cy="394.566" r="12" fill="#1A1A1A" stroke="#1A1A1A" stroke-width="17.8036"/>
<path d="M398.073 816.532C384.193 802.653 340.241 804.966 320 807.858L328.675 859.906L357.929 868.581L389.398 842.557L398.073 816.532Z" fill="#603A2A"/>
<path d="M485.048 850.795C494.29 833.478 487.311 808.597 478.656 790.073L424.325 807.423L433 842.121L459.024 859.471L485.048 850.795Z" fill="#603A2A"/>
<path d="M295.175 554.752C275.005 569.923 230.666 582.801 197.952 590.331C181.874 594.032 165.113 594.284 149.205 589.91M149.205 589.91C31.7759 557.621 39.6864 467.921 60.0007 424.63C77.4266 387.494 146.509 344.252 193.102 315.594C207.097 306.987 221.514 298.502 237.682 295.576C275.525 288.728 311.946 301.795 327.613 310.773C354.559 332.704 383.661 361.608 425.095 421.518C433.788 434.086 446.432 443.293 461.032 447.81C519.516 465.905 634.159 509.299 657.233 595.415C678.799 675.9 652.661 724.495 620.478 827.627C616.713 839.693 606.36 848.586 593.818 850.157C556.433 854.84 503.181 861.053 473.129 863.103C462.659 863.818 451.495 863.49 443.133 857.149C424.959 843.365 426.435 816.008 441.145 804.76C444.013 802.568 447.855 800.535 452.852 798.731C465.169 796.02 494.667 790.598 514.13 790.598C489.819 752.646 461.466 671.862 542.539 652.344M149.205 589.91C146.502 664.939 132.986 839.394 319.503 839.394M319.503 839.394C313.016 806.864 316.8 739.092 319.503 701.139M319.503 839.394C325.624 857.809 345.603 874.37 368.982 861.804C387.858 851.658 394.673 828.247 396.086 806.864C398.387 772.029 400.598 730.265 400.598 701.139" stroke="#1A1A1A" stroke-width="24" stroke-linecap="round" stroke-linejoin="round"/>
<path d="M347.374 293.664L313.373 327.665C307.371 333.666 303.018 342.333 307.043 349.805C314.621 363.878 334.779 368.199 349.347 370.641C353.554 371.346 357.838 369.947 360.855 366.93C363.332 364.453 364.723 361.094 364.723 357.591V321.736C364.723 309.848 358.007 298.98 347.374 293.664Z" fill="#603A2A"/>
<path d="M288 344.302C297.046 332.213 313.789 311.882 330.156 296.654C343.495 284.245 361.552 292.418 362.7 310.601C364.112 332.946 361.686 360.156 348.723 381.761" stroke="#1A1A1A" stroke-width="24" stroke-linecap="round" stroke-linejoin="round"/>
</svg>
