<svg width="768" height="880" viewBox="0 0 768 880" fill="none" xmlns="http://www.w3.org/2000/svg">
<path d="M561.312 323.51C589.379 323.51 618.061 333.937 644.164 348.81C670.176 363.63 692.8 382.395 708.49 397.894C712.854 402.204 713.856 403.275 714.981 405.094C715.917 406.605 716.994 409.184 717.412 410.912C717.902 412.937 717.974 414.837 717.974 422.277V789.279C717.974 804.09 717.965 814.498 717.372 822.223C716.762 830.168 715.627 833.227 714.791 834.525C711.699 839.329 708.593 841.618 703.189 843.013L702.659 843.146C701.298 843.473 697.818 843.521 689.197 841.181C680.949 838.941 670.008 835.136 654.609 829.771C624.446 819.259 590.737 810.704 561.312 810.704C535.785 810.704 505.919 817.94 477.682 827.447C449.244 837.022 421.535 849.223 400.017 859.83C389.528 865 386.469 866.385 384.247 866.815C381.526 867.342 379.906 867.364 377.172 866.91H377.173C374.936 866.539 371.929 865.277 361.534 860.496C338.454 849.88 308.905 837.523 279.549 827.793C250.495 818.163 220.463 810.704 196.859 810.704C172.057 810.704 143.473 818.91 117.205 829.291C100.777 835.784 89.0371 840.416 80.2148 843.227C70.915 846.189 67.2218 846.279 65.9014 846.001C62.5252 845.289 60.3212 844.319 58.6396 843.176C56.9581 842.032 55.2465 840.339 53.3438 837.461C52.509 836.198 51.301 832.995 50.6572 824.443C50.0361 816.192 50.0273 805.021 50.0273 789.208V415.148C50.0273 410.63 50.0584 409.532 50.3164 408.031C50.4938 407 51.1791 404.649 51.584 403.684C52.2204 402.166 52.5263 401.667 54.0283 399.31C73.0474 369.466 120.612 323.51 196.859 323.51C282.66 323.51 349.341 381.625 371.61 410.535L379.986 421.409L389.644 411.657C404.12 397.039 430.491 374.768 461.859 356.229C493.417 337.579 528.688 323.51 561.312 323.51Z" fill="#E6E6E6" stroke="#1A1A1A" stroke-width="24"/>
<path d="M381.371 414.357V867.156" stroke="#1A1A1A" stroke-width="24" stroke-linecap="round" stroke-linejoin="round"/>
<circle cx="191.992" cy="552.756" r="16" fill="#1A1A1A"/>
<circle cx="287.992" cy="552.756" r="16" fill="#1A1A1A"/>
<path d="M175.992 601.688C189.851 646.632 253.591 646.219 268.725 601.688" stroke="#1A1A1A" stroke-width="24" stroke-linecap="round"/>
<circle cx="16" cy="16" r="16" transform="matrix(-1 0 0 1 591.992 536.756)" fill="#1A1A1A"/>
<circle cx="16" cy="16" r="16" transform="matrix(-1 0 0 1 495.992 536.756)" fill="#1A1A1A"/>
<path d="M591.992 601.688C578.133 646.632 514.392 646.219 499.259 601.688" stroke="#1A1A1A" stroke-width="24" stroke-linecap="round"/>
</svg>
