<svg width="768" height="880" viewBox="0 0 768 880" fill="none" xmlns="http://www.w3.org/2000/svg">
<path d="M186.207 371.564C205.091 318.082 354.076 291.1 426.207 284.295C434.65 294.626 451.535 325.09 451.535 364.295C451.535 413.3 603.159 393.506 612.48 428.295C619.938 456.126 598.072 482.558 586.207 492.295C606.593 494.684 649.879 508.848 659.939 546.39C669.998 583.932 654.501 621.969 645.495 636.295C666.129 655.16 707.397 664.491 707.397 716.295C707.397 757.759 673.629 829.084 577.403 854.868C500.421 875.495 423.197 856.414 394.207 844.295C296.039 856.327 93.4809 857.172 68.5946 764.295C43.7083 671.418 125.968 608.263 170.208 588.295C148.875 585.916 106.208 569.786 106.208 524.295C106.208 478.804 159.541 462.674 186.207 460.295C178.339 453.002 167.323 425.047 186.207 371.564Z" fill="#D4693B"/>
<path d="M236.923 585.886L283.601 552.021C296.152 542.916 290.001 518.435 275.638 512.595C234.976 496.063 197.8 463.809 183.064 444.406L192.782 459.664L111.674 493.035V555.011L162.208 594.103L78.3029 662.753L64 766.68L128.835 827.702L305.226 856.306C331.606 853.128 397.324 854.149 397.324 816.011C397.324 764.523 169.014 818.168 169.014 701.331C169.014 667.377 214.287 610.22 236.923 585.886Z" fill="#864E37"/>
<path d="M615.037 572.832C615.037 543.004 598.134 506.712 589.682 492.295L639.696 507.441L667.013 544.563L661.598 623.742C657.907 627.213 640.224 627.839 610.979 644.724C574.423 665.83 480 667.545 480 634.918C480 602.291 615.037 610.118 615.037 572.832Z" fill="#864E37"/>
<path d="M186.207 371.564C205.091 318.082 341.457 284.295 426.207 284.295C457.924 292.794 451.535 325.09 451.535 364.295C451.535 413.3 603.159 393.506 612.48 428.295C619.938 456.126 598.072 482.558 586.207 492.295C606.593 494.684 649.879 508.848 659.939 546.39C669.998 583.932 654.501 621.969 645.495 636.295C666.129 655.16 707.397 664.491 707.397 716.295C707.397 757.759 673.629 829.084 577.403 854.868C500.421 875.495 423.197 856.414 394.207 844.295C296.039 856.327 93.4809 857.172 68.5946 764.295C43.7083 671.418 125.968 608.263 170.208 588.295C148.875 585.916 106.208 569.786 106.208 524.295C106.208 478.804 159.541 462.674 186.207 460.295C178.339 453.002 167.323 425.047 186.207 371.564Z" stroke="#1A1A1A" stroke-width="24" stroke-linejoin="round"/>
<circle cx="282.349" cy="550.644" r="26.3488" fill="#1A1A1A"/>
<circle cx="490.349" cy="550.644" r="26.3488" fill="#1A1A1A"/>
<path d="M336 579.57C364.889 610.666 413.723 611.853 444.088 582.196L446.776 579.57" stroke="#1A1A1A" stroke-width="24" stroke-linecap="round"/>
</svg>
