<svg width="768" height="880" viewBox="0 0 768 880" fill="none" xmlns="http://www.w3.org/2000/svg">
<mask id="path-1-inside-1_1_9731" fill="white">
<path d="M65.9283 740.573V326.696C64.6488 316.997 66.7843 297.6 85.562 297.6C109.034 297.6 150.961 335.284 150.961 382.691H186.088C192.288 348.785 221.789 297.6 249.424 297.6C283.968 297.6 268.025 407.545 268.025 418.131C268.025 426.6 279.847 430.313 283.39 443.968L636.203 640.804C636.203 698.518 737.927 742.912 737.927 761.641C737.927 776.625 691.87 779.954 668.841 779.746C688.064 789.527 726.51 814.083 726.51 834.061C726.51 859.033 683.258 873.599 647.816 873.599C612.373 873.599 540.287 852.79 525.269 852.79C510.251 852.79 452.582 874.666 381.698 874.666C310.813 874.666 203.885 834.061 193.927 834.061C183.97 834.061 91.8357 895.685 33.9286 874.666C18.8253 869.184 52.0104 773.52 65.9283 740.573Z"/>
</mask>
<path d="M65.9283 740.573V326.696C64.6488 316.997 66.7843 297.6 85.562 297.6C109.034 297.6 150.961 335.284 150.961 382.691H186.088C192.288 348.785 221.789 297.6 249.424 297.6C283.968 297.6 268.025 407.545 268.025 418.131C268.025 426.6 279.847 430.313 283.39 443.968L636.203 640.804C636.203 698.518 737.927 742.912 737.927 761.641C737.927 776.625 691.87 779.954 668.841 779.746C688.064 789.527 726.51 814.083 726.51 834.061C726.51 859.033 683.258 873.599 647.816 873.599C612.373 873.599 540.287 852.79 525.269 852.79C510.251 852.79 452.582 874.666 381.698 874.666C310.813 874.666 203.885 834.061 193.927 834.061C183.97 834.061 91.8357 895.685 33.9286 874.666C18.8253 869.184 52.0104 773.52 65.9283 740.573Z" fill="#FFF1C2"/>
<path d="M65.9283 326.696H89.9283V325.12L89.7221 323.557L65.9283 326.696ZM65.9283 740.573L88.0366 749.912L89.9283 745.434V740.573H65.9283ZM33.9286 874.666L25.7399 897.226H25.7399L33.9286 874.666ZM525.269 852.79L525.269 876.79H525.269V852.79ZM668.841 779.746L669.058 755.747C657.918 755.646 648.174 763.224 645.528 774.045C642.882 784.865 648.029 796.085 657.957 801.136L668.841 779.746ZM636.203 640.804H660.203V626.711L647.896 619.845L636.203 640.804ZM150.961 382.691H126.961V406.691H150.961V382.691ZM186.088 382.691V406.691H206.097L209.696 387.008L186.088 382.691ZM283.39 443.968L260.159 449.995L262.736 459.927L271.697 464.927L283.39 443.968ZM65.9283 326.696H41.9283V740.573H65.9283H89.9283V326.696H65.9283ZM65.9283 740.573L43.8199 731.234C36.4939 748.577 24.3855 781.66 15.9568 811.368C11.783 826.08 8.19515 841.048 6.76355 853.234C6.07239 859.117 5.66711 866.007 6.69561 872.46C7.47257 877.334 10.6833 891.761 25.7399 897.226L33.9286 874.666L42.1172 852.106C47.5981 854.096 50.8436 857.871 52.4293 860.616C53.8309 863.043 54.0881 864.847 54.0972 864.904C54.104 864.947 53.9222 863.206 54.4357 858.835C55.4134 850.512 58.1599 838.478 62.1342 824.47C70.0017 796.739 81.4448 765.517 88.0366 749.912L65.9283 740.573ZM33.9286 874.666L25.7399 897.226C45.5332 904.41 66.7244 904.057 85.9016 900.863C105.239 897.641 124.304 891.227 140.927 884.487C157.62 877.718 172.606 870.304 183.568 864.845C189.235 862.023 193.431 859.924 196.572 858.483C198.143 857.763 198.969 857.432 199.276 857.321C200.445 856.899 197.893 858.061 193.927 858.061V834.061V810.061C188.717 810.061 184.278 811.703 182.976 812.174C180.811 812.956 178.58 813.928 176.566 814.852C172.536 816.699 167.448 819.25 162.172 821.877C151.249 827.316 137.714 833.994 122.891 840.004C107.998 846.043 92.5492 851.094 78.0138 853.515C63.3183 855.963 51.2775 855.431 42.1172 852.106L33.9286 874.666ZM193.927 834.061V858.061C191.663 858.061 190.375 857.655 191.726 857.953C192.474 858.118 193.706 858.427 195.551 858.937C199.225 859.953 204.202 861.449 210.524 863.369C222.971 867.15 239.808 872.326 258.589 877.501C295.561 887.69 342.739 898.666 381.698 898.666V874.666V850.666C349.771 850.666 308.043 841.34 271.341 831.226C253.284 826.25 237.092 821.274 224.475 817.441C218.264 815.555 212.7 813.878 208.344 812.674C206.174 812.073 204.018 811.51 202.071 811.081C200.727 810.784 197.437 810.061 193.927 810.061V834.061ZM381.698 874.666V898.666C419.53 898.666 453.526 892.834 479.532 887.18C492.409 884.38 503.784 881.515 512.02 879.557C516.282 878.544 519.592 877.798 522.17 877.309C525.041 876.764 525.752 876.79 525.269 876.79L525.269 852.79L525.269 828.79C518.054 828.79 508.475 831.062 500.917 832.859C491.901 835.003 481.613 837.606 469.335 840.276C445.031 845.56 414.75 850.666 381.698 850.666V874.666ZM525.269 852.79V876.79C525.055 876.79 526.179 876.823 529.518 877.369C532.502 877.857 536.307 878.591 540.903 879.543C550.321 881.493 561.223 883.961 573.865 886.664C597.609 891.741 627.082 897.599 647.816 897.599V873.599V849.599C633.107 849.599 608.816 845.053 583.902 839.725C572.215 837.226 560.064 834.492 550.634 832.54C542.058 830.764 532.023 828.79 525.269 828.79V852.79ZM647.816 873.599V897.599C668.314 897.599 691.393 893.471 710.187 885.132C726.97 877.686 750.51 861.935 750.51 834.061H726.51H702.51C702.51 831.158 704.423 835.177 690.72 841.257C679.028 846.445 662.76 849.599 647.816 849.599V873.599ZM726.51 834.061H750.51C750.51 821.623 744.723 811.294 739.479 804.224C733.966 796.792 726.939 790.132 720.108 784.526C706.408 773.284 690.424 763.8 679.724 758.356L668.841 779.746L657.957 801.136C666.481 805.473 679.331 813.157 689.659 821.633C694.843 825.886 698.629 829.722 700.926 832.819C703.491 836.277 702.51 836.509 702.51 834.061H726.51ZM668.841 779.746L668.624 803.745C681.006 803.857 699.953 803.049 716.412 799.985C724.418 798.495 733.602 796.164 741.384 792.144C748.008 788.723 761.927 779.566 761.927 761.641H737.927H713.927C713.927 751.208 722.089 748.086 719.358 749.497C717.785 750.309 714.015 751.607 707.628 752.796C695.301 755.09 679.704 755.843 669.058 755.747L668.841 779.746ZM737.927 761.641H761.927C761.927 749.627 754.573 740.946 751.469 737.465C747.326 732.82 742.089 728.321 737.107 724.299C731.996 720.174 726.083 715.71 720.264 711.287C714.312 706.763 708.226 702.109 702.196 697.212C689.979 687.29 679.017 677.173 671.218 666.894C663.391 656.576 660.203 648.01 660.203 640.804H636.203H612.203C612.203 662.455 621.731 681.081 632.977 695.905C644.252 710.766 658.721 723.74 671.935 734.472C678.621 739.902 685.25 744.965 691.219 749.502C697.32 754.139 702.533 758.078 706.959 761.651C711.513 765.327 714.223 767.819 715.644 769.412C718.103 772.17 713.927 768.973 713.927 761.641H737.927ZM65.9283 326.696L89.7221 323.557C89.6327 322.879 89.5737 321.693 89.6999 320.412C89.7593 319.81 89.8484 319.305 89.9435 318.915C89.9899 318.725 90.0331 318.581 90.0669 318.48C90.1007 318.38 90.1209 318.335 90.1187 318.34C90.1186 318.34 89.6222 319.42 88.1343 320.459C87.4115 320.964 86.69 321.287 86.0963 321.463C85.5233 321.632 85.293 321.6 85.562 321.6V297.6V273.6C76.5244 273.6 67.9462 276.011 60.6507 281.106C53.5212 286.085 49.05 292.62 46.3287 298.682C41.1951 310.118 41.1343 322.254 42.1344 329.835L65.9283 326.696ZM85.562 297.6V321.6C85.5536 321.6 88.2872 321.826 93.4723 324.891C98.2864 327.736 103.793 332.213 108.994 338.164C119.524 350.209 126.961 366.078 126.961 382.691H150.961H174.961C174.961 351.897 161.435 325.221 145.133 306.572C136.919 297.176 127.542 289.27 117.894 283.567C108.616 278.084 97.3066 273.6 85.562 273.6V297.6ZM150.961 382.691V406.691H186.088V382.691V358.691H150.961V382.691ZM186.088 382.691L209.696 387.008C212.121 373.747 219.592 355.564 229.553 340.943C234.473 333.72 239.362 328.32 243.613 324.964C248.052 321.459 249.939 321.6 249.424 321.6V297.6V273.6C235.092 273.6 222.928 280.139 213.869 287.291C204.622 294.591 196.567 304.107 189.883 313.918C176.634 333.366 166.255 357.728 162.479 378.374L186.088 382.691ZM249.424 297.6V321.6C241.362 321.6 241.413 314.06 244.053 322.282C246.283 329.227 247.521 340.363 247.68 354.173C247.834 367.497 246.986 381.39 246.054 392.896C245.59 398.632 245.118 403.631 244.743 407.722C244.435 411.078 244.025 415.408 244.025 418.131H268.025H292.025C292.025 418.208 292.113 416.786 292.542 412.104C292.904 408.156 293.407 402.828 293.898 396.769C294.876 384.683 295.855 369.105 295.677 353.619C295.504 338.62 294.25 321.607 289.754 307.607C285.669 294.883 274.758 273.6 249.424 273.6V297.6ZM268.025 418.131H244.025C244.025 426.367 247.054 432.76 249.934 437.097C252.396 440.805 255.562 444.1 256.717 445.355C259.845 448.755 259.992 449.353 260.159 449.995L283.39 443.968L306.62 437.94C303.244 424.928 295.708 416.842 292.041 412.855C289.796 410.416 289.786 410.341 289.921 410.544C290.473 411.376 292.025 414.13 292.025 418.131H268.025ZM283.39 443.968L271.697 464.927L624.51 661.763L636.203 640.804L647.896 619.845L295.083 423.009L283.39 443.968Z" fill="#1A1A1A" mask="url(#path-1-inside-1_1_9731)"/>
<path d="M682.996 534.66C682.996 588.304 656.73 615.194 629.459 646.928C644.411 674.061 635.816 759.451 473.555 759.451C311.294 759.451 241.928 682.076 241.928 565.349C241.928 448.621 332.978 353.995 445.295 353.995C557.612 353.995 682.996 417.932 682.996 534.66Z" fill="#EBB49D"/>
<ellipse cx="111.269" cy="462.024" rx="12.7398" ry="13.2401" fill="#1A1A1A"/>
<ellipse cx="213.188" cy="462.024" rx="12.7398" ry="13.2401" fill="#1A1A1A"/>
<path d="M136.748 486.48C150.551 501.921 174.524 502.503 189.059 487.749L190.309 486.48" stroke="#1A1A1A" stroke-width="24" stroke-linecap="round"/>
<path d="M417.928 749.894C359.261 748.16 241.928 713.071 241.928 586.584C241.928 428.477 336.72 349.422 465.928 349.422C595.135 349.422 683.213 438.275 683.213 541.035C683.213 643.795 598.725 666.488 523.182 666.488C447.64 666.488 423.644 612.917 432.532 563.965C441.419 515.012 523.182 496.54 535.625 563.965" stroke="#1A1A1A" stroke-width="24" stroke-linecap="round"/>
</svg>
