<svg width="768" height="880" viewBox="0 0 768 880" fill="none" xmlns="http://www.w3.org/2000/svg">
<path d="M256 316C314.479 316 374.536 341.747 420.026 382.662C465.516 423.576 495.318 478.601 495.318 536.264C495.318 592.985 462.476 640.591 413.239 674.542C363.954 708.526 299.519 727.796 240 727.796C180.751 727.796 131.916 708.722 97.9609 675.806C64.0475 642.929 44 595.301 44 536.264C44 418.61 139.471 316 256 316Z" fill="#92DA40" stroke="#1A1A1A" stroke-width="24" stroke-linejoin="round"/>
<path d="M480 428C557.498 428 616.172 452.219 655.404 490.227C694.655 528.253 715.423 581.016 715.423 640C715.423 757.72 613.978 867.489 497.512 867.489C439.357 867.489 381.886 840.203 338.801 797.604C295.716 755.004 268 698.067 268 640C268 522.916 362.916 428 480 428Z" fill="#92DA40" stroke="#1A1A1A" stroke-width="24" stroke-linejoin="round"/>
<circle cx="160.861" cy="464.861" r="16.8613" fill="#1A1A1A"/>
<circle cx="240.861" cy="464.861" r="16.8613" fill="#1A1A1A"/>
<path d="M128 507.701C146.487 527.6 177.737 528.359 197.168 509.381L198.889 507.701" stroke="#1A1A1A" stroke-width="24" stroke-linecap="round"/>
<circle cx="16.8613" cy="16.8613" r="16.8613" transform="matrix(-1 0 0 1 656 592)" fill="#1A1A1A"/>
<circle cx="16.8613" cy="16.8613" r="16.8613" transform="matrix(-1 0 0 1 576 592)" fill="#1A1A1A"/>
<path d="M656 667.701C634.744 688.221 601.31 689.03 579.087 669.563L576.96 667.701" stroke="#1A1A1A" stroke-width="24" stroke-linecap="round"/>
<mask id="path-9-inside-1_1_9745" fill="white">
<path fill-rule="evenodd" clip-rule="evenodd" d="M466.395 416.407C491.822 451.884 507.318 493.153 507.318 536.264C507.318 646.818 392.633 722.317 279.949 737.126C264.737 706.791 256 673.69 256 640C256 520.857 349.018 423.44 466.395 416.407Z"/>
</mask>
<path fill-rule="evenodd" clip-rule="evenodd" d="M466.395 416.407C491.822 451.884 507.318 493.153 507.318 536.264C507.318 646.818 392.633 722.317 279.949 737.126C264.737 706.791 256 673.69 256 640C256 520.857 349.018 423.44 466.395 416.407Z" fill="#78B136"/>
<path d="M466.395 416.407L485.902 402.426C481.098 395.724 473.19 391.957 464.959 392.45L466.395 416.407ZM507.318 536.264L531.318 536.264V536.264H507.318ZM279.949 737.126L258.496 747.885C263.077 757.021 272.943 762.253 283.077 760.921L279.949 737.126ZM256 640H232V640H256ZM466.395 416.407L446.888 430.389C469.92 462.524 483.318 499.003 483.318 536.264H507.318H531.318C531.318 487.303 513.723 441.243 485.902 402.426L466.395 416.407ZM507.318 536.264L483.318 536.264C483.318 582.445 459.536 622.64 420.807 653.931C381.904 685.363 329.345 706.428 276.822 713.331L279.949 737.126L283.077 760.921C343.237 753.015 404.363 728.926 450.973 691.268C497.758 653.468 531.318 600.637 531.318 536.264L507.318 536.264ZM279.949 737.126L301.403 726.367C287.66 698.964 280 669.523 280 640H256H232C232 677.856 241.813 714.618 258.496 747.885L279.949 737.126ZM256 640H280C280 533.631 363.051 446.642 467.83 440.364L466.395 416.407L464.959 392.45C334.985 400.237 232 508.083 232 640H256Z" fill="#1A1A1A" mask="url(#path-9-inside-1_1_9745)"/>
</svg>
