<svg width="768" height="880" viewBox="0 0 768 880" fill="none" xmlns="http://www.w3.org/2000/svg">
<path d="M32 611.053C32 534.849 32 483.054 112 355.054C158.563 288.535 448.486 266.264 609.262 315.833C664.685 332.921 698.607 383.89 711.164 440.512C725.897 506.953 737.852 590.921 735.168 672.849C731.758 776.905 642.926 845.928 538.981 851.824C439.655 857.457 313.664 858.915 204.931 846.744C154.088 841.054 103.698 820.557 76.0156 777.534C40.4888 722.319 32 659.612 32 611.053Z" fill="#92DA40"/>
<circle cx="307.14" cy="660.058" r="19.1398" fill="#1A1A1A"/>
<circle cx="467.14" cy="660.058" r="19.1398" fill="#1A1A1A"/>
<path d="M352 695.713C372.985 718.301 408.458 719.163 430.515 697.621L432.468 695.713" stroke="#1A1A1A" stroke-width="24" stroke-linecap="round"/>
<path d="M128 464.918L112 344.918L136 320.918L176 304.918L312 288.918H488L616 312.918L696 368.918V432.918L670.708 507.54L584 448.918L520 536.918L444.641 483.735L372.231 536.918L304 464.918L241.307 530.919L200.621 434.091L128 464.918Z" fill="#FDEECE"/>
<path d="M117.754 349.564C96.5101 384.528 115.069 452.436 128.246 469.415C130.319 472.087 133.856 472.679 137.057 471.588C149.817 467.238 170.467 454.373 189.679 441.05C199.774 434.049 214.271 440.022 216.456 452.112C221.005 477.276 227.837 510.585 232.777 527.626C234.464 533.446 240.002 536.5 244.952 533.003C259.937 522.416 283.664 492.895 303.856 476.216C306.525 474.012 309.945 473.31 312.5 475.646C324.108 486.254 349.933 524.936 367.096 540.311C370.124 543.023 374.321 543.924 377.933 542.058C393.208 534.165 418.121 507.643 435.73 489.407C440.631 484.332 448.307 483.201 453.97 487.409C475.309 503.265 504.118 534.197 518.596 542.264C521.896 544.102 525.703 542.975 528.272 540.206C541.433 526.022 564.988 488.463 580.572 466.771C584.826 460.851 592.58 459.223 598.48 463.507C616.773 476.79 645.804 503.085 667.148 509.627C672.521 511.274 677.792 508.187 680.147 503.084C691.023 479.528 711.138 420.714 690.28 385.951" stroke="#1A1A1A" stroke-width="24"/>
<path d="M400 332.918C443.351 332.918 482.135 338.205 509.688 346.471C523.542 350.627 533.879 355.337 540.484 360.022C547.401 364.928 548 368.108 548 368.918C548 369.728 547.401 372.907 540.484 377.813C533.879 382.499 523.542 387.209 509.688 391.365C482.135 399.631 443.351 404.918 400 404.918C356.649 404.918 317.865 399.631 290.312 391.365C276.458 387.209 266.121 382.499 259.516 377.813C252.599 372.907 252 369.728 252 368.918C252 368.108 252.599 364.928 259.516 360.022C266.121 355.337 276.458 350.627 290.312 346.471C317.865 338.205 356.649 332.918 400 332.918Z" fill="#3C670C" stroke="#1A1A1A" stroke-width="24"/>
<ellipse cx="174.545" cy="691.827" rx="46.5455" ry="34.9091" fill="#FFC7C2"/>
<ellipse cx="590.545" cy="691.827" rx="46.5455" ry="34.9091" fill="#FFC7C2"/>
<path d="M32 617.315C32 539.63 32 486.828 112 356.34C158.656 288.392 449.64 265.733 610.219 316.659C665.11 334.067 698.33 385.021 710.684 441.266C725.787 510.019 738.126 597.623 735.081 682.848C731.354 787.196 642.716 856.788 538.475 862.795C439.51 868.497 314.195 869.965 205.859 857.693C154.413 851.866 103.56 830.722 75.9481 786.925C40.478 730.663 32 666.787 32 617.315Z" stroke="#1A1A1A" stroke-width="24"/>
<path d="M283.699 248.68L330.064 237.243L375.708 392.234C375.708 392.234 359.055 392.384 348.458 391.94C339.221 391.553 324.922 390.311 324.922 390.311L283.699 248.68Z" fill="#78B136"/>
</svg>
