<svg width="768" height="880" viewBox="0 0 768 880" fill="none" xmlns="http://www.w3.org/2000/svg">
<path d="M392.454 312.8C309.562 312.8 220.273 340.48 151.933 395.91C83.8902 451.099 36.3263 533.971 36.3262 645.702C36.3262 760.404 60.1105 809.903 86.2979 831.726C109.042 850.679 135.814 851.179 160.971 850.953V789.859C150.663 790.493 139.079 790.539 128.78 788.865C121.29 787.648 113.239 785.34 106.799 780.673C99.7824 775.588 95.0195 767.874 95.0195 757.814C95.0197 727.196 109.335 708.437 126.918 697.978C143.651 688.024 162.555 685.961 172.971 685.961C183.435 685.961 210.383 686.718 234.132 713.17C256.3 737.862 273.878 782.972 275.438 864.8H380.454V782.734C380.454 779.271 381.95 775.977 384.558 773.698C387.166 771.42 390.632 770.378 394.063 770.843H394.065C394.068 770.843 394.074 770.845 394.081 770.846C394.096 770.848 394.12 770.85 394.152 770.855C394.217 770.863 394.318 770.877 394.45 770.895C394.715 770.93 395.113 770.981 395.63 771.048C396.665 771.181 398.179 771.374 400.075 771.604C403.871 772.064 409.186 772.675 415.25 773.281C427.492 774.506 442.355 775.662 453.916 775.579H453.917C465.121 775.499 479.472 774.336 491.255 773.153C497.097 772.567 502.216 771.986 505.872 771.552C507.699 771.335 509.157 771.155 510.154 771.029C510.653 770.967 511.037 770.918 511.293 770.885C511.421 770.868 511.517 770.856 511.58 770.848C511.611 770.844 511.635 770.841 511.649 770.839C511.657 770.838 511.662 770.837 511.665 770.837C511.666 770.837 511.668 770.836 511.668 770.836H511.667C515.092 770.387 518.546 771.437 521.143 773.715C523.739 775.993 525.228 779.28 525.228 782.734V864.8H633.483C656.63 816.195 697.484 703.33 697.484 592.284C697.484 450.986 557.279 312.8 392.454 312.8Z" fill="#B3B3B3" stroke="#1A1A1A" stroke-width="24" stroke-linecap="round" stroke-linejoin="round"/>
<path d="M239.332 430.381C244.792 410.101 277.613 364.056 327.223 364.056C357.394 364.056 424.326 376.14 424.326 476.764C424.326 577.387 331.734 644.594 287.586 636.074C243.439 627.554 227.54 571.251 239.332 522.522" stroke="#1A1A1A" stroke-width="24" stroke-linecap="round"/>
<circle cx="16" cy="16" r="16" transform="matrix(-1 0 0 1 200.326 576.792)" fill="#1A1A1A"/>
<circle cx="16" cy="16" r="16" transform="matrix(-1 0 0 1 98.4082 576.792)" fill="#1A1A1A"/>
<path d="M151.867 649.831C161.068 659.93 160.346 675.574 150.253 684.782L145.368 689.239" stroke="#1A1A1A" stroke-width="24" stroke-linecap="round"/>
<path d="M696 560C712 569.309 762.731 614.106 739.549 714.458" stroke="#1A1A1A" stroke-width="24" stroke-linecap="round"/>
<path d="M743.496 716.213C744.343 722.046 746.629 727.335 747.748 733.079C748.879 738.886 749.319 744.827 750.692 750.594C751.6 754.41 751.673 758.363 751.673 762.27" stroke="#1A1A1A" stroke-width="24" stroke-linecap="round"/>
<path d="M739.027 716.213C738.21 722.777 737.491 729.243 735.857 735.267C735.272 737.423 734.754 739.575 734.233 741.783C733.428 745.199 732.835 748.918 732.353 752.539C731.838 756.402 731.693 760.424 731.345 764.342C731.096 767.144 730.897 769.983 730.71 772.797" stroke="#1A1A1A" stroke-width="24" stroke-linecap="round"/>
<path d="M737.673 713.918C737.626 714.536 736.391 715.368 736.013 715.704C734.856 716.737 733.789 717.853 732.664 718.925C730.495 720.991 728.376 723.008 726.334 725.234C723.153 728.699 719.8 731.714 716.336 734.787C714.675 736.26 713.866 737.611 712.998 739.743C712.185 741.74 711.907 743.928 710.924 745.86C710.417 746.857 709.897 747.979 709.646 749.075" stroke="#1A1A1A" stroke-width="24" stroke-linecap="round"/>
</svg>
