<svg width="768" height="880" viewBox="0 0 768 880" fill="none" xmlns="http://www.w3.org/2000/svg">
<path d="M455.569 786.83C462.254 767.671 470.609 717.111 473.95 694.226L582.568 666.998C585.075 678.44 585.277 706.36 582.568 724.562C578.176 754.069 563.753 789.121 558.182 808.014L467.264 861.072H421.311C429.944 844.308 448.884 805.989 455.569 786.83Z" fill="#034AC1"/>
<path d="M455.569 786.83C462.254 767.671 470.609 717.111 473.95 694.226L582.568 666.998C585.075 678.44 585.277 706.36 582.568 724.562C578.176 754.069 563.753 789.121 558.182 808.014L467.264 861.072H421.311C429.944 844.308 448.884 805.989 455.569 786.83Z" fill="black" fill-opacity="0.15"/>
<path d="M310.157 790.063C313.64 777.065 322.199 748.189 325.34 732.852L480.164 695.386C475.389 715.588 464.737 760.401 460.329 778.032C455.921 795.663 437.555 840.108 428.923 860.127L369.969 868.391L287.873 848.556C294.319 836.157 306.674 803.061 310.157 790.063Z" fill="#FFCD29"/>
<path d="M154.289 628.341L139.394 432.084L121.873 463.625L90.3301 542.478L104.348 682.662L194.591 807.95L298.852 858.767L307.613 821.969L154.289 628.341Z" fill="#FFC21A"/>
<path d="M322.076 734.677C316.248 731.312 253.164 649.314 222.35 608.735C290.483 592.587 435.676 557.897 471.383 548.33C507.091 538.762 619.99 534.845 671.977 534.083V567.705V621.843L656.59 662.873H640.634C634.707 662.873 491.802 696.037 322.076 734.677Z" fill="#034AC1"/>
<path d="M205.006 417.001C198.638 440.768 195.035 488.736 194.029 509.749L217.079 504.261L385.015 437.307L629.783 448.832L555.694 370.352L445.933 317.117H340.012L224.763 364.864C220.831 372.34 211.374 393.234 205.006 417.001Z" fill="#034AC1"/>
<path d="M599.882 425.992C470.737 356.314 257.127 439.958 193.545 509.802C195.767 530.167 204.654 578.672 222.427 609.775C357.946 576.08 497.256 544.676 670.394 534.902C667.063 505.28 638.095 443.765 599.882 425.992Z" fill="#F5F5F5"/>
<path d="M212.145 579.997C180.329 503.748 202.259 404.755 224.767 359.376L179.215 386.816C149.683 416.133 101.84 499.705 125.431 604.693C158.889 753.59 244.758 816.592 294.312 845.906L326.846 733.663C293.919 698.54 240.204 647.242 212.145 579.997Z" fill="#E6E6E6"/>
<path d="M623.8 661.845C611.601 664.099 594.083 668.27 582.219 673.06C584.108 691.483 582.918 708.506 580.03 730.84C577.143 753.174 568.736 777.911 556.517 804.581L631.837 726.689L659.214 659.274H656.134C650.431 659.274 635.644 659.656 623.8 661.845Z" fill="#FFCD29"/>
<path opacity="0.15" d="M388.401 317.113C285.783 317.113 195.99 369.121 146.798 446.826C197.929 397.14 269.361 366.285 348.401 366.285C503.872 366.285 629.907 485.661 629.907 632.919C629.907 682.979 615.342 729.818 590.006 769.839C639.448 721.793 669.907 656.139 669.907 583.747C669.907 436.489 543.872 317.113 388.401 317.113Z" fill="white"/>
<path opacity="0.14" fill-rule="evenodd" clip-rule="evenodd" d="M138.523 730.926C102.359 672.794 88.8667 607.282 95.7679 545.519C97.8566 526.825 122.944 533.609 125.233 552.28C130.243 593.133 144.159 633.918 167.601 671.601C249.725 803.612 417.662 847.572 542.699 769.786C555.127 762.055 572.573 775.51 563.411 786.923C560.457 790.602 557.406 794.214 554.258 797.757C542.012 809.362 528.451 819.886 513.621 829.112C388.584 906.897 220.647 862.937 138.523 730.926Z" fill="#3C670C"/>
<path d="M380.229 316C542.115 316 672.229 440.172 672.229 592C672.228 743.827 542.115 868 380.229 868C218.342 868 88.2285 743.827 88.2285 592C88.2285 440.172 218.342 316 380.229 316Z" stroke="#1A1A1A" stroke-width="24"/>
<circle cx="353.094" cy="473.342" r="12" transform="rotate(-6.84496 353.094 473.342)" fill="#1A1A1A" stroke="#1A1A1A" stroke-width="7.83502"/>
<circle cx="479.527" cy="458.166" r="12" transform="rotate(-6.84496 479.527 458.166)" fill="#1A1A1A" stroke="#1A1A1A" stroke-width="7.83502"/>
<path d="M388.206 498.74C407.772 515.312 437.149 512.507 453.226 492.533L454.65 490.764" stroke="#1A1A1A" stroke-width="24" stroke-linecap="round"/>
</svg>
