<svg width="768" height="880" viewBox="0 0 768 880" fill="none" xmlns="http://www.w3.org/2000/svg">
<path d="M309.075 843.854C237.95 746.148 155.928 506.73 109.223 361.508C102.601 340.918 118.045 320.886 139.395 324.348C306.485 351.438 720 497.511 720 546.122C720 575.454 549.722 593.582 443.286 618.992C426.326 623.041 413.642 636.654 409.251 653.528C394.695 709.463 370.668 786.523 351.744 836.629C344.418 856.026 321.278 860.617 309.075 843.854Z" fill="#D9B8FF" stroke="#1A1A1A" stroke-width="24" stroke-linejoin="round"/>
<path d="M240 576C277.604 573.68 311.67 563.101 341.261 539.732" stroke="#1A1A1A" stroke-width="24" stroke-linecap="round"/>
<circle cx="208.88" cy="448.88" r="16.88" fill="#1A1A1A"/>
<circle cx="272.88" cy="448.88" r="16.88" fill="#1A1A1A"/>
</svg>
