<svg width="768" height="880" viewBox="0 0 768 880" fill="none" xmlns="http://www.w3.org/2000/svg">
<mask id="path-1-inside-1_1_9741" fill="white">
<path fill-rule="evenodd" clip-rule="evenodd" d="M449.74 341.723C458.28 342.118 465.001 349.156 465.001 357.705V535.34L507.659 537.479L689.702 545.562C698.254 545.941 704.993 552.985 704.993 561.546V853.181C704.993 861.739 698.257 868.782 689.707 869.164L507.659 877.297H325.733C317.132 877.297 310.07 870.496 309.745 861.9L304 709.746L304.781 687.241L267.667 685.313L86.6094 694.72C77.6697 695.184 70.088 688.224 69.7881 679.277L64.0078 506.862L69.7725 348.714C70.0862 340.11 77.152 333.297 85.7617 333.297H267.667L449.74 341.723Z"/>
</mask>
<path fill-rule="evenodd" clip-rule="evenodd" d="M449.74 341.723C458.28 342.118 465.001 349.156 465.001 357.705V535.34L507.659 537.479L689.702 545.562C698.254 545.941 704.993 552.985 704.993 561.546V853.181C704.993 861.739 698.257 868.782 689.707 869.164L507.659 877.297H325.733C317.132 877.297 310.07 870.496 309.745 861.9L304 709.746L304.781 687.241L267.667 685.313L86.6094 694.72C77.6697 695.184 70.088 688.224 69.7881 679.277L64.0078 506.862L69.7725 348.714C70.0862 340.11 77.152 333.297 85.7617 333.297H267.667L449.74 341.723Z" fill="#80CAFF"/>
<path d="M449.74 341.723L448.631 365.697V365.697L449.74 341.723ZM465.001 357.705H489.001V357.705L465.001 357.705ZM465.001 535.34H441.001C441.001 548.127 451.027 558.669 463.799 559.31L465.001 535.34ZM507.659 537.479L506.457 561.449C506.503 561.452 506.549 561.454 506.595 561.456L507.659 537.479ZM689.702 545.562L690.767 521.585H690.767L689.702 545.562ZM704.993 853.181L728.993 853.181V853.181H704.993ZM689.707 869.164L690.778 893.14H690.778L689.707 869.164ZM507.659 877.297V901.297C508.016 901.297 508.373 901.289 508.73 901.273L507.659 877.297ZM325.733 877.297L325.733 901.297H325.733V877.297ZM309.745 861.9L285.762 862.806V862.806L309.745 861.9ZM304 709.746L280.014 708.913C279.994 709.493 279.995 710.072 280.017 710.652L304 709.746ZM304.781 687.241L328.767 688.074C329.221 674.988 319.102 663.953 306.026 663.274L304.781 687.241ZM267.667 685.313L268.912 661.346C268.082 661.303 267.251 661.303 266.422 661.346L267.667 685.313ZM86.6094 694.72L87.8545 718.687H87.8545L86.6094 694.72ZM69.7881 679.277L45.8016 680.082H45.8016L69.7881 679.277ZM64.0078 506.862L40.0237 505.988C40.0034 506.547 40.0025 507.107 40.0213 507.666L64.0078 506.862ZM69.7725 348.714L45.7884 347.839L45.7884 347.84L69.7725 348.714ZM267.667 333.297L268.776 309.323C268.407 309.305 268.037 309.297 267.667 309.297V333.297ZM449.74 341.723L448.631 365.697C444.362 365.499 441.001 361.981 441.001 357.705L465.001 357.705L489.001 357.705C489.001 336.331 472.198 318.736 450.85 317.748L449.74 341.723ZM465.001 357.705H441.001V535.34H465.001H489.001V357.705H465.001ZM465.001 535.34L463.799 559.31L506.457 561.449L507.659 537.479L508.861 513.51L466.203 511.37L465.001 535.34ZM507.659 537.479L506.595 561.456L688.638 569.538L689.702 545.562L690.767 521.585L508.724 513.503L507.659 537.479ZM689.702 545.562L688.638 569.538C684.363 569.348 680.993 565.827 680.993 561.546H704.993H728.993C728.993 540.143 712.146 522.534 690.767 521.585L689.702 545.562ZM704.993 561.546H680.993V853.181H704.993H728.993V561.546H704.993ZM704.993 853.181L680.993 853.18C680.993 848.899 684.362 845.379 688.636 845.188L689.707 869.164L690.778 893.14C712.152 892.185 728.993 874.579 728.993 853.181L704.993 853.181ZM689.707 869.164L688.636 845.188L506.588 853.321L507.659 877.297L508.73 901.273L690.778 893.14L689.707 869.164ZM507.659 877.297V853.297H325.733V877.297V901.297H507.659V877.297ZM325.733 877.297L325.733 853.297C330.035 853.297 333.566 856.698 333.728 860.995L309.745 861.9L285.762 862.806C286.574 884.294 304.228 901.297 325.733 901.297L325.733 877.297ZM309.745 861.9L333.728 860.995L327.983 708.841L304 709.746L280.017 710.652L285.762 862.806L309.745 861.9ZM304 709.746L327.986 710.579L328.767 688.074L304.781 687.241L280.796 686.409L280.014 708.913L304 709.746ZM304.781 687.241L306.026 663.274L268.912 661.346L267.667 685.313L266.422 709.281L303.536 711.209L304.781 687.241ZM267.667 685.313L266.422 661.346L85.3642 670.752L86.6094 694.72L87.8545 718.687L268.912 709.281L267.667 685.313ZM86.6094 694.72L85.3642 670.752C89.8338 670.52 93.6246 674 93.7746 678.473L69.7881 679.277L45.8016 680.082C46.5514 702.448 65.5057 719.848 87.8545 718.687L86.6094 694.72ZM69.7881 679.277L93.7746 678.473L87.9943 506.058L64.0078 506.862L40.0213 507.666L45.8016 680.082L69.7881 679.277ZM64.0078 506.862L87.9919 507.737L93.7565 349.588L69.7725 348.714L45.7884 347.84L40.0237 505.988L64.0078 506.862ZM69.7725 348.714L93.7565 349.588C93.5997 353.89 90.0668 357.297 85.7617 357.297V333.297V309.297C64.2372 309.297 46.5727 326.33 45.7884 347.839L69.7725 348.714ZM85.7617 333.297V357.297H267.667V333.297V309.297H85.7617V333.297ZM267.667 333.297L266.558 357.271L448.631 365.697L449.74 341.723L450.85 317.748L268.776 309.323L267.667 333.297Z" fill="#1A1A1A" mask="url(#path-1-inside-1_1_9741)"/>
<ellipse cx="144.861" cy="429.702" rx="16.8613" ry="16.4056" fill="#1A1A1A"/>
<ellipse cx="224.861" cy="429.702" rx="16.8613" ry="16.4056" fill="#1A1A1A"/>
<path d="M160 473.978C178.637 493.498 209.557 494.249 229.121 475.658L230.889 473.978" stroke="#1A1A1A" stroke-width="24" stroke-linecap="round"/>
<ellipse cx="544.861" cy="653.702" rx="16.8613" ry="16.4056" fill="#1A1A1A"/>
<ellipse cx="624.861" cy="653.702" rx="16.8613" ry="16.4056" fill="#1A1A1A"/>
<path d="M528 697.978C549.407 718.086 582.508 718.886 604.861 699.835L607.039 697.978" stroke="#1A1A1A" stroke-width="24" stroke-linecap="round"/>
</svg>
