<svg width="768" height="880" viewBox="0 0 768 880" fill="none" xmlns="http://www.w3.org/2000/svg">
<path d="M104.216 571.15L137.409 528L172.401 544.629L192.982 584.141L293.354 583.348L309.329 550.119L348.155 528.545L390.475 562.566H415.369L534.031 550.119L630.26 562.566L666.8 614.014L689.82 650.986L723.226 723.548V769.187L704.971 818.976L680.077 838.891L583.946 867.104L492.661 829.763L415.369 838.891L326.581 867.104H297.537L273.473 829.763L143.194 818.976L65.1921 849.678L36.1495 829.763L32 801.55L80.3555 767.84L75.0305 694.043L104.216 571.15Z" fill="#FFE0FC"/>
<path d="M512 826.473C512.292 826.181 512.584 825.889 513.172 825.446C513.761 825.004 514.637 824.42 515.38 823.827C516.123 823.234 516.707 822.65 517.446 821.911C518.185 821.172 519.061 820.296 520.096 819.261C521.132 818.226 522.3 817.058 523.485 816.018C524.671 814.978 525.839 814.102 526.733 813.359C527.626 812.616 528.21 812.032 528.657 811.585C529.104 811.138 529.396 810.846 529.692 810.404C529.989 809.961 530.281 809.377 530.577 808.93C530.874 808.484 531.166 808.192 531.462 807.895C531.759 807.599 532.051 807.307 532.347 806.864C532.643 806.422 532.935 805.838 533.232 805.391C533.528 804.944 533.82 804.652 534.117 804.356C534.413 804.059 534.705 803.767 535.002 803.325C535.298 802.883 535.59 802.299 535.886 801.852C536.183 801.405 536.475 801.113 536.771 800.67C537.068 800.228 537.36 799.644 537.51 799.197C537.66 798.75 537.66 798.458 537.806 798.162C537.952 797.866 538.244 797.574 538.541 797.131C538.837 796.689 539.129 796.105 539.426 795.658C539.722 795.211 540.014 794.919 540.311 794.623C540.607 794.326 540.899 794.034 541.195 793.738C541.492 793.441 541.784 793.149 541.934 792.853C542.085 792.556 542.085 792.264 542.231 791.968C542.377 791.672 542.669 791.38 542.965 791.083C543.262 790.787 543.554 790.495 543.704 790.198C543.854 789.902 543.854 789.61 544 789.459C544.146 789.309 544.438 789.309 544.589 789.163C544.739 789.017 544.739 788.725 544.885 788.429C545.031 788.132 545.323 787.84 545.474 787.544C545.624 787.247 545.624 786.955 545.77 786.513C545.916 786.071 546.208 785.487 546.505 785.04C546.801 784.593 547.093 784.301 547.394 784" stroke="#FFBDF2" stroke-width="24" stroke-linecap="round"/>
<path d="M552.854 848.741C553.146 848.449 560.584 841.889 561.172 841.446C561.761 841.004 562.637 840.42 563.38 839.827C564.123 839.234 564.707 838.65 565.446 837.911C566.185 837.172 567.061 836.296 568.096 835.261C569.132 834.226 570.3 833.058 571.485 832.018C572.671 830.978 573.839 830.102 574.733 829.359C575.626 828.616 576.21 828.032 576.657 827.585C577.104 827.138 577.396 826.846 577.692 826.404C577.989 825.961 578.281 825.377 578.577 824.93C578.874 824.484 579.166 824.192 579.462 823.895C579.759 823.599 580.051 823.307 580.347 822.864C580.643 822.422 580.935 821.838 581.232 821.391C581.528 820.944 581.82 820.652 582.117 820.356C582.413 820.059 582.705 819.767 583.001 819.325C583.298 818.883 583.59 818.299 583.886 817.852C584.183 817.405 584.475 817.113 584.771 816.67C585.068 816.228 585.36 815.644 585.51 815.197C585.66 814.75 585.66 814.458 585.806 814.162C585.952 813.866 586.244 813.574 586.541 813.131C586.837 812.689 587.129 812.105 587.426 811.658C587.722 811.211 588.014 810.919 588.311 810.623C588.607 810.326 588.899 810.034 589.195 809.738C589.492 809.441 589.784 809.149 589.934 808.853C590.085 808.556 590.085 808.264 590.231 807.968C590.377 807.672 590.669 807.38 590.965 807.083C591.261 806.787 591.553 806.495 591.704 806.198C591.854 805.902 591.854 805.61 592 805.459C592.146 805.309 592.438 805.309 592.589 805.163C592.739 805.017 592.739 804.725 592.885 804.429C593.031 804.132 593.323 803.84 593.474 803.544C593.624 803.247 593.624 802.955 593.77 802.513C593.916 802.071 594.208 801.487 594.504 801.04C594.801 800.593 595.093 800.301 595.394 800" stroke="#FFBDF2" stroke-width="24" stroke-linecap="round"/>
<path d="M313.645 800C312.849 800 312.054 800 311.246 800C310.438 800 309.642 800 309.232 800.267C308.823 800.533 308.823 801.066 308.425 801.341C308.027 801.615 307.231 801.615 306.821 801.882C306.411 802.149 306.411 802.682 306.013 803.489C305.616 804.297 304.82 805.363 304.41 806.179C304 806.995 304 807.528 304 808.069C304 808.61 304 809.143 304 809.684C304 810.226 304 810.759 304 811.3C304 811.841 304 812.374 304 812.915C304 813.456 304 813.99 304 814.531C304 815.072 304 815.605 304 816.413C304 817.22 304 818.287 304 820.702C304 823.117 304 826.848 304 829.304C304 831.759 304 832.825 304 833.641C304 834.457 304 834.99 304 835.531C304 836.072 304 836.605 304.398 837.147C304.796 837.688 305.591 838.221 306.399 838.762C307.207 839.303 308.003 839.836 308.811 840.377C309.618 840.919 310.414 841.452 311.222 842.259C312.03 843.067 312.825 844.133 313.633 844.949C314.441 845.765 315.237 846.298 316.044 846.839C316.852 847.38 317.648 847.913 318.456 848.454C319.263 848.996 320.059 849.529 320.867 850.07C321.675 850.611 322.47 851.144 323.278 851.419C324.086 851.693 324.882 851.693 325.292 851.96C325.702 852.226 325.702 852.76 326.099 853.034C326.497 853.309 327.293 853.309 328.101 853.575C328.909 853.842 329.704 854.375 330.512 854.65C331.32 854.924 332.116 854.924 332.923 854.924C333.731 854.924 334.527 854.924 335.335 854.924C336.142 854.924 336.938 854.924 337.746 854.924C338.554 854.924 339.349 854.924 340.157 854.924C340.965 854.924 341.761 854.924 342.568 854.924C343.376 854.924 344.172 854.924 345.378 854.924C346.583 854.924 348.175 854.924 349.392 854.924C350.61 854.924 351.406 854.924 352.214 854.924C353.021 854.924 353.817 854.924 354.625 854.924C355.433 854.924 356.228 854.924 357.048 854.924" stroke="#FFBDF2" stroke-width="24" stroke-linecap="round"/>
<path d="M63.1212 784C62.3255 784 61.5298 784 60.722 784C59.9142 784 59.1185 784 58.7086 784.267C58.2986 784.533 58.2986 785.066 57.9008 785.341C57.5029 785.615 56.7072 785.615 56.2973 785.882C55.8874 786.149 55.8874 786.682 55.4895 787.489C55.0916 788.297 54.2959 789.363 53.886 790.179C53.4761 790.995 53.4761 791.528 53.4761 792.069C53.4761 792.61 53.4761 793.143 53.4761 793.684C53.4761 794.226 53.4761 794.759 53.4761 795.3C53.4761 795.841 53.4761 796.374 53.4761 796.915C53.4761 797.456 53.4761 797.99 53.4761 798.531C53.4761 799.072 53.4761 799.605 53.4761 800.413C53.4761 801.22 53.4761 802.287 53.4761 804.702C53.4761 807.117 53.4761 810.848 53.4761 813.304C53.4761 815.759 53.4761 816.825 53.4761 817.641C53.4761 818.457 53.4761 818.99 53.4761 819.531C53.4761 820.072 53.4761 820.605 53.8739 821.147C54.2718 821.688 55.0675 822.221 55.8753 822.762C56.6831 823.303 57.4788 823.836 58.2866 824.377C59.0944 824.919 59.8901 825.452 60.6979 826.259C61.5056 827.067 62.3014 828.133 63.1091 828.949C63.9169 829.765 64.7126 830.298 65.5204 830.839C66.3282 831.38 67.1239 831.913 67.9317 832.454C68.7395 832.996 69.5352 833.529 70.343 834.07C71.1508 834.611 71.9465 835.144 72.7543 835.419C73.562 835.693 74.3578 835.693 74.7677 835.96C75.1776 836.226 75.1776 836.76 75.5755 837.034C75.9733 837.309 76.7691 837.309 77.5768 837.575C78.3846 837.842 79.1803 838.375 79.9881 838.65C80.7959 838.924 81.5916 838.924 82.3994 838.924C83.2072 838.924 84.0029 838.924 84.8107 838.924C85.6185 838.924 86.4142 838.924 87.222 838.924C88.0297 838.924 88.8255 838.924 89.6332 838.924C90.441 838.924 91.2367 838.924 92.0445 838.924C92.8523 838.924 93.648 838.924 94.8537 838.924C96.0593 838.924 97.6507 838.924 98.8684 838.924C100.086 838.924 100.882 838.924 101.69 838.924C102.497 838.924 103.293 838.924 104.101 838.924C104.909 838.924 105.704 838.924 106.524 838.924" stroke="#FFBDF2" stroke-width="24" stroke-linecap="round"/>
<path d="M101.301 564.898L139.339 528C159.119 541.955 198.069 572.562 195.635 583.348C160.64 626.162 117.531 640.222 80 661.918L101.301 564.898Z" fill="#FFBDF2"/>
<path d="M387.679 547.341L362.804 532.3C358.345 529.604 352.853 529.231 348.122 531.416C327.906 540.752 298.591 555.919 300.687 561.708C321.172 637.714 366.145 635.849 399.627 628.353C408.579 626.35 413.694 616.923 410.949 608.17L394.667 556.246C393.501 552.525 391.016 549.359 387.679 547.341Z" fill="#FFBDF2"/>
<ellipse cx="133.956" cy="737.255" rx="37.9563" ry="33.2551" fill="#FF99E0"/>
<ellipse cx="341.956" cy="737.255" rx="37.9563" ry="33.2551" fill="#FF99E0"/>
<path d="M388.969 566.33H409.975C423.767 566.293 440.076 563.939 457.307 561.451C488.717 556.915 555.565 542.422 583.436 550.24C651.154 566.754 688.345 615.394 696.109 684.478C696.212 685.388 696.644 686.239 697.328 686.848C727.961 711.798 734.751 754.981 720.781 790.385C705.82 828.298 668.791 856.856 614.21 863.749L612.444 863.972L610.666 864.018C590.273 864.547 559.288 861.367 530.614 849.348C501.714 837.234 469.641 813.419 460.924 770.38C457.014 751.073 469.496 732.252 488.803 728.342C508.11 724.432 526.931 736.913 530.841 756.22C533.086 767.307 541.249 776.456 558.192 783.558C574.61 790.44 594.04 792.833 607.069 792.735C639.164 788.207 650.724 773.577 654.424 764.2C659.183 752.141 654.482 743.954 652.278 742.159M500.295 833.575C481.423 831.584 465.761 830.009 451.375 828.301C425.92 825.28 400.269 836.773 378.605 850.474C351.199 867.806 315.157 876.976 295.933 853.654C268.807 820.746 301.236 792.005 329.52 785.368M77.764 650.464C72.2793 677.002 72.2785 695.544 72.2785 721.401C72.2785 800.197 148.132 825.589 241.702 825.589C258.551 825.589 268.837 824.823 284.198 823.012M77.764 650.464C77.7914 650.331 77.819 650.198 77.8467 650.065M77.764 650.464C77.7188 650.977 77.6752 651.486 77.6331 651.991M77.764 650.464C80.5029 619.361 88.9867 574.099 114.37 539.704C121.451 530.108 133.986 525.836 145.466 529.067C163.305 534.089 186.711 545.917 197.398 583.022C198.058 585.312 200.36 586.758 202.69 586.253C216.896 582.998 226.271 578.729 241.702 578.729C258.975 578.729 274.429 583.578 290.127 587.63C290.167 587.641 290.209 587.646 290.251 587.646C290.48 587.646 290.681 587.484 290.737 587.263C300.887 547.189 324.87 534.254 343.297 529.067C354.777 525.835 367.35 530.093 374.246 539.823C386.72 557.421 394.38 578.116 399.247 598.304M82.2884 765.23C54.0047 771.867 13.883 804.575 41.0087 837.483C64.541 866.032 129.984 838.434 148.84 814.721" stroke="#1A1A1A" stroke-width="24" stroke-linecap="round"/>
<path d="M132.72 564.72C126.579 573.041 120.747 589.911 116.825 604.788C114.599 613.229 123.79 618.286 130.845 613.144C142.167 604.893 152.034 600.251 164.349 596.955C169.78 595.501 173.133 589.947 170.287 585.098C163.258 573.126 150.951 562.032 145.261 560.43C140.631 559.127 135.576 560.85 132.72 564.72Z" fill="#FF99E0"/>
<path d="M363.28 564.72C369.421 573.041 375.253 589.911 379.175 604.788C381.401 613.229 372.21 618.286 365.155 613.144C353.833 604.893 343.966 600.251 331.651 596.955C326.22 595.501 322.867 589.947 325.713 585.098C332.742 573.126 345.049 562.032 350.739 560.43C355.369 559.127 360.424 560.85 363.28 564.72Z" fill="#FF99E0"/>
<path d="M144 720C152.707 730.292 175.423 744.7 196.63 720" stroke="#1A1A1A" stroke-width="24" stroke-linecap="round"/>
<path d="M224 768H239.379" stroke="#1A1A1A" stroke-width="16" stroke-linecap="round"/>
<path d="M272 720C280.707 730.292 303.423 744.7 324.63 720" stroke="#1A1A1A" stroke-width="24" stroke-linecap="round"/>
<path d="M210.044 621.1C228.428 615.97 230.063 632.421 237.592 642.796C242.126 632.706 248.219 616.13 263.781 621.11C289.139 629.224 260.446 667.621 237.592 679.246C205.608 667.251 187.394 627.42 210.044 621.1Z" fill="#FFBDF2" stroke="#FFBDF2" stroke-width="16" stroke-linecap="round"/>
</svg>
