<svg width="768" height="880" viewBox="0 0 768 880" fill="none" xmlns="http://www.w3.org/2000/svg">
<path d="M67.3629 611.998C-60.4319 445.727 79.0585 389.03 173.668 373.039C178.083 372.293 182.532 372.106 187.002 372.366L660.278 399.855C701.246 404.614 719.268 403.28 733.228 418.767C754.645 442.526 741.766 474.544 715.244 492.425C701.287 501.834 696.349 521.365 705.958 535.186C719.221 554.264 736.019 572.398 746.809 594.34C755.242 611.489 749.808 632.229 734.665 643.886C728.189 648.871 722.143 652.318 716.193 655.006C692.749 665.593 672.737 687.666 684.306 710.641C690.964 723.865 700.556 731.278 708.277 743.697C798.77 889.247 340.1 865.935 117.542 832.936C65.2914 825.188 7.15329 787.415 28.0741 738.913C36.3293 719.774 51.34 703.495 66.279 688.351C87.1574 667.187 85.4797 635.569 67.3629 611.998Z" fill="white" stroke="#1A1A1A" stroke-width="24"/>
<path d="M594.914 346.997C418.221 219.788 261.005 286.847 172.294 366.689C140.899 394.945 124.076 438.685 139.45 478.025C180.656 583.465 323.013 611.976 400 611.976C514.274 607.918 585.887 557.848 627.165 505.222C666.616 454.925 646.791 384.345 594.914 346.997Z" fill="#FFD966" stroke="#1A1A1A" stroke-width="24"/>
<ellipse cx="321.985" cy="453.976" rx="17.9849" ry="18" fill="#1A1A1A"/>
<ellipse cx="465.985" cy="453.976" rx="17.9849" ry="18" fill="#1A1A1A"/>
<path d="M352 499.976L387.97 499.976L427.612 499.976" stroke="#1A1A1A" stroke-width="24" stroke-linecap="round"/>
<ellipse cx="456" cy="339.573" rx="56" ry="31.5974" fill="white"/>
</svg>
