<svg width="768" height="880" viewBox="0 0 768 880" fill="none" xmlns="http://www.w3.org/2000/svg">
<path fill-rule="evenodd" clip-rule="evenodd" d="M665.032 482.715C664.576 505.97 663.172 527.864 660.907 548.471C711.606 559.7 749.525 604.922 749.525 659C749.525 721.523 698.84 772.208 636.317 772.208C616.762 772.208 598.366 767.249 582.316 758.522C517.214 837.011 423.322 860.076 336.328 860.076C49.5353 844.981 11.7988 595.923 19.346 482.715H665.032ZM655.084 588.893C646.546 636.196 632.928 675.732 615.49 708.647C621.194 710.343 627.237 711.254 633.492 711.254C668.329 711.254 696.57 683.013 696.57 648.177C696.57 620.925 679.287 597.71 655.084 588.893Z" fill="#DC3412"/>
<path d="M665.032 482.715L677.029 482.951C677.092 479.728 675.856 476.615 673.6 474.314C671.343 472.012 668.255 470.715 665.032 470.715V482.715ZM660.907 548.471L648.978 547.16C648.309 553.248 652.332 558.863 658.312 560.187L660.907 548.471ZM749.525 659L761.525 659.001V659H749.525ZM636.317 772.208L636.317 784.208H636.317V772.208ZM582.316 758.522L588.048 747.98C583.011 745.241 576.74 746.448 573.079 750.861L582.316 758.522ZM336.328 860.076L335.698 872.059C335.908 872.07 336.118 872.076 336.328 872.076L336.328 860.076ZM19.346 482.715V470.715C13.0284 470.715 7.79281 475.614 7.37257 481.917L19.346 482.715ZM655.084 588.893L659.192 577.618C655.866 576.406 652.176 576.725 649.107 578.488C646.038 580.251 643.904 583.279 643.275 586.761L655.084 588.893ZM615.49 708.647L604.886 703.029C603.202 706.207 603.032 709.973 604.424 713.29C605.816 716.607 608.622 719.124 612.07 720.149L615.49 708.647ZM633.492 711.254L633.492 723.254H633.492V711.254ZM696.57 648.177L708.57 648.177V648.177L696.57 648.177ZM665.032 482.715L653.034 482.48C652.584 505.4 651.202 526.935 648.978 547.16L660.907 548.471L672.835 549.783C675.142 528.794 676.567 506.539 677.029 482.951L665.032 482.715ZM660.907 548.471L658.312 560.187C703.635 570.226 737.525 610.669 737.525 659H749.525H761.525C761.525 599.175 719.578 549.175 663.501 536.755L660.907 548.471ZM749.525 659L737.525 659C737.525 714.896 692.212 760.208 636.317 760.208V772.208V784.208C705.467 784.208 761.525 728.151 761.525 659.001L749.525 659ZM636.317 772.208V760.208C618.815 760.208 602.384 755.775 588.048 747.98L582.316 758.522L576.583 769.064C594.348 778.724 614.709 784.208 636.317 784.208L636.317 772.208ZM582.316 758.522L573.079 750.861C511.154 825.52 421.445 848.076 336.328 848.076V860.076L336.328 872.076C425.199 872.076 523.274 848.501 591.552 766.183L582.316 758.522ZM336.328 860.076L336.959 848.092C197.707 840.763 120.248 777.056 77.9016 702.275C35.0937 626.678 27.6415 538.682 31.3194 483.514L19.346 482.715L7.37257 481.917C3.50323 539.957 11.1457 633.094 57.0175 714.101C103.351 795.924 188.157 864.294 335.698 872.059L336.328 860.076ZM19.346 482.715V494.715H665.032V482.715V470.715H19.346V482.715ZM655.084 588.893L643.275 586.761C634.925 633.02 621.669 671.352 604.886 703.029L615.49 708.647L626.093 714.265C644.188 680.112 658.167 639.372 666.893 591.025L655.084 588.893ZM615.49 708.647L612.07 720.149C618.872 722.172 626.066 723.254 633.492 723.254L633.492 711.254L633.493 699.254C628.408 699.254 623.517 698.514 618.909 697.145L615.49 708.647ZM633.492 711.254V723.254C674.956 723.254 708.57 689.641 708.57 648.177L696.57 648.177L684.57 648.177C684.57 676.386 661.701 699.254 633.492 699.254V711.254ZM696.57 648.177L708.57 648.177C708.569 615.722 687.981 588.106 659.192 577.618L655.084 588.893L650.977 600.168C670.593 607.314 684.57 626.129 684.57 648.177L696.57 648.177Z" fill="#1A1A1A"/>
<ellipse cx="341.76" cy="474.833" rx="323.268" ry="149.807" fill="#F3CFC9" stroke="#1A1A1A" stroke-width="24" stroke-linejoin="round"/>
<ellipse cx="341.76" cy="463.75" rx="260.191" ry="107.186" fill="#603A2A"/>
<circle cx="262.864" cy="706.579" r="18.8637" fill="#1A1A1A"/>
<circle cx="420.553" cy="706.58" r="18.8637" fill="#1A1A1A"/>
<path d="M307.075 741.721C327.757 763.983 362.718 764.833 384.457 743.601L386.382 741.721" stroke="#1A1A1A" stroke-width="24" stroke-linecap="round"/>
</svg>
