<svg width="768" height="880" viewBox="0 0 768 880" fill="none" xmlns="http://www.w3.org/2000/svg">
<ellipse cx="233.902" cy="655.783" rx="108.787" ry="149.725" transform="rotate(17.7695 233.902 655.783)" fill="#4A5878" stroke="#1A1A1A" stroke-width="24" stroke-linecap="round" stroke-linejoin="round"/>
<path d="M599.234 788.091L647.234 708.089L695.234 652.089L727.234 596.089L727.234 544.639L663.234 580.089L623.234 524.089L551.234 468.09L499.47 453.732L403.017 417.64L375.87 379.993L308.781 320.527L283.929 331.845L189.111 475.046L177.871 560.181L189.111 684.09L215.234 764.089L255.234 812.089L335.235 844.09L391.273 853.076L456 864.001L527.234 836.091L599.234 788.091Z" fill="#D2DAE4"/>
<path d="M228.122 317.422L290.317 334.461C292.056 334.937 293.673 335.679 295.146 336.718C339.656 368.118 417.203 441.012 465.703 441.012C374.521 515.447 357.681 742.399 224.378 790.641C195.891 755.377 174.038 674.253 176.394 615.742C176.62 610.146 174.204 604.733 169.685 601.425L115.284 561.606C112.927 559.882 111.088 557.545 109.964 554.849L73.9481 468.41C72.4851 464.898 72.3209 460.981 73.485 457.36L94.6989 391.364C95.3475 389.346 96.3906 387.478 97.7676 385.866L138.745 337.914C141.035 335.234 144.146 333.385 147.594 332.655L220.58 317.2C223.075 316.672 225.661 316.748 228.122 317.422Z" fill="#518394"/>
<path d="M178.44 598.158C173.475 723.624 203.527 794.432 297.016 842.33C325.201 856.771 356.9 863.007 388.569 862.992C599.881 862.89 621.414 761.932 630.522 712.343C705.266 662.028 734.918 601.107 733.397 562.181C732.953 550.819 719.851 549.043 712.135 557.395C678.857 593.408 664.294 587.855 646.789 581.443C592.464 462.154 444.138 433.816 396.995 428.614C311.479 283.52 200.466 301.403 155.649 328.481C101.472 361.213 55.0437 434.602 92.7694 517.442C112.766 556.263 151.18 602.771 228.769 597.442" stroke="#1A1A1A" stroke-width="24" stroke-linecap="round" stroke-linejoin="round"/>
<path d="M180.231 526.739C148.115 540.693 83.6861 537.162 64.0555 525.749C35.1452 508.94 68.368 486.43 87.6866 479.477C121.932 464.597 157.711 464.96 171.32 467.001C198.779 487.331 188.702 515.297 180.231 526.739Z" fill="#FFA629" stroke="#1A1A1A" stroke-width="24" stroke-linejoin="round"/>
<circle cx="131.276" cy="419.278" r="19.276" fill="#1A1A1A"/>
<circle cx="243.276" cy="419.278" r="19.276" fill="#1A1A1A"/>
<path d="M568.942 786.728C418.256 771.579 367.027 623.317 359.512 540.572C358.911 533.955 362.788 527.806 368.981 525.398C418.647 506.093 457.73 508 491.829 516.253C528.074 525.026 561.742 544.619 583.359 575.006C625.777 634.633 647.854 716.406 657.403 765.55C658.806 772.769 654.917 779.951 647.774 781.699C622.18 787.964 582.229 788.259 568.942 786.728Z" fill="#4A5878" stroke="#1A1A1A" stroke-width="24"/>
<path d="M624 656.002L615.121 624.002C579.161 665.754 531.768 696.068 478.785 711.206L448 720.002L485.521 745.704L517.373 739.501C564.247 730.372 603.9 699.32 624 656.002Z" fill="white"/>
<path d="M568.942 786.728C418.256 771.579 367.027 623.317 359.512 540.572C358.911 533.955 362.788 527.806 368.981 525.398C418.647 506.093 457.73 508 491.829 516.253C528.074 525.026 561.742 544.619 583.359 575.006C625.777 634.633 647.854 716.406 657.403 765.55C658.806 772.769 654.917 779.951 647.774 781.699C622.18 787.964 582.229 788.259 568.942 786.728Z" stroke="#1A1A1A" stroke-width="24"/>
</svg>
