<svg width="768" height="880" viewBox="0 0 768 880" fill="none" xmlns="http://www.w3.org/2000/svg">
<mask id="path-1-inside-1_1_9716" fill="white">
<path d="M266.353 300.8C369.272 300.8 452.706 372.936 452.706 461.919C452.706 502.321 435.505 539.248 407.091 567.528C476.457 577.214 544.73 592.976 594.461 615.722C613.253 610.75 630.856 606.368 642.93 590.569C649.182 582.387 660.437 578.765 665.173 587.908C674.22 605.373 679.225 637.157 670.652 691.508C670.92 693.732 671.059 695.986 671.059 698.271C671.058 837.895 545.909 879.037 391.529 879.037C237.15 879.037 120.471 862.581 112 730.924C112 677.411 120.948 626.718 159.572 593.978C111.46 564.844 80.0001 516.559 80 461.919C80 372.936 163.433 300.8 266.353 300.8Z"/>
</mask>
<path d="M266.353 300.8C369.272 300.8 452.706 372.936 452.706 461.919C452.706 502.321 435.505 539.248 407.091 567.528C476.457 577.214 544.73 592.976 594.461 615.722C613.253 610.75 630.856 606.368 642.93 590.569C649.182 582.387 660.437 578.765 665.173 587.908C674.22 605.373 679.225 637.157 670.652 691.508C670.92 693.732 671.059 695.986 671.059 698.271C671.058 837.895 545.909 879.037 391.529 879.037C237.15 879.037 120.471 862.581 112 730.924C112 677.411 120.948 626.718 159.572 593.978C111.46 564.844 80.0001 516.559 80 461.919C80 372.936 163.433 300.8 266.353 300.8Z" fill="#FFCD29"/>
<path d="M266.353 300.8V276.8H266.352L266.353 300.8ZM452.706 461.919L476.706 461.919V461.919H452.706ZM407.091 567.528L390.16 550.518C383.7 556.948 381.44 566.482 384.325 575.127C387.211 583.773 394.745 590.037 403.772 591.298L407.091 567.528ZM594.461 615.722L584.478 637.547C589.53 639.858 595.228 640.345 600.599 638.924L594.461 615.722ZM642.93 590.569L661.999 605.141V605.141L642.93 590.569ZM665.173 587.908L686.483 576.869V576.869L665.173 587.908ZM670.652 691.508L646.945 687.769C646.601 689.955 646.56 692.178 646.824 694.376L670.652 691.508ZM671.059 698.271L695.059 698.271V698.271H671.059ZM391.529 879.037V903.037V903.037V879.037ZM112 730.924H88C88 731.438 88.0165 731.952 88.0495 732.465L112 730.924ZM159.572 593.978L175.091 612.285C180.98 607.293 184.109 599.772 183.497 592.076C182.885 584.38 178.608 577.447 172.004 573.448L159.572 593.978ZM80 461.919H56V461.919L80 461.919ZM266.353 300.8V324.8C359.414 324.8 428.706 389.349 428.706 461.919H452.706H476.706C476.706 356.522 379.13 276.8 266.353 276.8V300.8ZM452.706 461.919L428.706 461.919C428.706 495.22 414.583 526.21 390.16 550.518L407.091 567.528L424.021 584.539C456.426 552.286 476.706 509.422 476.706 461.919L452.706 461.919ZM407.091 567.528L403.772 591.298C472.238 600.858 537.851 616.22 584.478 637.547L594.461 615.722L604.444 593.896C551.61 569.731 480.676 553.57 410.41 543.759L407.091 567.528ZM594.461 615.722L600.599 638.924C617.724 634.393 644.102 628.561 661.999 605.141L642.93 590.569L623.86 575.996C617.611 584.174 608.782 587.108 588.323 592.52L594.461 615.722ZM642.93 590.569L661.999 605.141C661.99 605.153 661.981 605.164 661.962 605.182C661.944 605.198 661.88 605.257 661.747 605.347C661.569 605.466 660.709 606.018 659.043 606.331C657.303 606.657 654.218 606.772 650.731 605.203C647.045 603.545 644.864 600.881 643.862 598.947L665.173 587.908L686.483 576.869C683.114 570.365 677.749 564.725 670.426 561.43C663.301 558.224 656.123 558.041 650.196 559.153C638.933 561.265 629.733 568.31 623.86 575.996L642.93 590.569ZM665.173 587.908L643.862 598.947C649.428 609.692 655.214 635.346 646.945 687.769L670.652 691.508L694.359 695.247C703.236 638.967 699.012 601.055 686.483 576.869L665.173 587.908ZM670.652 691.508L646.824 694.376C646.979 695.663 647.059 696.959 647.059 698.271H671.059H695.059C695.059 695.013 694.861 691.801 694.48 688.64L670.652 691.508ZM671.059 698.271L647.059 698.271C647.059 729.482 640.105 753.818 628.531 773.04C616.939 792.292 599.892 807.771 577.647 819.969C532.393 844.785 467.402 855.037 391.529 855.037V879.037V903.037C470.036 903.037 544.81 892.719 600.726 862.057C629.065 846.517 652.954 825.531 669.652 797.8C686.368 770.037 695.059 736.872 695.059 698.271L671.059 698.271ZM391.529 879.037V855.037C314.024 855.037 250.808 850.694 206.255 832.188C184.601 823.194 168.356 811.225 156.971 795.522C145.599 779.838 137.838 758.723 135.95 729.383L112 730.924L88.0495 732.465C90.3972 768.954 100.398 799.267 118.11 823.697C135.809 848.108 159.97 864.939 187.843 876.516C242.341 899.153 314.655 903.037 391.529 903.037V879.037ZM112 730.924H136C136 678.74 145.055 637.746 175.091 612.285L159.572 593.978L144.054 575.67C96.8402 615.691 88 676.082 88 730.924H112ZM159.572 593.978L172.004 573.448C129.816 547.901 104 506.791 104 461.919L80 461.919L56 461.919C56.0001 526.327 93.1051 581.786 147.141 614.507L159.572 593.978ZM80 461.919H104C104 389.349 173.291 324.8 266.353 324.8L266.353 300.8L266.352 276.8C153.575 276.8 56 356.522 56 461.919H80Z" fill="#1A1A1A" mask="url(#path-1-inside-1_1_9716)"/>
<path d="M212.284 588.521C168.497 607.546 80.6546 602.733 53.8902 587.172C14.4737 564.255 59.7698 533.564 86.1088 524.084C132.799 503.797 181.58 504.291 200.135 507.074C237.573 534.793 223.834 572.922 212.284 588.521Z" fill="#DD940E" stroke="#1A1A1A" stroke-width="24" stroke-linejoin="round"/>
<path d="M218.284 672.786C222.787 662.944 228.523 654.113 234.993 646.282C265.08 609.861 317.607 604.516 363.405 616.102C474.364 644.173 534.156 712.929 556.917 758.5C561.756 768.187 560.034 779.944 551.612 786.75C517.617 814.218 452.72 823.855 387.352 824.931C292.624 826.491 178.872 758.94 218.284 672.786Z" fill="#DD940E"/>
<circle cx="144.941" cy="445.741" r="16.9412" fill="#1A1A1A"/>
<circle cx="256.941" cy="445.741" r="16.9412" fill="#1A1A1A"/>
</svg>
