<svg width="768" height="880" viewBox="0 0 768 880" fill="none" xmlns="http://www.w3.org/2000/svg">
<path d="M205.825 320.989C208.819 310.625 219.432 304.684 229.599 307.489C293.854 325.219 373.049 351.12 444.35 378.508C476.577 390.887 506.377 401.867 531.663 415.542C556.796 429.135 576.241 444.777 588.315 465.689C617.536 516.303 613.263 564.68 593.93 601.114C574.242 638.218 539.494 662.138 508.618 664.643C504.38 664.986 500.64 667.546 498.787 671.373C496.934 675.2 497.245 679.722 499.603 683.26L558.607 771.766C559.858 773.642 559.311 776.182 557.399 777.377L449.198 845.003C447.272 846.207 444.732 845.567 443.605 843.595L383.718 738.794C380.656 733.434 374.052 731.299 368.462 733.766L367.924 734.019C344.685 745.66 299.912 751.058 254.853 743.651C209.802 736.246 168.599 716.748 149.058 682.902C139.537 666.411 137.993 642.154 142.239 609.856C146.442 577.88 155.854 540.869 165.593 500.156C165.678 499.804 165.746 499.448 165.798 499.089C176.211 427.354 191.916 369.134 205.825 320.989Z" fill="#E6E6E6" stroke="#1A1A1A" stroke-width="24" stroke-linejoin="round"/>
<path d="M253.328 394.108L264.048 388.715V388.715L253.328 394.108ZM362.475 593.711C366.432 599.027 373.95 600.129 379.266 596.172C384.582 592.215 385.684 584.697 381.727 579.381L372.101 586.546L362.475 593.711ZM208 304L197.28 309.393L242.608 399.501L253.328 394.108L264.048 388.715L218.72 298.607L208 304ZM253.328 394.108L242.608 399.501C276.86 467.589 316.966 532.57 362.475 593.711L372.101 586.546L381.727 579.381C337.049 519.356 297.675 455.561 264.048 388.715L253.328 394.108Z" fill="#1A1A1A"/>
<path d="M396.552 588C415.824 588 431.317 602.01 431.317 619.49C431.317 627.745 426.575 637.065 418.096 644.733C409.631 652.389 399.183 656.778 390.519 656.778C382.147 656.778 375.965 653.282 371.561 647.528C366.932 641.483 364 632.482 364 621.867C364 602.831 378.9 588 396.552 588Z" fill="white" stroke="#1A1A1A" stroke-width="24" stroke-linejoin="round"/>
<circle cx="16.8613" cy="16.8613" r="16.8613" transform="matrix(-1 0 0 1 496 464)" fill="#1A1A1A"/>
<circle cx="16.8613" cy="16.8613" r="16.8613" transform="matrix(-1 0 0 1 432 432)" fill="#1A1A1A"/>
</svg>
