<svg width="768" height="880" viewBox="0 0 768 880" fill="none" xmlns="http://www.w3.org/2000/svg">
<path d="M350.286 344C270.775 344 206.14 403.439 204.603 477.307C193.063 473.861 180.764 472 168 472C101.726 472 48 522.144 48 584C48 606.913 55.3738 628.217 68.0244 645.962C27.5569 666.121 0 706.043 0 752C0 818.274 57.3076 872 128 872C131.778 872 135.519 871.845 139.214 871.544C140.968 871.842 142.77 872 144.61 872H648.409C648.615 872 648.821 871.997 649.026 871.993C705.991 871.485 752 828.703 752 776C752 729.57 716.292 690.837 668.842 681.928C681.046 660.045 688 634.835 688 608C688 524.053 619.947 456 536 456C521.68 456 507.823 457.982 494.688 461.684C485.103 395.235 424.106 344 350.286 344Z" fill="#E5F4FF"/>
<circle cx="408" cy="752" r="40" fill="#FFC7C2"/>
<circle cx="136" cy="752" r="40" fill="#FFC7C2"/>
<path d="M615.673 667.529C652.578 508.624 553.248 479.561 482.609 469.47L504 464L559.396 457.076C565.03 456.371 570.751 457.179 575.97 459.416L618.336 477.572C622.078 479.176 625.479 481.479 628.358 484.358L668.328 524.328C670.76 526.76 672.784 529.568 674.322 532.645L678.719 541.437C679.571 543.142 680.27 544.92 680.806 546.75L689.305 575.756C690.887 581.157 691.018 586.878 689.683 592.345L680 632L676.423 649.887C673.77 663.148 679.741 676.645 691.337 683.602L707.351 693.211C710.429 695.057 713.173 697.408 715.471 700.165L743.107 733.329C748.78 740.136 751.376 748.991 750.277 757.784L745.196 798.432C744.416 804.672 741.815 810.544 737.717 815.314L716.325 840.217C710.246 847.294 701.381 851.366 692.051 851.366H630.213C721.436 786.207 675.859 734.736 634.196 709.237C620.021 700.561 611.913 683.717 615.673 667.529Z" fill="#BDE3FF"/>
<mask id="path-5-inside-1_1_9721" fill="white">
<path fill-rule="evenodd" clip-rule="evenodd" d="M341.714 328C256.504 328 187.429 392.471 187.429 472C187.429 472.488 187.434 472.976 187.439 473.463C181.112 472.501 174.619 472 168 472C101.726 472 48 522.144 48 584C48 606.913 55.3738 628.217 68.0244 645.962C27.5569 666.121 0 706.043 0 752C0 818.274 57.3076 872 128 872C131.778 872 135.519 871.845 139.214 871.544C140.968 871.842 142.77 872 144.61 872H648.409C649.167 872 649.916 871.973 650.657 871.923C652.156 871.973 653.662 872 655.176 872C717.487 872 768 829.019 768 776C768 730.739 731.189 692.795 681.651 682.659C695.85 658.685 704 630.707 704 600.824C704 512.003 631.997 440 543.176 440C525.955 440 509.367 442.708 493.813 447.719C481.447 379.752 418.057 328 341.714 328Z"/>
</mask>
<path d="M341.714 328L341.714 304H341.714V328ZM187.429 472H163.429V472H187.429ZM187.439 473.463L211.438 473.207C211.513 480.246 208.494 486.964 203.18 491.581C197.865 496.197 190.792 498.248 183.832 497.19L187.439 473.463ZM168 472V448V448V472ZM48 584H24V584H48ZM68.0244 645.962L87.5668 632.03C91.6427 637.747 93.0104 644.963 91.3098 651.775C89.609 658.587 85.0104 664.313 78.7257 667.444L68.0244 645.962ZM0 752H-24V752H0ZM128 872V896V896V872ZM139.214 871.544L137.267 847.623C139.258 847.461 141.262 847.548 143.231 847.883L139.214 871.544ZM144.61 872V896H144.61L144.61 872ZM650.657 871.923L649.033 847.978C649.841 847.923 650.652 847.909 651.461 847.936L650.657 871.923ZM655.176 872V896V896V872ZM768 776H792V776H768ZM681.651 682.659L676.84 706.172C669.236 704.616 662.854 699.479 659.709 692.383C656.565 685.286 657.046 677.108 661.001 670.429L681.651 682.659ZM704 600.824H728H728H704ZM543.176 440V416V416V440ZM493.813 447.719L501.173 470.563C494.591 472.683 487.415 471.862 481.483 468.309C475.551 464.756 471.439 458.818 470.201 452.015L493.813 447.719ZM341.714 328L341.714 352C268.173 352 211.429 407.259 211.429 472H187.429H163.429C163.429 377.684 244.836 304 341.714 304L341.714 328ZM187.429 472H211.429C211.429 472.334 211.432 472.681 211.438 473.207L187.439 473.463L163.441 473.719C163.436 473.27 163.429 472.643 163.429 472H187.429ZM187.439 473.463L183.832 497.19C178.694 496.409 173.406 496 168 496V472V448C175.831 448 183.53 448.593 191.047 449.736L187.439 473.463ZM168 472V496C113.394 496 72 536.932 72 584H48H24C24 507.357 90.0575 448 168 448V472ZM48 584H72C72 601.645 77.6532 618.124 87.5668 632.03L68.0244 645.962L48.482 659.894C33.0945 638.309 24 612.18 24 584H48ZM68.0244 645.962L78.7257 667.444C45.5314 683.98 24 716.085 24 752H0H-24C-24 696.001 9.58246 648.262 57.3231 624.48L68.0244 645.962ZM0 752H24C24 803.584 69.0798 848 128 848V872V896C45.5354 896 -24 832.965 -24 752H0ZM128 872V848C131.12 848 134.211 847.872 137.267 847.623L139.214 871.544L141.16 895.465C136.826 895.818 132.437 896 128 896V872ZM139.214 871.544L143.231 847.883C143.691 847.961 144.15 848 144.611 848L144.61 872L144.61 896C141.391 896 138.245 895.723 135.197 895.205L139.214 871.544ZM144.61 872V848H648.409V872V896H144.61V872ZM648.409 872V848C648.599 848 648.806 847.993 649.033 847.978L650.657 871.923L652.281 895.868C651.027 895.953 649.735 896 648.409 896V872ZM650.657 871.923L651.461 847.936C652.709 847.978 653.947 848 655.176 848V872V896C653.378 896 651.603 895.968 649.853 895.909L650.657 871.923ZM655.176 872V848C708.012 848 744 812.276 744 776H768H792C792 845.762 726.961 896 655.176 896V872ZM768 776H744C744 744.867 718.116 714.618 676.84 706.172L681.651 682.659L686.463 659.146C744.261 670.973 792 716.612 792 776H768ZM681.651 682.659L661.001 670.429C673.067 650.056 680 626.286 680 600.824H704H728C728 635.127 718.632 667.315 702.301 694.889L681.651 682.659ZM704 600.824H680C680 525.258 618.742 464 543.176 464V440V416C645.251 416 728 498.749 728 600.824H704ZM543.176 440V464C528.485 464 514.379 466.308 501.173 470.563L493.813 447.719L486.454 424.875C504.356 419.108 523.426 416 543.176 416V440ZM493.813 447.719L470.201 452.015C460.082 396.4 407.443 352 341.714 352V328V304C428.671 304 502.812 363.104 517.426 443.423L493.813 447.719Z" fill="#1A1A1A" mask="url(#path-5-inside-1_1_9721)"/>
<circle cx="220.741" cy="724.74" r="12.7398" fill="#1A1A1A"/>
<circle cx="316.74" cy="724.74" r="12.7398" fill="#1A1A1A"/>
<path d="M240 764.573C253.968 779.608 277.58 780.182 292.261 765.843L293.561 764.573" stroke="#1A1A1A" stroke-width="24" stroke-linecap="round"/>
</svg>
